<svg xmlns="http://www.w3.org/2000/svg" xmlns:xlink="http://www.w3.org/1999/xlink" width="1433.073" height="323.926" viewBox="0 0 1433.073 323.926"><defs><filter id="a" x="0" y="0" width="149.679" height="323.926" filterUnits="userSpaceOnUse"><feOffset dy="3" input="SourceAlpha"/><feGaussianBlur stdDeviation="3" result="b"/><feFlood flood-opacity="0.502"/><feComposite operator="in" in2="b"/><feComposite in="SourceGraphic"/></filter></defs><g transform="translate(-486.928 -2608.278)"><path d="M-2198.169-7495h-92.659l12.433-20.3-36.82-56.7,24.387-47H-1002.2v124Z" transform="translate(2922.202 10341)" fill="rgba(46,46,46,0.3)"/><g transform="matrix(1, 0, 0, 1, 486.93, 2608.28)" filter="url(#a)"><path d="M-118-3311.586h18.683l49.254,55.482,43.381-67.158-43.381-77.208-50.953,67.938,50.953,9.271-67.937-.779,62.239-85.578-43.556-70.111L-50.275-3535-5.9-3492.186H-18.359l-31.916-30.359-42.814,42.814,42.571,62.9.456-.627.072.112,37.86-59.274-38.285-3.114H.324l-45.171,70.472,34.12,53.617L12-3323.262l-62.063,92.635Z" transform="translate(128.07 3541.72)" fill="#fff" stroke="rgba(46,46,46,0.3)" stroke-width="1"/></g><text transform="translate(960 2799)" font-size="60" font-family="Courier"><tspan x="-288.047" y="0">Technical Skills</tspan></text></g></svg>