<svg xmlns="http://www.w3.org/2000/svg" width="112.554" height="110.611" viewBox="0 0 112.554 110.611">
  <g id="back-end-icon" transform="translate(-1414.146 -2897.374)">
    <g id="cloud_queue-24px" transform="translate(1416.221 2897.374)">
      <path id="Path_61" data-name="Path 61" d="M0,0H110.478V110.478H0Z" fill="none"/>
      <path id="Subtraction_11" data-name="Subtraction 11" d="M-4030.76-16923.723h-42.449v-9.205h42.449a13.726,13.726,0,0,0,9.773-4.039,13.719,13.719,0,0,0,4.04-9.77,13.728,13.728,0,0,0-4.04-9.773,13.725,13.725,0,0,0-9.773-4.039h-6.9v-2.3a25.18,25.18,0,0,0-1.988-9.859,25.223,25.223,0,0,0-5.424-8.047,25.208,25.208,0,0,0-8.048-5.424,25.183,25.183,0,0,0-9.861-1.988,25.3,25.3,0,0,0-8.271,1.381,25.227,25.227,0,0,0-7.114,3.838,25.5,25.5,0,0,0-5.509,5.832,25.433,25.433,0,0,0-3.455,7.365h-3.268a18.35,18.35,0,0,0-7.17,1.445,18.359,18.359,0,0,0-5.854,3.943,18.361,18.361,0,0,0-3.945,5.852,18.317,18.317,0,0,0-1.447,7.17,18.343,18.343,0,0,0,2.914,9.947v12.908a27.9,27.9,0,0,1-8.8-9.732,27.512,27.512,0,0,1-2.452-6.246,27.628,27.628,0,0,1-.866-6.877,27.535,27.535,0,0,1,7.117-18.5,27.491,27.491,0,0,1,17.509-8.937,34.7,34.7,0,0,1,12.476-13.441,34.373,34.373,0,0,1,18.135-5.156,34.392,34.392,0,0,1,11.915,2.111,34.316,34.316,0,0,1,10.112,5.836,34.528,34.528,0,0,1,7.557,8.813,34.306,34.306,0,0,1,4.251,11.045,23,23,0,0,1,15.191,7.168,22.731,22.731,0,0,1,6.214,15.666,22.836,22.836,0,0,1-1.81,8.953,22.941,22.941,0,0,1-4.934,7.314,22.932,22.932,0,0,1-7.317,4.936A22.837,22.837,0,0,1-4030.76-16923.723Z" transform="translate(4118.221 17015.787)" fill="rgba(112,112,112,0.6)"/>
    </g>
    <g id="device_hub-24px" transform="translate(1404.757 2942.264)">
      <path id="Path_60" data-name="Path 60" d="M46.814,43.685,34.3,31.166V21.214a9.389,9.389,0,1,0-6.259,0v9.952L15.518,43.685H3V59.333H18.648V49.787L31.166,36.643,43.685,49.787v9.545H59.333V43.685Z" transform="translate(6.389 6.389)" fill="#707070"/>
    </g>
  </g>
</svg>
