<svg id="background" xmlns="http://www.w3.org/2000/svg" width="1920.001" height="1090" viewBox="0 0 1920.001 1090">
  <defs>
    <style>
      .cls-1 {
        stroke: rgba(46,46,46,0.3);
      }

      .cls-2 {
        fill: rgba(46,46,46,0.3);
      }

      .cls-3 {
        fill: #db0101;
      }

      .cls-4 {
        fill: #fff;
      }

      .cls-5 {
        fill: rgba(255,255,255,0.2);
      }

      .cls-6 {
        stroke: none;
      }

      .cls-7 {
        fill: none;
      }
    </style>
  </defs>
  <g id="Rectangle_9" data-name="Rectangle 9" class="cls-1">
    <rect class="cls-6" width="1920" height="1090"/>
    <rect class="cls-7" x="0.5" y="0.5" width="1919" height="1089"/>
  </g>
  <path id="Subtraction_2" data-name="Subtraction 2" class="cls-2" d="M-844.112-3289.262h0l-41.237,0,9.092-13.571-6.029-8.589-9.05-14.223,11.982-18.693h-13.459l10.155.826L-892.7-3327.79l-.019-.031-.121.167-11.292-16.686,11.356-11.357,8.466,8.053h3.3L-892.778-3359l-13.009,14.661,11.554,18.6-16.509,22.7,18.021.207-13.514-2.46,13.514-18.021,11.507,20.481-8.766,13.571h-6.507l-9.3-10.474h-4.955l8.789,10.474h-10.505l-7.88-12.382,11.982-18.693h-13.459l10.156.825L-921.7-3303.79l-.019-.03-.121.167-11.291-16.685,11.356-11.357,8.466,8.053h3.3L-921.777-3335l-13.008,14.661,11.552,18.6-9.075,12.478h-9.043l9.092-13.571-6.028-8.589-9.05-14.223,11.982-18.693h-13.459l10.156.826L-948.7-3327.79l-.019-.031-.121.167-11.291-16.686,11.356-11.357,8.466,8.053h3.3L-948.777-3359l-13.008,14.661,11.552,18.6-16.509,22.7,18.021.207-13.516-2.46,13.516-18.021,11.507,20.481-8.766,13.571h-6.507l-9.3-10.474h-4.956l8.789,10.474h-42.07l9.763-14.572-6.028-8.589-9.051-14.222,11.982-18.693h-13.459l10.155.825-10.042,15.723-.019-.03-.121.167-11.291-16.686,11.356-11.357,8.466,8.053h3.3l-11.77-11.357-13.008,14.661,11.552,18.6-16.509,22.7,18.021.206-13.516-2.459,13.516-18.021,11.507,20.48-9.412,14.572h-4.973l-10.186-11.474h-4.956l9.629,11.474h-42.918l11.772-17.572-6.029-8.589-9.051-14.223,11.982-18.693h-13.459l10.155.826-10.042,15.723-.019-.031-.121.167-11.292-16.685,11.356-11.357,8.466,8.053h3.3l-11.77-11.357-13.009,14.661,11.554,18.6-16.509,22.7,18.021.207-13.515-2.46,13.515-18.021,11.506,20.48-11.35,17.572h-.371l-12.85-14.474h-4.955l12.146,14.474h-11.175l-1.517-2.161-9.05-14.221,11.982-18.693h-13.459l10.156.826-10.042,15.723-.019-.03-.122.167-11.291-16.685,11.356-11.357,8.466,8.053h3.3l-11.77-11.357-13.009,14.661,11.553,18.6-11.984,16.479h-8.814l11.772-17.572-6.028-8.589-9.05-14.223,11.982-18.693h-13.459l10.156.826-10.042,15.723-.019-.031-.122.167-11.291-16.685,11.356-11.357,8.466,8.053h3.3l-11.77-11.357-13.009,14.661,11.553,18.6-16.509,22.7,18.021.207-13.516-2.46,13.516-18.021,11.506,20.48-11.35,17.572h-.371l-12.85-14.474h-4.955l12.146,14.474h-7.071l-3.621-5.16-9.051-14.223,11.983-18.693h-13.459l10.156.826-10.042,15.723-.02-.031-.121.167-11.291-16.686,11.356-11.357,8.466,8.053h3.3L-1145.777-3342l-13.01,14.661,11.554,18.6-14.165,19.479h-8.979l9.022-14.075h-13.459l10.156.825-8.463,13.25h-3.487l-9.526-14.075,11.356-11.357,8.466,8.053h3.3L-1174.778-3318l-13.008,14.661,8.744,14.075h-8.624l-3.621-5.16-9.051-14.223,11.982-18.693h-13.459l10.156.826-10.042,15.723-.019-.031-.121.167-11.292-16.686,11.356-11.357,8.466,8.053h3.3L-1201.778-3342l-13.008,14.661,11.553,18.6-14.166,19.479h-8.632l11.773-17.572-6.029-8.589-9.05-14.223,11.982-18.693h-13.459l10.155.826-10.042,15.723-.019-.031-.12.167-11.292-16.685,11.356-11.357,8.466,8.053h3.3l-11.77-11.357-13.009,14.661,11.554,18.6-16.51,22.7,18.021.207-13.515-2.46,13.515-18.021,11.506,20.48-11.35,17.572h-.371l-12.85-14.474h-4.955l12.146,14.474h-11.175l-1.517-2.161-9.05-14.221,11.982-18.693h-13.459l10.156.826-10.042,15.723-.019-.03-.122.167-11.291-16.685,11.356-11.357,8.466,8.053h3.3l-11.77-11.357-13.009,14.661,11.553,18.6-11.984,16.479h-8.814l11.772-17.572-6.028-8.589-9.05-14.223,11.982-18.693h-13.459l10.156.826-10.042,15.723-.019-.031-.122.167-11.291-16.685,11.356-11.357,8.466,8.053h3.3l-11.77-11.357-13.009,14.661,11.553,18.6-16.509,22.7,18.021.207-13.516-2.46,13.516-18.021,11.506,20.48-11.35,17.572h-.371l-12.85-14.474h-4.955l12.147,14.474h-12.878l-.814-1.16-9.05-14.222,11.982-18.693h-13.458l10.155.826-10.042,15.723-.019-.031-.122.167-11.291-16.685,11.356-11.357,8.466,8.053h3.3l-11.77-11.357-13.01,14.661,11.554,18.6-11.257,15.479h-9.324l6.458-10.075h-13.459l10.156.825-5.908,9.25h-8.747l-6.818-10.076,11.356-11.357,8.466,8.053h3.3l-11.77-11.357-13.009,14.661,6.26,10.075h-8.946l-.814-1.16-9.051-14.222,11.982-18.693h-13.459l10.156.826-10.042,15.723-.019-.031-.121.167-11.291-16.685,11.356-11.357,8.466,8.053h3.3l-11.77-11.357-13.009,14.661,11.553,18.6-11.257,15.479h-11.541l11.773-17.572-6.029-8.589-9.05-14.223,11.982-18.693h-13.459l10.155.826-10.042,15.723-.019-.031-.121.167-11.292-16.685,11.356-11.357,8.466,8.053h3.3l-11.77-11.357-13.009,14.661,11.554,18.6-16.51,22.7,18.021.207-13.515-2.46,13.515-18.021,11.506,20.48-11.35,17.572h-.371l-12.85-14.474h-4.955l12.146,14.474h-11.175l-1.517-2.161-9.05-14.221,11.982-18.693h-13.459l10.156.826-10.042,15.723-.019-.03-.121.167-11.291-16.685,11.356-11.357,8.466,8.053h3.3l-11.77-11.357-13.009,14.661,11.553,18.6-11.984,16.479h-8.814l11.772-17.572-6.028-8.589-9.05-14.223,11.982-18.693h-13.459l10.156.826-10.042,15.723-.019-.031-.121.167-11.291-16.685,11.356-11.357,8.466,8.053h3.3l-11.77-11.357-13.009,14.661,11.553,18.6-16.509,22.7,18.021.207-13.516-2.46,13.516-18.021,11.507,20.48-11.35,17.572h-.371l-12.85-14.474h-4.955l12.147,14.474h-16.877l-.814-1.16-9.05-14.222,11.982-18.693h-13.458l10.155.826-10.042,15.723-.019-.031-.121.167-11.292-16.685,11.356-11.357,8.466,8.053h3.3l-11.77-11.357-13.009,14.661,11.554,18.6-11.257,15.479h-9.324l6.458-10.075h-13.459l10.156.825-5.908,9.25h-8.747l-6.818-10.076,11.356-11.357,8.466,8.053h3.3l-11.77-11.357-13.009,14.661,6.259,10.075h-8.946l-.814-1.16-9.05-14.222,11.982-18.693h-13.459l10.156.826-10.042,15.723-.019-.031-.122.167-11.291-16.685,11.356-11.357,8.466,8.053h3.3l-11.77-11.357-13.009,14.661,11.553,18.6-11.257,15.479h-9.248l8.381-13.075h-13.459l10.156.826-7.823,12.249h-4.8l-8.848-13.075,11.356-11.357,8.466,8.053h3.3L-1574.777-3317l-13.01,14.661,8.124,13.075h-20.242l-3.872-3.736-3.315,3.736h-18.644l8.381-13.075h-13.459l10.156.826-7.823,12.249h-4.8l-8.849-13.075,11.356-11.357,8.466,8.053h3.3L-1630.777-3317l-13.008,14.661,8.123,13.075h-12.81l-.814-1.16-9.05-14.222,11.982-18.693h-13.459l10.155.826-10.042,15.723-.019-.031-.121.167-11.292-16.685,11.356-11.357,8.466,8.053h3.3l-11.77-11.357-13.009,14.661,11.554,18.6-11.258,15.479h-9.324l6.458-10.075h-13.459l10.156.825-5.908,9.25h-8.748l-6.818-10.076,11.356-11.357,8.466,8.053h3.3l-11.77-11.357-13.009,14.661,6.259,10.075h-8.946l-.814-1.16-9.05-14.222,11.982-18.693h-13.459l10.156.826-10.042,15.723-.019-.031-.121.167-11.291-16.685,11.356-11.357,8.466,8.053h3.3l-11.77-11.357-13.009,14.661,11.553,18.6-11.257,15.479h-9.683l5.817-9.075h-13.459l10.155.826-5.269,8.25h-10.063l-6.142-9.076,11.356-11.357,8.466,8.053h3.3l-11.77-11.357-13.01,14.661,5.639,9.075h-41.025l5.817-9.075h-13.459l10.156.826-5.269,8.25h-10.063l-6.142-9.076,11.356-11.357,8.466,8.053h3.3l-11.77-11.357-13.009,14.661,5.638,9.075h-10.326l-.814-1.16-9.05-14.222,11.982-18.693h-13.459l10.155.826-10.042,15.723-.019-.031-.121.167-11.292-16.685,11.356-11.357,8.466,8.053h3.3l-11.77-11.357-13.009,14.661,11.554,18.6-11.258,15.479h-9.324l6.458-10.075h-13.459l10.156.825-5.908,9.25h-8.748l-6.818-10.076,11.356-11.357,8.466,8.053h3.3l-11.77-11.357-13.009,14.661,6.259,10.075h-8.946l-.814-1.16-9.05-14.222,11.982-18.693h-13.459l10.156.826-10.042,15.723-.019-.031-.121.167-11.291-16.685,11.356-11.357,8.466,8.053h3.3l-11.77-11.357-13.009,14.661,11.553,18.6-11.257,15.479H-2311v-124h11.882l10.885,17.521-16.509,22.7,18.021.207-13.516-2.46,13.516-18.021,11.507,20.481-11.507,17.814-13.065-14.717h-4.955l18.021,21.475,16.462-24.572-6.028-8.589-9.05-14.222,11.292-17.618h30.927l10.886,17.521-16.51,22.7,18.021.207-13.515-2.46,13.515-18.021,11.507,20.481-11.507,17.814-13.065-14.717h-4.956l18.021,21.475,16.463-24.572-6.029-8.589-9.051-14.222,11.292-17.618h25.465l-.162.223,18.021.206-2.355-.428h13.621l.241.429-11.507,17.814-13.065-14.717h-4.956l18.021,21.474,16.462-24.572-.3-.429h30.441l10.885,17.521-16.509,22.7,18.021.207-13.516-2.46,13.516-18.021,11.507,20.481-11.507,17.814-13.065-14.717h-4.956l18.021,21.475,16.462-24.572-6.028-8.589-9.05-14.222,11.292-17.618h30.927l10.886,17.521-16.51,22.7,18.021.207-13.515-2.46,13.515-18.021,11.507,20.481-11.507,17.814-13.065-14.717h-4.956l18.021,21.475,16.463-24.572-6.029-8.589-9.051-14.222,11.292-17.618h25.7l17.624,21,14.069-21h29.533l10.885,17.521-16.509,22.7,18.021.207-13.516-2.46,13.516-18.021,11.506,20.481-11.506,17.814-13.065-14.717h-4.955l18.021,21.475,16.462-24.572-6.028-8.589-9.05-14.222,11.292-17.618h30.927l10.886,17.521-16.51,22.7,18.021.207-13.515-2.46,13.515-18.021,11.506,20.481-11.506,17.814-13.065-14.717h-4.955l18.021,21.475,16.463-24.572-6.029-8.589-9.05-14.222,11.292-17.618h435.306l11.506,18.521-16.509,22.7,18.021.206-13.516-2.459,13.516-18.021,11.507,20.48-11.507,17.815-13.065-14.717h-4.955l18.021,21.474,16.462-24.572-6.028-8.588-9.05-14.222,11.933-18.617h144.665l11.506,18.521-16.509,22.7,18.021.206-13.516-2.459,13.516-18.021,11.506,20.48-11.506,17.815-13.065-14.717h-4.955l18.021,21.474,16.462-24.572-6.028-8.588-9.05-14.222,11.933-18.617h141.666l11.506,18.521-16.509,22.7,18.021.206-13.516-2.459,13.516-18.021,11.506,20.48-11.506,17.815-13.065-14.717h-4.955l18.021,21.474,16.462-24.572-6.028-8.588-9.05-14.222,11.933-18.617h68.368l-14.706,20.222,18.021.206-13.516-2.459,13.478-17.969h.067l11.478,20.428-11.507,17.815-13.064-14.717h-4.956l18.021,21.474,16.462-24.572-6.028-8.588-7.535-11.841H-931.3l-3.482,3.925,11.552,18.6-16.509,22.7,18.021.206-13.516-2.459,13.516-18.021,11.507,20.48-11.507,17.814-13.064-14.717h-4.956l18.021,21.474,16.462-24.572-6.028-8.588-9.05-14.223,11.982-18.693h-13.459l10.156.825L-921.7-3392.79l-.019-.03-.121.167-11.291-16.685,3.924-3.925h15.245l.653.621h3.3l-.644-.621h71.614l-14.706,20.222,18.021.206-13.516-2.459,13.478-17.969h.067l11.478,20.428-11.507,17.815-13.065-14.717h-4.955l18.021,21.474,16.462-24.572-6.028-8.588-7.535-11.841H-807v29.514l-12.786,14.41,11.554,18.6-16.51,22.7,17.742.2v17.5l-12.786-14.4h-4.955L-807-3303.6v14.331h-22.021l9.763-14.572-6.028-8.589-9.051-14.222,11.982-18.693h-13.459l10.155.825L-835.7-3328.79l-.019-.03-.121.167-11.291-16.686,11.356-11.357,8.466,8.053h3.3L-835.778-3360l-13.009,14.661,11.553,18.6-16.509,22.7,18.021.206-13.516-2.459,13.516-18.021,11.507,20.48-9.412,14.572H-838.6l-10.187-11.474h-4.955l9.629,11.474Zm-948.63-29.476h0l18.022,21.474,16.462-24.572-6.028-8.588-9.05-14.223,11.982-18.693h-13.459l10.156.825-10.042,15.723-.019-.03-.121.167-11.292-16.686,11.356-11.357,8.466,8.053h3.3l-11.77-11.357-13.009,14.661,11.553,18.6-16.51,22.7,18.022.206-13.516-2.459,13.516-18.021,11.506,20.48-11.506,17.814-13.065-14.717h-4.956Zm-400-2,18.021,21.474,16.462-24.572-6.028-8.589-9.05-14.222,11.982-18.693h-13.46l10.156.825-10.042,15.723-.019-.03-.122.167-11.291-16.685,11.356-11.357,8.466,8.053h3.3l-11.77-11.357-13.009,14.661,11.553,18.6-16.51,22.7,18.021.206-13.516-2.459,13.516-18.021,11.507,20.48-11.507,17.814-13.065-14.717h-4.956Zm571-2h0l18.022,21.474,16.462-24.572-6.028-8.588-9.05-14.222,11.982-18.693h-13.459l10.156.825-10.042,15.723-.019-.03-.122.167-11.292-16.685,11.356-11.357,8.466,8.053h3.3L-1603.777-3382l-13.008,14.661,11.553,18.6-16.51,22.7,18.022.206-13.516-2.459,13.516-18.021,11.506,20.48-11.506,17.815-13.065-14.717h-4.956Zm741-2h0l18.021,21.475,16.462-24.572-6.028-8.589-9.051-14.222,11.982-18.693h-13.459l10.155.826L-862.7-3352.79l-.019-.031-.121.167-11.291-16.685,11.356-11.357,8.466,8.053h3.3L-862.778-3384l-13.008,14.661,11.552,18.6-16.509,22.7,18.021.207-13.516-2.46,13.516-18.021,11.507,20.481-11.507,17.814-13.064-14.717h-4.957Zm-115,0h0l18.021,21.475,16.463-24.572-6.029-8.589-9.051-14.222,11.982-18.693h-13.459l10.155.826L-977.7-3352.79l-.02-.031-.121.167-11.292-16.685,11.356-11.357,8.466,8.053h3.3L-977.778-3384l-13.009,14.661,11.554,18.6-16.51,22.7,18.021.207-13.515-2.46,13.515-18.021,11.507,20.481-11.507,17.814-13.065-14.717h-4.956Zm-56,0h0l18.021,21.475,16.462-24.572-6.028-8.589-9.05-14.222,11.982-18.693h-13.46l10.156.826-10.042,15.723-.019-.031-.122.167-11.291-16.685,11.356-11.357,8.466,8.053h3.3l-11.77-11.357-13.008,14.661,11.552,18.6-16.509,22.7,18.021.207-13.516-2.46,13.516-18.021,11.506,20.481-11.506,17.814-13.065-14.717h-4.957Zm-970,0h0l18.022,21.474,16.462-24.572-6.028-8.589-9.05-14.222,11.982-18.693h-13.459l10.156.825-10.042,15.723-.019-.03-.121.167-11.292-16.686,11.356-11.357,8.466,8.053h3.3L-2003.778-3384l-13.008,14.661,11.553,18.6-16.51,22.7,18.022.206-13.516-2.459,13.516-18.021,11.507,20.479-11.507,17.815-13.065-14.717h-4.957Zm658-19h0l18.022,21.474,16.462-24.572-6.028-8.588-9.051-14.222,11.982-18.693h-13.459l10.156.825-10.042,15.723-.019-.03-.121.167-11.291-16.686,11.356-11.357,8.466,8.053h3.3l-11.77-11.357-13.009,14.661,11.553,18.6-16.51,22.7,18.022.206-13.516-2.459,13.516-18.021,11.506,20.479-11.506,17.814-13.065-14.717h-4.957Zm-175,0h0l18.021,21.474,16.462-24.572-6.028-8.588-9.05-14.222,11.982-18.693h-13.459l10.156.825-10.042,15.723-.019-.03-.122.167-11.291-16.686,11.356-11.357,8.466,8.053h3.3l-11.77-11.357-13.009,14.661,11.553,18.6-16.509,22.7,18.021.206-13.516-2.459,13.516-18.021,11.506,20.479-11.506,17.814-13.065-14.717h-4.956Zm-168,0h0l18.021,21.474,16.462-24.572-6.028-8.588-9.05-14.222,11.982-18.693h-13.459l10.156.825-10.042,15.723-.019-.03-.121.167-11.291-16.686,11.356-11.357,8.466,8.053h3.3l-11.77-11.357-13.009,14.661,11.553,18.6-16.509,22.7,18.021.206-13.516-2.459,13.516-18.021,11.506,20.479-11.506,17.814-13.065-14.717h-4.956Zm-171,0h0l18.021,21.474,16.462-24.572-6.028-8.588-9.05-14.222,11.982-18.693h-13.459l10.156.825-10.042,15.723-.019-.03-.121.167-11.291-16.686,11.356-11.357,8.466,8.053h3.3l-11.77-11.357-13.009,14.661,11.553,18.6-16.509,22.7,18.021.206-13.516-2.459,13.516-18.021,11.506,20.479-11.506,17.814-13.065-14.717h-4.956Zm-286-1h0l18.021,21.475,16.463-24.572-6.029-8.589-9.051-14.223,11.982-18.693h-13.458l10.155.826-10.042,15.723-.019-.031-.121.167-11.292-16.686,11.356-11.357,8.466,8.053h3.3l-11.77-11.357-13.01,14.661,11.554,18.6-16.509,22.7,18.021.207-13.515-2.46,13.515-18.021,11.506,20.481-11.506,17.813-13.066-14.717h-4.955Zm-56,0h0l18.021,21.475,16.462-24.572-6.028-8.589-9.05-14.223,11.982-18.693h-13.46l10.156.826-10.042,15.723-.019-.031-.122.167-11.291-16.686,11.356-11.357,8.466,8.053h3.3l-11.77-11.357-13.009,14.661,11.553,18.6-16.51,22.7,18.021.207-13.516-2.46,13.516-18.021,11.507,20.481-11.507,17.813-13.065-14.717h-4.957Zm281-1h0l18.021,21.474,16.462-24.572-6.028-8.589-9.05-14.222,11.982-18.693h-13.46l10.156.825-10.042,15.723-.019-.03-.121.167-11.292-16.686,11.356-11.357,8.466,8.053h3.3l-11.77-11.357-13.009,14.661,11.553,18.6-16.509,22.7,18.021.206-13.516-2.459,13.516-18.021,11.506,20.48-11.506,17.814-13.065-14.717h-4.956Zm-168,0h0l18.021,21.474,16.462-24.572-6.028-8.589-9.05-14.222,11.981-18.693h-13.459l10.156.825-10.042,15.723-.019-.03-.122.167-11.291-16.686,11.356-11.357,8.466,8.053h3.3l-11.77-11.357-13.009,14.661,11.553,18.6-16.509,22.7,18.021.206-13.516-2.459,13.516-18.021,11.507,20.48-11.507,17.814-13.065-14.717h-4.956Zm-171,0h0l18.021,21.474,16.462-24.572-6.028-8.589-9.05-14.222,11.981-18.693h-13.459l10.156.825-10.042,15.723-.019-.03-.122.167-11.291-16.686,11.356-11.357,8.466,8.053h3.3l-11.77-11.357-13.009,14.661,11.553,18.6-16.509,22.7,18.021.206-13.516-2.459,13.516-18.021,11.507,20.48-11.507,17.814-13.065-14.717h-4.956Zm1085-2,18.022,21.474,16.462-24.572-6.028-8.588-9.051-14.223,11.982-18.693h-13.459l10.156.825-10.042,15.723-.019-.03-.121.167-11.292-16.685,11.356-11.357,8.466,8.053h3.3L-1174.778-3407l-13.008,14.661,11.553,18.6-16.51,22.7,18.022.206-13.516-2.459,13.516-18.021,11.507,20.48-11.507,17.814-13.065-14.717h-4.956Zm-800-1h0l18.02,21.475,16.463-24.572-6.028-8.589-9.051-14.223,11.983-18.693h-13.46l10.156.826-10.042,15.723-.02-.031-.12.167-11.292-16.685,11.356-11.357,8.466,8.053h3.3L-1974.777-3408l-13.009,14.661,11.554,18.6-16.509,22.7,18.02.207-13.514-2.46,13.514-18.021,11.506,20.481-11.506,17.814-13.065-14.717h-4.955Zm-56,0h0l18.021,21.475,16.462-24.572-6.028-8.589-9.05-14.223,11.982-18.693h-13.459l10.156.826-10.042,15.723-.019-.031-.121.167-11.292-16.685,11.356-11.357,8.466,8.053h3.3L-2030.778-3408l-13.008,14.661,11.553,18.6-16.51,22.7,18.021.207-13.516-2.46,13.516-18.021,11.507,20.481-11.507,17.814-13.065-14.717h-4.957Zm1132.669,59.474h-13.186l7.539-10.051,5.646,10.05Zm-167.752,0h-18.434l10.539-14.052,7.894,14.05Zm-52.316,0h-22.367l12.787-17.051,9.579,17.05Zm-56,0h-22.369l12.789-17.051,9.579,17.05Zm-59.686,0h-18.434l10.539-14.052,7.894,14.05Zm-57.562,0h-17.121l9.789-13.052,7.332,13.05Zm-56,0h-17.122l9.789-13.052,7.332,13.05Zm-57.438,0h-18.434l10.539-14.052,7.894,14.05Zm-61.561,0h-17.121l9.789-13.052,7.332,13.05Zm-56,0h-17.122l9.789-13.052,7.332,13.05Zm-62.936,0h-.886l.432-.432.452.43Zm-49.064,0h-17.121l9.789-13.052,7.332,13.05Zm-56,0h-17.122l9.789-13.052,7.332,13.05Zm-115,0h-17.121l9.789-13.052,7.332,13.05Zm-56,0h-17.122l9.789-13.052,7.332,13.05ZM-807-3327.885h0l-13.235-2.409L-807-3347.943v20.056Zm0-25,0,0-11.132-16.448L-807-3380.474v27.586Zm-284.842-43.766h0l-11.239-16.609h12.2l9.225.75-10.042,15.723-.019-.03-.121.166Zm-168,0h0l-11.239-16.609h12.2l9.225.75-10.042,15.723-.019-.03-.121.166Zm-171,0h0l-11.239-16.609h12.2l9.225.75-10.042,15.723-.019-.03-.121.166Zm-461-1h0l-10.564-15.609h20.587l-9.883,15.474-.019-.031-.12.166Zm-56,0h0l-10.563-15.609h20.587l-9.883,15.474-.019-.031-.121.166Zm-112,0h0l-10.564-15.609h20.587l-9.883,15.474-.019-.031-.12.166Zm-56,0h0l-10.563-15.609h20.587l-9.883,15.474-.019-.031-.121.166Zm-115,0h0l-10.564-15.609h20.587l-9.883,15.474-.019-.031-.12.166Zm-56,0h0l-10.563-15.609h20.587l-9.883,15.474-.019-.031-.121.166Zm283.122-1.367h0l-12.644-14.242h21.845l-9.2,14.242Z" transform="translate(2727 3533.264)"/>
  <rect id="Rectangle_11" data-name="Rectangle 11" class="cls-2" width="1109" height="124" transform="translate(811 358)"/>
  <path id="Subtraction_1" data-name="Subtraction 1" class="cls-2" d="M-977.884-3272.261l-12.2,0-.051-.076,11.356-11.357,8.466,8.053h3.3L-978.777-3287l-13.009,14.661.047.075h-9.173l-3.425-5.383,11.982-18.693h-13.459l10.156.826-10.042,15.723-.019-.031-.121.167-11.291-16.685,11.356-11.357,8.466,8.053h3.3l-11.77-11.357-13.009,14.661,11.553,18.6-3.985,5.479h-12.114l5.073-7.572-6.029-8.588-9.05-14.223,11.982-18.693h-13.459l10.155.826-10.042,15.723-.019-.031-.121.167-11.292-16.685,11.356-11.357,8.466,8.053h3.3l-11.77-11.357-13.009,14.661,11.554,18.6-16.509,22.7,18.021.207-13.515-2.46,13.515-18.021,11.506,20.481-4.891,7.572h-15.708l-3.973-4.475h-4.955l3.755,4.475h-9.289l-4.062-6.383,11.982-18.693h-13.459l10.156.825-10.042,15.723-.019-.03-.121.167-11.291-16.685,11.356-11.357,8.466,8.053h3.3l-11.77-11.357-13.009,14.661,11.553,18.6-4.712,6.479h-9.387l5.073-7.572-6.028-8.588-9.05-14.223,11.982-18.693h-13.459l10.156.826-10.042,15.723-.019-.031-.121.167-11.291-16.685,11.356-11.357,8.466,8.053h3.3l-11.77-11.357-13.009,14.661,11.553,18.6-16.509,22.7,18.021.207-13.516-2.46,13.516-18.021,11.506,20.481-4.891,7.572h-15.708l-3.973-4.475h-4.955l3.755,4.475h-374.684l6.413-9.572-6.029-8.589-9.051-14.223,11.982-18.693h-13.458l10.154.826-10.042,15.722-.019-.031-.121.167-11.292-16.684,11.356-11.358,8.466,8.053h3.3l-11.77-11.356-13.009,14.661,11.554,18.6-16.509,22.7,18.021.208-13.515-2.46,13.515-18.022,11.507,20.481-6.183,9.572h-12.641l-5.748-6.474h-4.955l5.433,6.474H-1512l-5.335-8.383,11.981-18.694h-13.459l10.156.826-10.042,15.723-.019-.031-.122.167-11.291-16.685,11.356-11.356,8.466,8.052h3.3l-11.77-11.356-13.009,14.66,11.553,18.6-6.167,8.48h-9.271l6.412-9.572-6.028-8.589-9.05-14.223,11.981-18.693h-13.459l10.156.826-10.042,15.722-.019-.031-.122.167-11.291-16.684,11.356-11.358,8.466,8.053h3.3l-11.77-11.356-13.009,14.661,11.553,18.6-16.509,22.7,18.021.208-13.516-2.46,13.516-18.022,11.507,20.481-6.183,9.572h-12.641l-5.748-6.474h-4.955l5.433,6.474h-5.786l-7.244-11.382,11.983-18.694h-13.46l10.156.827-10.042,15.723-.02-.031-.121.166-11.291-16.686,11.356-11.356,8.466,8.053h3.3L-1572.777-3317l-13.01,14.66,11.554,18.6-8.348,11.479h-9.669l3.894-6.075h-13.459l10.155.825-3.353,5.25h-14.01l-4.111-6.075,11.356-11.357,8.466,8.053h3.3L-1601.778-3293l-13.008,14.662,3.774,6.075h-9.082l-7.244-11.382,11.982-18.694h-13.459l10.155.827-10.042,15.723-.019-.031-.121.166-11.292-16.686,11.356-11.356,8.466,8.053h3.3L-1628.778-3317l-13.008,14.66,11.553,18.6-8.348,11.479h-9.09l6.413-9.572-6.029-8.589-9.05-14.223,11.982-18.693h-13.459l10.155.826-10.042,15.722-.019-.031-.121.167-11.293-16.684,11.356-11.358,8.467,8.053h3.3l-11.77-11.356-13.009,14.661,11.554,18.6-16.51,22.7,18.021.208-13.515-2.46,13.515-18.022,11.506,20.481-6.182,9.572h-12.641l-5.748-6.474h-4.955l5.433,6.474H-1680l-5.335-8.383,11.982-18.694h-13.459l10.156.826-10.042,15.723-.019-.031-.121.167-11.291-16.685,11.356-11.356,8.466,8.052h3.3L-1686.777-3314l-13.008,14.66,11.553,18.6-6.167,8.48h-9.272l6.412-9.572-6.028-8.589-9.05-14.223,11.982-18.693h-13.459l10.156.826-10.042,15.722-.019-.031-.121.167-11.291-16.684,11.356-11.358,8.466,8.053h3.3l-11.77-11.356-13.008,14.661,11.553,18.6-16.509,22.7,18.021.208-13.516-2.46,13.516-18.022,11.507,20.481-6.183,9.572h-12.641l-5.748-6.474h-4.956l5.433,6.474h-11.33l-4.7-7.384,11.982-18.692h-13.459l10.155.826-10.042,15.722-.019-.029-.122.167-11.291-16.685,11.356-11.358,8.466,8.054h3.3l-11.77-11.358-13.01,14.662,11.554,18.6-5.439,7.479h-10.014l1.33-2.075h-13.459l10.155.824-.8,1.251h-19.271l-1.4-2.075,11.356-11.358,8.466,8.053h3.3l-11.77-11.356-13.009,14.661,1.289,2.075h-9.142l-4.7-7.384,11.982-18.692h-13.459l10.155.826-10.042,15.722-.019-.029-.121.167-11.291-16.685,11.356-11.358,8.466,8.054h3.3l-11.77-11.358-13.009,14.662,11.553,18.6-5.439,7.479h-12l6.413-9.572-6.029-8.589-9.05-14.223,11.982-18.693h-13.459l10.155.826-10.042,15.722-.019-.031-.121.167-11.293-16.684,11.356-11.358,8.467,8.053h3.3l-11.77-11.356-13.009,14.661,11.554,18.6-16.51,22.7,18.021.208-13.515-2.46,13.515-18.022,11.506,20.481-6.183,9.572h-12.641l-5.748-6.474h-4.955l5.433,6.474H-1851l-5.335-8.383,11.982-18.694h-13.459l10.156.826-10.042,15.723-.019-.031-.121.167-11.291-16.685,11.356-11.356,8.466,8.052h3.3l-11.77-11.356-13.008,14.66,11.553,18.6-6.167,8.48h-9.272l6.412-9.572-6.028-8.589-9.05-14.223,11.982-18.693h-13.459l10.156.826-10.042,15.722-.019-.031-.121.167-11.291-16.684,11.356-11.358,8.466,8.053h3.3l-11.77-11.356-13.008,14.661,11.553,18.6-16.509,22.7,18.021.208-13.516-2.46,13.516-18.022,11.507,20.481-6.183,9.572h-12.641l-5.748-6.474h-4.956l5.433,6.474H-2311v-124h24.445l.323.52-16.51,22.7,18.022.207-13.516-2.459,13.516-18.021,11.507,20.48-11.507,17.813-13.065-14.717h-4.956l18.022,21.475,16.462-24.572-6.029-8.588-9.049-14.222.4-.618h17.412l-5.256,5.924,11.553,18.6-16.51,22.7,18.022.206-13.516-2.459,13.516-18.021,11.507,20.479-11.507,17.815-13.065-14.717h-4.956l18.022,21.475,16.462-24.573-6.029-8.588-9.049-14.222,11.98-18.693h-13.458l10.155.826-10.041,15.722-.019-.03-.123.167-11.29-16.685,5.924-5.924h11.144l2.754,2.62h3.3l-2.715-2.62h18.168l.323.52-16.511,22.7,18.021.207-13.515-2.459,13.515-18.021,11.508,20.48-11.508,17.813-13.064-14.717h-4.956l18.021,21.475,16.464-24.572-6.029-8.588-9.052-14.222.4-.618h20.3l-6.144,6.924,11.554,18.6-16.51,22.7,18.021.207-13.515-2.46,13.515-18.021,11.507,20.48-11.507,17.814-13.065-14.717h-4.956l18.021,21.475,16.463-24.572-6.029-8.589-9.051-14.223,11.982-18.693h-13.459l10.155.826-10.042,15.723-.019-.031-.121.167-11.291-16.685,6.923-6.924h9.094l3.806,3.62h3.3l-3.751-3.62h12.324l6.713,8,5.359-8h16.719l-6.144,6.924,11.554,18.6-16.508,22.7,18.02.207-13.514-2.46,13.514-18.021,11.508,20.48-11.508,17.814-13.066-14.717h-4.955l18.021,21.475,16.464-24.572-6.029-8.589-9.052-14.223,11.982-18.693h-13.458l10.155.826-10.042,15.723-.02-.031-.121.167-11.291-16.685,6.923-6.924h9.094l3.805,3.62h3.3l-3.751-3.62h20.2l.323.52-16.51,22.7,18.021.207-13.515-2.459,13.515-18.021,11.507,20.48-11.507,17.813-13.064-14.717h-4.956l18.021,21.475,16.463-24.572-6.029-8.588-9.05-14.222.4-.618h17.412l-5.256,5.924,11.554,18.6-16.51,22.7,18.021.206-13.515-2.459,13.515-18.021,11.507,20.479-11.507,17.815-13.065-14.717h-4.955l18.021,21.475,16.463-24.573-6.029-8.588-9.05-14.222,11.981-18.693h-13.458l10.155.826-10.041,15.722-.02-.03-.122.167-11.29-16.685,5.924-5.924h11.144l2.754,2.62h3.3l-2.715-2.62h18.168l.323.52-16.511,22.7,18.022.207-13.516-2.459,13.516-18.021,11.506,20.48-11.506,17.813-13.065-14.717h-4.956l18.022,21.475,16.463-24.572-6.03-8.588-9.05-14.222.4-.618h16.75l-2.594,2.924,11.554,18.6-16.511,22.7,18.022.206-13.516-2.46,13.515-18.021,11.508,20.481-11.507,17.813-13.065-14.717h-4.956l18.022,21.476,16.462-24.573-6.027-8.588-9.051-14.223,11.982-18.693h-13.458l10.156.827-10.042,15.722-.02-.03-.121.167-11.293-16.686,2.924-2.924h32.133l3.357,4,2.68-4h15.848l-2.595,2.924,11.554,18.6-16.508,22.7,18.019.206-13.514-2.46,13.514-18.021,11.507,20.481-11.508,17.813-13.065-14.717h-4.953l18.019,21.476,16.464-24.573-6.028-8.588-9.052-14.223,11.983-18.693h-13.459l10.155.827-10.041,15.722-.021-.03-.121.167-11.292-16.686,2.924-2.924h33.654l.323.52-16.508,22.7,18.021.207-13.516-2.459,13.516-18.021,11.507,20.48-11.507,17.813-13.065-14.717h-4.955l18.021,21.475,16.462-24.572-6.028-8.588-9.05-14.222.4-.618h17.411l-5.256,5.924,11.552,18.6-16.508,22.7,18.021.206-13.516-2.459,13.516-18.021,11.507,20.479-11.507,17.815-13.065-14.717h-4.955l18.02,21.475,16.462-24.573-6.028-8.588-9.05-14.222,11.981-18.693h-13.459l10.155.826-10.041,15.722-.019-.03-.122.167-11.292-16.685,5.924-5.924h11.145l2.755,2.62h3.3l-2.715-2.62h18.167l.323.52-16.509,22.7,18.021.207-13.516-2.459,13.515-18.021,11.505,20.48-11.505,17.813-13.065-14.717h-4.956l18.021,21.475,16.462-24.572-6.028-8.588-9.05-14.222.4-.618h24.186l-7.031,7.925,11.553,18.6-16.509,22.7,18.021.205-13.516-2.458,13.516-18.021,11.507,20.479-11.507,17.815-13.065-14.717h-4.956l18.021,21.473,16.462-24.572-6.028-8.588-9.05-14.223,11.982-18.692h-13.459l10.156.824-10.042,15.724-.019-.029-.121.167-11.291-16.685,7.923-7.925h7.042l4.857,4.62h3.3l-4.788-4.621h158.04l-7.031,7.925,11.553,18.6-16.509,22.7,18.021.205-13.516-2.458,13.516-18.021,11.507,20.479-11.507,17.815-13.065-14.717h-4.956l18.021,21.473,16.462-24.572-6.028-8.588-9.05-14.223,11.982-18.692h-13.459l10.156.824-10.042,15.724-.019-.029-.121.167-11.291-16.685,7.923-7.925h7.042l4.857,4.62h3.3l-4.788-4.621h155.041l-7.031,7.925,11.553,18.6-16.509,22.7,18.021.205-13.516-2.458,13.516-18.021,11.507,20.479-11.507,17.815-13.065-14.717h-4.955l18.021,21.473,16.462-24.572-6.028-8.588-9.05-14.223,11.981-18.692h-13.459l10.156.824-10.042,15.724-.019-.029-.122.167-11.291-16.685,7.923-7.925h7.042l4.857,4.62h3.3l-4.788-4.621h21.753l2.809,4.521-16.509,22.7,18.021.207-13.516-2.46,13.516-18.021,11.507,20.481-11.507,17.813-13.065-14.717h-4.955l18.021,21.475,16.462-24.572-6.028-8.589-9.05-14.223,2.959-4.617h18.4l-8.806,9.924,11.553,18.6-16.509,22.7,18.021.206-13.516-2.459,13.516-18.021,11.507,20.48-11.507,17.815-13.065-14.717h-4.955l18.021,21.474,16.462-24.572-6.028-8.589-9.05-14.222,11.981-18.693h-13.459l10.156.825-10.042,15.723-.019-.03-.121.167-11.292-16.685,9.924-9.925h2.939l6.96,6.62h3.3l-6.861-6.62h19.828l2.809,4.521-16.509,22.7,18.021.207-13.515-2.46,13.515-18.021,11.507,20.481-11.507,17.813-13.065-14.717h-4.955l18.021,21.475,16.463-24.572-6.029-8.589-9.05-14.223,2.96-4.617h21.286l-9.693,10.924,11.554,18.6-16.51,22.7,18.021.207-13.516-2.46,13.516-18.021,11.506,20.481-11.506,17.813-13.066-14.717h-4.956l18.022,21.475,16.462-24.572-6.028-8.588-9.051-14.223,11.982-18.693h-13.46l10.156.826-10.042,15.723-.019-.031-.122.167-11.291-16.685,10.923-10.924h.888l8.011,7.62h3.3l-7.9-7.62h13.114l10.07,12,8.039-12h17.588l-9.694,10.924,11.554,18.6-16.509,22.7,18.021.207-13.516-2.46,13.515-18.021,11.507,20.481-11.507,17.813-13.066-14.717h-4.955l18.021,21.475,16.463-24.572-6.029-8.588-9.05-14.223,11.982-18.693h-13.458l10.155.826-10.042,15.723-.019-.031-.121.167-11.291-16.685,10.923-10.924h.888l8.011,7.62h3.3l-7.9-7.62h21.863l2.808,4.521-16.509,22.7,18.021.207-13.516-2.46,13.516-18.021,11.507,20.481-11.507,17.813-13.065-14.717h-4.955l18.021,21.475,16.462-24.572-6.028-8.589-9.05-14.223,2.959-4.617h18.4l-8.806,9.924,11.553,18.6-16.509,22.7,18.021.206-13.516-2.459,13.516-18.021,11.507,20.48-11.507,17.815-13.065-14.717h-4.955l18.021,21.474,16.462-24.572-6.028-8.589-9.05-14.222,11.981-18.693h-13.459l10.156.825-10.042,15.723-.019-.03-.121.167-11.292-16.685,9.924-9.925h2.939l6.96,6.62h3.3l-6.861-6.62h19.828l2.809,4.521-16.509,22.7,18.021.207-13.515-2.46,13.515-18.021,11.507,20.481-11.507,17.813-13.065-14.717h-4.955l18.02,21.475,16.463-24.572-6.029-8.589-9.051-14.223,2.96-4.617h17.736l-6.144,6.925,11.553,18.6-16.51,22.7,18.021.207-13.516-2.46,13.516-18.021,11.506,20.48-11.506,17.813-13.066-14.717h-4.956l18.022,21.475,16.462-24.572-6.028-8.589-9.051-14.223,11.982-18.693h-13.46l10.156.826-10.042,15.723-.019-.031-.122.167-11.292-16.685,6.924-6.925h9.092l3.806,3.62h3.3l-3.753-3.621h12.325l6.714,8,5.36-8h16.719l-6.145,6.925,11.554,18.6-16.509,22.7,18.02.207-13.515-2.46,13.514-18.021,11.507,20.48-11.507,17.813-13.065-14.717h-4.955l18.02,21.475,16.463-24.572-6.028-8.589-9.051-14.223,11.982-18.693h-13.459l10.156.826-10.042,15.723-.02-.031-.12.167-11.291-16.685,6.924-6.925h9.092l3.806,3.62h3.3l-3.752-3.621h14.719l2.809,4.521-16.509,22.7,18.021.207-13.516-2.46,13.516-18.021,11.507,20.481-11.507,17.813-13.065-14.717h-4.956l18.021,21.475,16.462-24.572-6.029-8.589-9.05-14.223,2.959-4.617h18.4l-8.805,9.924,11.553,18.6-16.509,22.7,18.021.206-13.516-2.459,13.516-18.021,11.507,20.48-11.507,17.815-13.065-14.717h-4.956l18.021,21.474,16.462-24.572-6.029-8.589-9.05-14.222,11.982-18.693h-13.459l10.156.825-10.042,15.723-.019-.03-.121.167-11.291-16.685,9.923-9.925h2.939l6.96,6.62h3.3l-6.861-6.62h19.827l2.809,4.521-16.51,22.7,18.021.207-13.515-2.46,13.515-18.021,11.506,20.481-11.506,17.813-13.065-14.717h-4.955l18.021,21.475,16.463-24.572-6.029-8.589-9.05-14.223,2.959-4.617h18.4l-8.806,9.924,11.553,18.6-16.509,22.7,18.021.206-13.516-2.459,13.516-18.021,11.506,20.48-11.506,17.815-13.065-14.717h-4.955l18.021,21.474,16.462-24.572-6.028-8.588-9.05-14.223,11.982-18.693h-13.459l10.156.825-10.042,15.723-.019-.03-.121.167-11.291-16.685,9.923-9.925h2.939l6.96,6.62h3.3l-6.862-6.62H-896.98l-8.806,9.924,11.553,18.6-16.509,22.7,18.021.206-13.516-2.459,13.516-18.021,11.507,20.48-11.507,17.815-13.065-14.717h-4.955l18.021,21.474,16.462-24.572-6.028-8.588-9.05-14.223,11.982-18.693h-13.459l10.155.825-10.042,15.723-.019-.03-.122.167-11.291-16.685,9.924-9.925h2.939l6.96,6.62h3.3l-6.861-6.62H-728.98l-8.806,9.924,11.553,18.6-16.509,22.7,18.021.206-13.516-2.459,13.516-18.021,11.506,20.48-11.506,17.815-13.065-14.717h-4.955l18.021,21.474,16.462-24.572-6.028-8.588-9.05-14.223,11.982-18.693h-13.459l10.156.825-10.042,15.723-.019-.03-.122.167-11.291-16.685,9.924-9.925h2.939l6.96,6.62h3.3l-6.861-6.62H-697v61.64l-11.786,13.283,11.554,18.6-16.51,22.7,16.742.192v7.585h-7.814l-3.973-4.475h-4.955l3.755,4.475h-9.289l-4.062-6.383,11.982-18.693h-13.459l10.156.825-10.042,15.723-.019-.03-.122.167-11.291-16.685,11.356-11.357,8.466,8.053h3.3L-724.777-3312l-13.009,14.661,11.553,18.6-4.712,6.479h-9.387l5.073-7.572-6.028-8.588-9.05-14.223,11.982-18.693h-13.459l10.156.826L-751.7-3304.79l-.019-.031-.122.167-11.291-16.685,11.356-11.357,8.466,8.053h3.3L-751.777-3336l-13.009,14.661,11.553,18.6-16.509,22.7,18.021.207-13.516-2.46,13.516-18.021,11.506,20.481-4.891,7.572h-15.708l-3.973-4.475h-4.955l3.755,4.475h-5.381l-5.971-9.383,11.983-18.693h-13.459l10.156.826L-778.7-3283.79l-.02-.031-.121.166-11.291-16.685,11.356-11.357,8.466,8.053h3.3L-778.777-3315l-13.01,14.661,11.554,18.6-6.893,9.479h-9.842l2.612-4.075h-13.459l10.156.825-2.076,3.25h-16.641l-2.758-4.075,11.356-11.357,8.466,8.053h3.3L-807.778-3291l-13.008,14.662,2.532,4.075h-9.113l-5.97-9.383,11.982-18.693h-13.459l10.156.826L-834.7-3283.79l-.019-.031-.121.166-11.292-16.685,11.356-11.357,8.466,8.053h3.3L-834.778-3315l-13.008,14.661,11.553,18.6-6.894,9.479h-9.205l5.073-7.572-6.029-8.588-9.05-14.223,11.982-18.693h-13.459l10.155.826L-863.7-3304.79l-.019-.031-.121.167-11.292-16.685,11.356-11.357,8.466,8.053h3.3L-863.778-3336l-13.009,14.661,11.554,18.6-16.51,22.7,18.021.207-13.515-2.46,13.515-18.021,11.506,20.481-4.891,7.572h-15.708l-3.973-4.475h-4.955l3.755,4.475h-9.289l-4.062-6.383,11.982-18.693h-13.459l10.155.825-10.042,15.723-.019-.03-.122.167-11.291-16.685,11.356-11.357,8.466,8.053h3.3L-892.778-3312l-13.009,14.661,11.553,18.6-4.712,6.479h-9.387l5.073-7.572-6.028-8.588-9.05-14.223,11.982-18.693h-13.459l10.155.826L-919.7-3304.79l-.019-.031-.122.167-11.291-16.685,11.356-11.357,8.466,8.053h3.3L-919.778-3336l-13.009,14.661,11.553,18.6-16.509,22.7,18.021.207-13.516-2.46,13.516-18.021,11.507,20.481-4.891,7.572h-15.708l-3.973-4.475h-4.955l3.755,4.475h-10.926l-3.425-5.383,11.982-18.693h-13.459l10.155.826L-949.7-3279.79l-.019-.031-.122.167-11.291-16.685,11.356-11.357,8.466,8.053h3.3L-949.777-3311l-13.01,14.661,11.554,18.6-3.985,5.479H-965.4l.048-.076h-13.459l.93.076Zm-18.858-44.477,18.022,21.475,16.462-24.572-6.028-8.588-9.05-14.223,11.982-18.693h-13.459l10.156.825-10.042,15.723-.019-.029-.121.167-11.291-16.685,11.356-11.357,8.466,8.053h3.3L-978.777-3376l-13.009,14.661,11.553,18.6-16.51,22.7,18.022.206-13.516-2.459,13.516-18.021,11.507,20.479-11.507,17.815-13.065-14.717h-4.956Zm-395,0,18.022,21.475,16.462-24.572-6.028-8.589-9.051-14.222,11.982-18.693h-13.46l10.156.825-10.042,15.723-.019-.029-.122.167-11.291-16.685,11.356-11.357,8.466,8.053h3.3l-11.77-11.357-13.009,14.661,11.554,18.6-16.51,22.7,18.021.206-13.516-2.459,13.516-18.021,11.506,20.479-11.506,17.815-13.066-14.717h-4.956Zm-399-2h0l18.022,21.474,16.462-24.572-6.028-8.589-9.05-14.223,11.982-18.693h-13.459l10.155.826-10.042,15.722-.019-.029-.121.166-11.291-16.686,11.356-11.356,8.466,8.053h3.3l-11.77-11.358-13.009,14.661,11.553,18.6-16.509,22.7,18.022.206-13.516-2.459,13.516-18.021,11.507,20.479-11.507,17.814-13.065-14.717h-4.957Zm965-2,18.022,21.474,16.462-24.572-6.028-8.588-9.05-14.223,11.982-18.693h-13.459l10.156.825L-807.7-3348.79l-.019-.03-.121.166-11.292-16.685,11.356-11.357,8.466,8.053h3.3L-807.778-3380l-13.008,14.661,11.553,18.6-16.51,22.7,18.022.206-13.516-2.459,13.516-18.021,11.507,20.48-11.507,17.814-13.065-14.717h-4.956Zm-395,0,18.022,21.474,16.462-24.572-6.028-8.589-9.051-14.222,11.982-18.693h-13.46l10.156.825-10.042,15.723-.019-.03-.122.166-11.292-16.685,11.356-11.357,8.466,8.053h3.3L-1202.778-3380l-13.008,14.661,11.553,18.6-16.51,22.7,18.021.206-13.516-2.459,13.516-18.021,11.506,20.48-11.506,17.814-13.066-14.717h-4.956Zm-970,0,18.021,21.474,16.463-24.572-6.029-8.589-9.051-14.221,11.982-18.694h-13.459l10.155.825-10.042,15.723-.019-.03-.121.167-11.291-16.685,11.356-11.357,8.467,8.053h3.3l-11.77-11.356-13.009,14.66,11.554,18.6-16.51,22.7,18.021.206-13.515-2.459,13.515-18.021,11.507,20.479-11.507,17.815-13.065-14.717Zm571-2h0l18.022,21.475,16.462-24.572-6.028-8.587-9.05-14.223,11.982-18.694h-13.459l10.155.826-10.042,15.723-.019-.031-.121.167-11.292-16.685,11.356-11.356,8.466,8.052h3.3L-1601.778-3382l-13.008,14.66,11.553,18.6-16.509,22.7,18.022.206-13.516-2.459,13.516-18.021,11.507,20.48-11.507,17.814-13.065-14.717h-4.957Zm-400-2h0l18.022,21.473,16.462-24.572-6.028-8.588-9.05-14.222,11.982-18.692h-13.458l10.156.824-10.042,15.723-.02-.03-.121.167-11.293-16.684,11.356-11.358,8.466,8.053h3.3L-2001.778-3384l-13.008,14.662,11.554,18.6-16.511,22.7,18.022.206-13.516-2.459,13.515-18.021,11.508,20.48-11.507,17.816-13.065-14.717h-4.957Zm1297.3,52.474h-5.316l3.039-4.052,2.276,4.051Zm-52.316,0h-9.25l5.288-7.052,3.961,7.05Zm-56,0h-9.251l5.289-7.052,3.961,7.05Zm-59.686,0h-5.316l3.039-4.052,2.276,4.051Zm-57.562,0h-4l2.289-3.052,1.714,3.051Zm-56,0h-4l2.289-3.052,1.714,3.051Zm-57.439,0h-5.315l3.039-4.052,2.275,4.051Zm-453.875,0h-7.94l4.539-6.052,3.4,6.051Zm-52.316,0h-11.874l6.788-9.052,5.085,9.05Zm-56,0h-11.875l6.789-9.052,5.085,9.05Zm-59.685,0h-7.941l4.54-6.052,3.4,6.051Zm-57.562,0h-6.627l3.789-5.052,2.837,5.05Zm-56,0h-6.627l3.789-5.052,2.837,5.05Zm-57.438,0h-7.941l4.54-6.052,3.4,6.051Zm1157.32-7.8h0l-12.235-2.227L-697-3298.61v18.541Zm0-26.3,0,0-10.132-14.971L-697-3331.474v25.108Zm-676.721-84.655h0l-4.653-5.241h8.04l-3.385,5.241Zm282.879-2.633h0l-1.765-2.608h3.485l-1.579,2.473-.019-.031-.12.166Zm-56,0h0l-1.765-2.608h3.486l-1.58,2.473-.019-.031-.121.166Zm-112,0h0l-1.765-2.608h3.485l-1.58,2.473-.019-.031-.119.166Zm-56,0h0l-1.765-2.608h3.486l-1.579,2.473-.019-.031-.121.166Zm-115,0h0l-1.765-2.608h3.485l-1.58,2.473-.019-.031-.119.166Zm-56,0h0l-1.765-2.608h3.486l-1.579,2.473-.019-.031-.12.166Zm283.122-1.366h0l-1.1-1.242h1.906l-.8,1.242Zm-970,0h0l-1.1-1.242h1.907l-.8,1.242Z" transform="translate(2617 3992.264)"/>
  <path id="Subtraction_5" data-name="Subtraction 5" class="cls-3" d="M1706.242-7495h-3l10.53-14.478-11.555-18.6,13.008-14.663,11.771,11.358h-3.3l-8.467-8.054-11.356,11.358,11.293,16.685.12-.167.019.031,10.043-15.723-10.155-.826h13.457l-11.981,18.693,9.05,14.222.11.157h-3.774l-6.769-12.05-9.037,12.05Zm-56,0h-3l10.528-14.478-11.553-18.6,13.008-14.663,11.771,11.358h-3.3l-8.467-8.054-11.356,11.358,11.293,16.685.12-.167.019.031,10.042-15.723-10.155-.826h13.459l-11.983,18.693,9.052,14.222.108.157h-3.772l-6.771-12.05-9.037,12.05Zm-401.426,0H1245.2l7.881-12.381-11.984-18.693h13.46l-10.156.824,10.043,15.723.019-.029.121.165,11.293-16.682-11.358-11.358-8.465,8.054h-3.3l11.769-11.358,13.01,14.663-11.555,18.595,9.074,12.477H1262l-7.538-10.05-5.647,10.05Zm-56,0H1189.2l7.879-12.381-11.982-18.693h13.459l-10.155.824,10.043,15.723.019-.029.12.165,11.293-16.682-11.358-11.358-8.465,8.054h-3.3l11.769-11.358,13.01,14.663-11.555,18.595,9.074,12.477H1206l-7.537-10.05-5.647,10.05Zm-115,0H1074.2l7.88-12.381-11.981-18.693h13.457l-10.155.824,10.042,15.723.02-.029.12.165,11.293-16.682-11.358-11.358-8.465,8.054h-3.3l11.769-11.358,13.01,14.663-11.553,18.595,9.072,12.477H1091l-7.537-10.05-5.648,10.05Zm-56,0H1018.2l7.881-12.381-11.983-18.693h13.459l-10.156.824,10.044,15.723.017-.029.121.165,11.293-16.682-11.356-11.358-8.467,8.054h-3.3l11.771-11.358,13.008,14.663-11.553,18.595,9.072,12.477H1035l-7.539-10.05-5.645,10.05Zm-112,0H906.2l7.881-12.381L902.1-7526.075h13.457l-10.155.824,10.042,15.723.019-.029.12.165,11.293-16.682-11.356-11.358-8.467,8.054h-3.3l11.771-11.358,13.008,14.663-11.553,18.595L926.047-7495H923l-7.538-10.05L909.815-7495Zm-56,0H850.2l7.881-12.381L846.1-7526.075h13.461l-10.157.824,10.044,15.723.019-.029.12.165,11.291-16.682-11.356-11.358-8.465,8.054h-3.3l11.769-11.358,13.008,14.663-11.553,18.595L870.047-7495H867l-7.538-10.05L853.817-7495Zm-35.076,0h-3.048l9.075-12.478-11.555-18.6,13.008-14.663,11.771,11.358h-3.3l-8.467-8.054-11.356,11.358,11.293,16.682.12-.165.019.029,10.042-15.721-10.155-.826h13.459l-11.983,18.693L835.539-7495h-3.613l-5.647-10.05L818.741-7495Zm-56,0h-3.048l9.073-12.478-11.553-18.6,13.008-14.663,11.771,11.358h-3.3l-8.467-8.054-11.356,11.358,11.293,16.682.121-.165.019.029,10.042-15.721-10.155-.826h13.46l-11.981,18.693L779.539-7495h-3.614l-5.646-10.05L762.741-7495Zm-112,0h-3.047l9.075-12.478-11.555-18.6,13.008-14.663,11.771,11.358h-3.3l-8.467-8.054-11.356,11.358,11.293,16.682.12-.165.019.029,10.042-15.721-10.155-.826h13.459l-11.981,18.693L667.541-7495h-3.615l-5.647-10.05L650.741-7495Zm-56,0h-3.047l9.075-12.478-11.553-18.6,13.008-14.663,11.769,11.358h-3.3l-8.465-8.054-11.356,11.358,11.291,16.682.12-.165.019.029,10.043-15.721-10.156-.826h13.46l-11.982,18.693L611.541-7495h-3.615l-5.647-10.05L594.741-7495Zm-115,0h-3.048l9.074-12.478-11.553-18.6,13.008-14.663,11.769,11.358h-3.3l-8.467-8.054-11.356,11.358,11.291,16.682.12-.166.021.03,10.04-15.721-10.155-.826h13.459l-11.982,18.693L496.54-7495h-3.613l-5.648-10.05L479.742-7495Zm-56,0h-3.047l9.073-12.478-11.553-18.6,13.008-14.663,11.771,11.358h-3.3l-8.467-8.054-11.356,11.358,11.291,16.682.122-.165.019.029,10.041-15.721-10.155-.826h13.46l-11.981,18.693L440.54-7495h-3.613l-5.647-10.05L423.742-7495Zm1328.729,0h-2.758l4.628-7.249-10.155-.826h13.459L1752.47-7495Zm-14.139,0h-2.1l-5.016-8.075,13.008-14.66,11.771,11.358h-3.3l-8.467-8.054-11.356,11.356,5.462,8.073Zm-44.5,0h-2.756l5.267-8.249-10.155-.826h13.459l-5.815,9.074Zm-12.822,0h-2.156l-5.636-9.075,13.008-14.66,11.769,11.358h-3.3l-8.467-8.054-11.356,11.356,6.139,9.073Zm-444.874,0h-2.044l4.787-7.075-11.356-11.356-8.467,8.052h-3.3l11.769-11.356,13.008,14.66-4.394,7.074Zm-14.742,0h-2.759l-4.534-7.075h13.457l-10.156.826,3.99,6.247Zm-42.638,0h-1.99l4.112-6.075-11.356-11.356-8.467,8.052h-3.3l11.771-11.356,13.008,14.66-3.773,6.074Zm-16,0h-2.763l-3.892-6.075h13.457l-10.155.826,3.351,5.247Zm-40,0h-1.988l4.109-6.075-11.356-11.356-8.467,8.052h-3.3l11.769-11.356,13.008,14.66-3.773,6.074Zm-16,0h-2.763l-3.894-6.075h13.461l-10.157.826,3.351,5.247Zm-41.62,0h-2.044l4.789-7.075-11.358-11.356-8.465,8.052h-3.3l11.769-11.356,13.01,14.66-4.4,7.074Zm-14.739,0h-2.761l-4.534-7.075h13.459l-10.156.826,3.991,6.247Zm-45.125,0h-2.21l6.817-10.075-11.356-11.357-8.465,8.053h-3.3l11.769-11.356,13.008,14.66L1005.268-7495Zm-10.959,0h-2.753l-6.458-10.075h13.46l-10.157.826,5.908,9.248Zm-22.139,0h-1.413l.761-.736.651.735Zm-22.9,0h-2.21l6.82-10.075-11.358-11.357-8.465,8.053h-3.3l11.769-11.356,13.008,14.66L949.268-7495Zm-10.959,0h-2.753l-6.458-10.075h13.459l-10.155.826,5.906,9.248Zm-41.177,0h-2.044l4.788-7.075-11.358-11.356-8.465,8.052h-3.3l11.769-11.356,13.01,14.66-4.4,7.074Zm-14.739,0h-2.759l-4.536-7.075h13.459l-10.155.826,3.99,6.247Zm-76.283,0h-2.76l3.989-6.249-10.155-.826h13.46L806.11-7495Zm-15.457,0h-2.044l-4.395-7.075,13.008-14.66,11.771,11.358h-3.3l-8.467-8.054-11.356,11.356,4.786,7.073Zm-40.465,0h-2.753l5.905-9.249-10.155-.826h13.459L750.188-7495Zm-11.5,0h-2.212l-6.259-10.075,13.01-14.66,11.769,11.358h-3.3l-8.466-8.055-11.356,11.357L738.683-7495Zm-23.7,0h-1.411l.65-.734.759.732Zm-20.795,0h-2.753l5.907-9.249-10.157-.826h13.461L694.188-7495Zm-11.5,0h-2.21l-6.259-10.075,13.008-14.66,11.771,11.358h-3.3l-8.467-8.055-11.356,11.357L682.683-7495Zm-44.574,0H635.35l3.991-6.249-10.157-.826h13.459L638.109-7495Zm-15.457,0h-2.044l-4.395-7.075,13.008-14.66,11.771,11.358h-3.3l-8.467-8.054-11.356,11.356,4.785,7.073Zm-40.9,0h-2.763l3.353-5.249-10.155-.826h13.459L581.752-7495Zm-16.774,0h-1.99l-3.773-6.075,13.008-14.66,11.771,11.356h-3.3l-8.467-8.052-11.356,11.356,4.11,6.073Zm-39.226,0H522.99l3.35-5.249-10.155-.826h13.459L525.751-7495Zm-16.774,0h-1.988l-3.773-6.075,13.008-14.66,11.771,11.356h-3.306l-8.465-8.052-11.356,11.356,4.108,6.073Zm-41.867,0h-2.761l3.991-6.249-10.155-.826h13.459L467.111-7495Zm-15.457,0h-2.046l-4.393-7.075,13.006-14.66,11.771,11.358h-3.3l-8.467-8.054-11.356,11.356,4.787,7.073Zm690.809-5h0L1126-7524.572l6.029-8.589,9.05-14.22-11.981-18.693h13.459l-10.155.824,10.042,15.723.019-.031.12.168,11.293-16.685-11.358-11.358-8.465,8.053h-3.3l11.769-11.356,13.01,14.662-11.555,18.6,16.509,22.7-18.02.207,13.515-2.459-13.515-18.02-11.507,20.479,11.507,17.815,13.065-14.717h4.954L1142.464-7500Zm-599.183,0h0l-18.021-21.474h4.956l13.065,14.717,11.505-17.815-11.505-20.479-13.517,18.02,13.517,2.459-18.021-.207,16.509-22.7-11.553-18.6,13.008-14.662,11.771,11.358h-3.3l-8.467-8.054-11.356,11.358,11.291,16.685.123-.168.019.031,10.04-15.723-10.155-.824h13.459l-11.981,18.693,9.05,14.222,6.029,8.587L543.281-7500Zm1228-2h0l-18.021-21.474h4.956l13.066,14.717,5.721-8.857v7.075l-5.72,8.538Zm-228.817,0h0L1526-7526.572l6.029-8.589,9.052-14.222-11.983-18.693h13.459l-10.156.826,10.043,15.723.019-.031.121.168,11.293-16.687-11.358-11.356-8.465,8.053h-3.3l11.769-11.356,13.01,14.66-11.555,18.6,16.51,22.7-18.02.207,13.515-2.459-13.515-18.02-11.507,20.479,11.507,17.813,13.065-14.715h4.954L1542.464-7502Zm-1399.182,0h0l-18.021-21.474h4.956l13.065,14.717,11.505-17.815-11.505-20.479-13.517,18.02,13.517,2.459-18.022-.207,16.509-22.7-11.553-18.6,13.008-14.662,11.771,11.358h-3.3l-8.467-8.054-11.356,11.358,11.291,16.685.123-.168.019.031,10.04-15.723-10.155-.824h13.459l-11.981,18.693,9.05,14.22,6.029,8.589L143.281-7502Zm828.182-2h0L955-7528.572l6.029-8.589,9.052-14.222L958.1-7570.076h13.46l-10.155.826,10.042,15.724.019-.031.12.167,11.293-16.685-11.358-11.356-8.465,8.053h-3.3l11.769-11.356,13.01,14.66-11.555,18.6,16.511,22.7-18.022.207,13.515-2.459-13.515-18.022-11.507,20.481,11.507,17.813,13.065-14.715h4.957L971.463-7504Zm-257.184,0h0l-18.019-21.472,4.956,0,13.064,14.717,11.507-17.815-11.507-20.479-13.515,18.02,13.515,2.459-18.02-.2,16.509-22.7-11.553-18.6,13.007-14.661,11.771,11.357h-3.3l-8.467-8.054-11.356,11.358,11.293,16.685.121-.167.019.029,10.042-15.724-10.155-.824h13.459l-11.981,18.693,9.05,14.222,6.029,8.587L714.28-7504Zm657.183-2h0L1355-7530.572l6.027-8.589,9.052-14.223-11.981-18.693h13.457l-10.155.826,10.042,15.724.019-.029.12.165,11.293-16.685-11.358-11.356-8.465,8.053h-3.3l11.769-11.357,13.01,14.661-11.553,18.6,16.509,22.7-18.022.207,13.515-2.459-13.515-18.022-11.507,20.481,11.507,17.813,13.065-14.716h4.956L1371.463-7506Zm-1057.183,0h0l-18.021-21.472h4.958l13.064,14.716,11.507-17.815-11.507-20.479-13.515,18.021,13.515,2.458-18.022-.2,16.511-22.7-11.553-18.6,13.006-14.66,11.771,11.357h-3.3l-8.467-8.054-11.356,11.358,11.293,16.685.12-.167.019.029,10.042-15.722-10.155-.826h13.459l-11.981,18.693,9.05,14.223,6.029,8.587L314.28-7506Zm913.185-19h0L1211-7549.572l6.027-8.587,9.052-14.223-11.981-18.693h13.457l-10.156.826,10.045,15.721.019-.029.121.167,11.291-16.686-11.356-11.358-8.467,8.054h-3.3l11.769-11.355,13.008,14.66-11.553,18.6,16.509,22.7-18.02.207,13.515-2.457-13.515-18.022-11.509,20.479,11.509,17.815,13.064-14.716h4.956L1227.465-7525Zm-171,0h0L1040-7549.572l6.029-8.587,9.05-14.223-11.981-18.693h13.459l-10.156.826,10.043,15.721.019-.029.121.167,11.293-16.686-11.358-11.358-8.465,8.054h-3.3l11.769-11.355,13.01,14.66-11.555,18.6,16.51,22.7-18.02.207,13.515-2.457-13.515-18.022-11.507,20.479,11.507,17.815,13.066-14.716h4.954L1056.464-7525Zm-168,0h0L872-7549.572l6.029-8.587,9.05-14.223L875.1-7591.075h13.459l-10.155.826,10.043,15.721.019-.029.12.167,11.293-16.686-11.358-11.358-8.465,8.054h-3.3l11.769-11.355,13.01,14.66-11.555,18.6,16.509,22.7-18.02.207,13.515-2.457-13.515-18.022-11.507,20.479,11.507,17.815,13.066-14.716h4.954L888.464-7525Zm-91.183,0h0l-18.021-21.472h4.956l13.066,14.716,11.505-17.816-11.505-20.479-13.517,18.021,13.517,2.457-18.022-.2,16.51-22.7-11.553-18.6,13.008-14.66,11.771,11.355h-3.3l-8.467-8.054-11.356,11.358,11.291,16.686.122-.167.019.029,10.04-15.721-10.155-.826h13.46l-11.982,18.693,9.05,14.222,6.029,8.588L797.281-7525Zm-168,0h0l-18.021-21.472h4.956l13.066,14.716,11.507-17.816-11.507-20.479-13.517,18.021,13.517,2.457-18.022-.2,16.509-22.7-11.553-18.6,13.008-14.66,11.771,11.355h-3.3l-8.467-8.054-11.356,11.358,11.291,16.686.122-.167.019.029,10.042-15.721-10.157-.826h13.459l-11.981,18.693,9.05,14.222,6.029,8.588L629.28-7525Zm-171,0h0l-18.019-21.472h4.956l13.064,14.716,11.507-17.816-11.507-20.479-13.515,18.021,13.515,2.457-18.02-.2,16.507-22.7-11.551-18.6,13.006-14.66,11.771,11.355h-3.3l-8.467-8.054-11.356,11.358,11.293,16.686.12-.167.019.029,10.042-15.721-10.155-.826h13.459l-11.981,18.693,9.05,14.222,6.027,8.588L458.28-7525Zm-286-1h0l-18.019-21.474h4.954l13.065,14.716,11.507-17.814-11.507-20.481-13.515,18.022,13.515,2.459-18.02-.207,16.507-22.7-11.553-18.6,13.008-14.66,11.771,11.355h-3.3l-8.467-8.054-11.356,11.358,11.293,16.686.12-.167.019.031,10.042-15.723-10.155-.826h13.459l-11.983,18.693,9.052,14.222,6.029,8.59L172.281-7526Zm-56,0h0l-18.021-21.474h4.956l13.065,14.716,11.507-17.814-11.507-20.481-13.517,18.022,13.517,2.459-18.022-.207,16.509-22.7-11.553-18.6,13.01-14.66,11.769,11.355h-3.3l-8.465-8.054-11.356,11.358,11.291,16.686.12-.167.019.031,10.042-15.723-10.155-.826h13.459l-11.981,18.693,9.05,14.222,6.027,8.59L116.28-7526Zm1453.182,0h0L1553-7550.57l6.027-8.589,9.052-14.223-11.981-18.693h13.458l-10.155.826,10.044,15.723.018-.031.122.167,11.291-16.686-11.358-11.358-8.465,8.054h-3.3l11.767-11.355,13.01,14.66-11.553,18.6,16.51,22.7-18.022.207,13.516-2.459-13.516-18.022-11.507,20.481,11.507,17.813,13.065-14.716h4.957L1569.463-7526Zm-56,0h0L1497-7550.57l6.029-8.589,9.05-14.223-11.983-18.693h13.459l-10.156.826,10.045,15.723.019-.031.121.167,11.291-16.686-11.356-11.358-8.467,8.054h-3.3l11.769-11.355,13.008,14.66-11.553,18.6,16.509,22.7-18.02.207,13.515-2.459-13.515-18.022-11.509,20.481,11.509,17.813,13.064-14.716h4.956L1513.464-7526Zm257.8-.572-18.008-.206,16.509-22.7-11.553-18.6,13.01-14.662,5.776,5.576v3.224l-5.776-5.5-11.358,11.358,11.291,16.683.122-.167.019.031,5.7-8.926v4.3l-4.336,6.767,4.334,6.813,0,5.7-5.721-10.18-13.516,18.02,13.5,2.457ZM1686.28-7527h0l-18.021-21.472h4.956l13.065,14.715,11.505-17.813-11.505-20.481-13.517,18.022,13.517,2.459-18.022-.207,16.509-22.7-11.553-18.6,13.008-14.66,11.769,11.355h-3.3l-8.467-8.052-11.356,11.356,11.291,16.686.122-.167.017.031,10.043-15.723-10.155-.826h13.459l-11.981,18.693,9.05,14.222,6.029,8.59L1686.281-7527Zm-58.816,0h0L1611-7551.57l6.027-8.589,9.052-14.223-11.981-18.693h13.459l-10.157.826,10.044,15.723.019-.031.12.167,11.291-16.686-11.356-11.356-8.467,8.052h-3.3l11.769-11.355,13.008,14.66-11.553,18.6,16.509,22.7-18.02.207,13.515-2.459-13.515-18.022-11.509,20.481,11.509,17.813,13.063-14.717h4.956L1627.465-7527Zm-171,0h0L1440-7551.57l6.029-8.589,9.05-14.223-11.981-18.693h13.459l-10.155.826,10.043,15.723.019-.031.12.167,11.293-16.686-11.358-11.356-8.465,8.052h-3.3l11.769-11.355,13.01,14.66-11.555,18.6,16.509,22.7-18.02.207,13.515-2.459-13.515-18.022-11.507,20.481,11.507,17.813,13.066-14.717h4.954L1456.464-7527Zm-168,0h0L1272-7551.57l6.029-8.589,9.05-14.223-11.981-18.693h13.459l-10.156.826,10.042,15.723.02-.031.12.167,11.293-16.686-11.358-11.356-8.465,8.052h-3.3l11.769-11.355,13.01,14.66-11.555,18.6,16.51,22.7-18.02.207,13.515-2.459-13.515-18.022-11.508,20.481,11.508,17.813,13.065-14.717h4.955L1288.464-7527Zm-891.183,0h0l-18.021-21.472h4.957l13.065,14.715,11.505-17.813-11.505-20.481-13.517,18.022,13.517,2.459-18.022-.207,16.509-22.7-11.553-18.6,13.008-14.66,11.771,11.355h-3.3l-8.467-8.052-11.356,11.356,11.291,16.686.122-.167.019.031,10.041-15.723-10.155-.826h13.46l-11.981,18.693,9.05,14.222,6.029,8.59L397.281-7527Zm-168,0h0l-18.021-21.472h4.956l13.065,14.715,11.505-17.813-11.505-20.481-13.517,18.022,13.517,2.459-18.022-.207,16.509-22.7-11.553-18.6,13.008-14.66,11.771,11.355h-3.3l-8.467-8.052-11.356,11.356,11.291,16.686.122-.167.019.031,10.041-15.723-10.155-.826h13.459l-11.981,18.693,9.05,14.222,6.029,8.59L229.281-7527Zm-171,0h0L40.26-7548.473h4.954l13.065,14.715,11.507-17.813L58.28-7572.052,44.763-7554.03l13.517,2.459-18.02-.207,16.507-22.7-11.553-18.6,13.008-14.66,11.771,11.355h-3.3l-8.467-8.052-11.356,11.356,11.293,16.686.12-.167.019.031,10.042-15.723-10.155-.826H71.645l-11.981,18.693,9.05,14.222,6.027,8.59L58.28-7527Zm285-3h0l-18.019-21.473h4.955l13.065,14.715,11.507-17.813-11.507-20.481-13.513,18.022,13.513,2.459-18.02-.207,16.509-22.7-11.555-18.6,13.01-14.661,11.769,11.358-3.3,0-8.467-8.052-11.356,11.356,11.291,16.686.12-.167.021.031,10.04-15.724-10.155-.826h13.459l-11.981,18.693,9.05,14.224,6.029,8.588L343.279-7530Zm-56,0h0l-18.021-21.473h4.956l13.065,14.715,11.507-17.813-11.507-20.481-13.517,18.022,13.517,2.459-18.022-.207,16.509-22.7-11.553-18.6,13.008-14.661,11.771,11.358-3.306,0-8.465-8.052-11.356,11.356,11.291,16.686.122-.167.019.031,10.042-15.724-10.155-.826h13.459l-11.983,18.693,9.052,14.224,6.027,8.588L287.281-7530Zm1111.183,0h0L1382-7554.572l6.029-8.587,9.05-14.223-11.981-18.693h13.459l-10.155.824,10.042,15.724.019-.029.12.167,11.291-16.686-11.356-11.358-8.465,8.054h-3.3l11.769-11.358,13.01,14.662-11.555,18.6,16.509,22.7-18.02.2,13.515-2.459-13.515-18.02-11.507,20.479,11.507,17.815,13.065-14.717h4.954L1398.464-7530Zm-56,0h0L1326-7554.572l6.029-8.587,9.05-14.223-11.981-18.693h13.459l-10.155.824,10.042,15.724.019-.029.12.167,11.293-16.686-11.358-11.358-8.465,8.054h-3.3l11.769-11.358,13.008,14.662-11.553,18.6,16.51,22.7-18.02.2,13.515-2.459-13.515-18.02-11.507,20.479,11.507,17.815,13.063-14.717h4.957L1342.464-7530Zm312-21h0L1638-7575.572l6.029-8.589,9.052-14.22-11.983-18.693h13.459l-10.155.824,10.043,15.723.019-.031.12.167,11.293-16.683-1.924-1.924h1.87l1.706,1.926-11.555,18.6,16.509,22.7-18.02.207,13.515-2.459-13.515-18.021-11.507,20.48,11.507,17.815,13.066-14.718h4.954L1654.463-7551Zm-56,0h0L1582-7575.572l6.029-8.589,9.05-14.22-11.981-18.693h13.459l-10.155.824,10.042,15.723.02-.031.12.167,11.293-16.683-1.922-1.924h1.868l1.706,1.926-11.555,18.6,16.512,22.7-18.022.207,13.515-2.459-13.515-18.021-11.507,20.48,11.507,17.815,13.065-14.718h4.957L1598.463-7551Zm-115,0h0L1467-7575.572l6.027-8.589,9.052-14.22-11.982-18.693h13.458l-10.156.824,10.043,15.723.019-.031.121.167,11.293-16.683-1.922-1.924h1.868l1.706,1.926-11.553,18.6,16.509,22.7-18.022.207,13.517-2.459-13.517-18.021-11.507,20.48,11.507,17.815,13.066-14.718h4.956L1483.462-7551Zm-56,0h0L1411-7575.572l6.027-8.589,9.052-14.22-11.984-18.693h13.461l-10.157.824,10.044,15.723.019-.031.12.167,11.292-16.683-1.922-1.924h1.868l1.706,1.926-11.553,18.6,16.509,22.7-18.02.207,13.515-2.459-13.515-18.021-11.509,20.48,11.509,17.815,13.064-14.718h4.956L1427.464-7551Zm-112,0h0L1299-7575.572l6.027-8.589,9.052-14.22-11.981-18.693h13.457l-10.155.824,10.044,15.723.017-.031.12.167,11.293-16.683-1.922-1.924h1.868l1.706,1.926-11.553,18.6,16.509,22.7-18.022.207,13.517-2.459-13.517-18.021-11.507,20.48,11.507,17.815,13.065-14.718h4.956L1315.462-7551Zm-56,0h0L1243-7575.572l6.027-8.589,9.052-14.22-11.983-18.693h13.461l-10.157.824,10.044,15.723.019-.031.121.167,11.291-16.683-1.922-1.925h1.868l1.706,1.926-11.553,18.6,16.509,22.7-18.02.207,13.515-2.459-13.515-18.021-11.509,20.48,11.509,17.815,13.064-14.718h4.956L1259.463-7551Zm-833.184,0h0l-18.018-21.475h4.954l13.065,14.718,11.507-17.815-11.507-20.48-13.515,18.021,13.515,2.459-18.02-.207,16.509-22.7-11.555-18.6,1.708-1.926h-3.6l5.468,0-1.924,1.927,11.293,16.683.12-.167.019.031,10.043-15.721-10.155-.826h13.46l-11.983,18.693,9.052,14.222,6.029,8.587L426.28-7551Zm-56,0h0l-18.018-21.475h4.954l13.066,14.718,11.507-17.815-11.507-20.48-13.517,18.021,13.517,2.459-18.02-.207,16.507-22.7-11.553-18.6,1.708-1.926h-7.177l9.046,0-1.922,1.927,11.291,16.683.12-.167.019.031,10.042-15.721-10.155-.826h13.459l-11.981,18.693,9.05,14.222,6.027,8.587L370.28-7551Zm-112,0h0l-18.018-21.475h4.954l13.065,14.718,11.507-17.815-11.507-20.48-13.515,18.021,13.515,2.459-18.02-.207,16.509-22.7-11.555-18.6,1.707-1.926h-4.529l6.4,0-1.922,1.927,11.293,16.683.12-.167.019.031,10.042-15.721-10.155-.826h13.459l-11.983,18.693,9.052,14.222,6.029,8.587L258.279-7551Zm-56,0h0l-18.018-21.475h4.954l13.066,14.718,11.507-17.815-11.507-20.48-13.515,18.021,13.515,2.459-18.02-.207,16.509-22.7-11.555-18.6,1.708-1.926H180.458l12.332,0-1.923,1.927,11.291,16.683.121-.167.019.031,10.043-15.721-10.156-.826h13.46l-11.982,18.693,9.05,14.222,6.029,8.587L202.279-7551Zm-115,0h0l-18.02-21.475h4.956l13.065,14.718,11.505-17.815-11.505-20.48-13.517,18.021,13.517,2.459-18.022-.207,16.509-22.7-11.553-18.6L75.921-7619H70.447l7.343,0-1.922,1.927,11.291,16.683.122-.167.017.031,10.043-15.721-10.155-.826h13.46l-11.981,18.693,9.05,14.222,6.029,8.587L87.281-7551Zm-56,0h0l-18.02-21.475h4.956l13.065,14.718,11.505-17.815-11.505-20.48-13.517,18.021,13.517,2.459-18.022-.207,16.509-22.7-11.553-18.6L19.923-7619H12.54l9.25,0-1.922,1.927,11.291,16.683.122-.167.017.031,10.042-15.721-10.155-.826h13.46l-11.981,18.693,9.05,14.222,6.029,8.587L31.28-7551ZM1777-7567.6h0l-5.814-.472H1777v.471ZM1542.462-7591h0L1526-7615.571l2.407-3.428h4.473l-1.924,3.429,11.507,17.815,13.065-14.717h4.954L1542.463-7591ZM143.28-7591h0l-18.02-21.473h4.956l13.065,14.717,11.505-17.815L152.861-7619h4.475l2.407,3.43L143.281-7591Zm171-4h0l-18.02-21.474h4.958l13.064,14.717L325.417-7619H313.171l17.187,0-16.078,24Zm1057.183,0h0l-16.076-24h4.941l11.137,17.242,13.065-14.715h4.956L1371.462-7595ZM143.28-7615.569l-18.021-.208L127.6-7619H110.865l19.625,0-.726.971,13.517,2.459Zm1399.182,0v0l13.515-2.457-.725-.968h2.889l2.341,3.222Zm85-.427h0l-2.009-3h4.525l-2.515,3Zm-171,0h0l-2.006-3h4.523l-2.515,3Zm-168,0h0l-2.007-3h4.524l-2.515,3Zm-891.182,0h0l-2.516-3,4.526,0-2.009,3Zm-168,0h0l-2.516-3,4.526,0-2.009,3Zm-171,0h0l-2.514-3,4.525,0-2.009,3Z" transform="translate(143 8453)"/>
  <g id="Logo" transform="translate(101 53)">
    <path id="Union_2" data-name="Union 2" class="cls-4" d="M0,189.042H15.809l41.677,46.946,36.707-56.826-36.707-65.33L14.371,171.318l43.114,7.845L0,178.5l52.664-72.412L15.809,46.767,57.306,0,94.851,36.227H84.311L57.306,10.539,21.078,46.767,57.1,99.992l.386-.531.061.1L89.581,49.4l-32.4-2.635H100.12L61.9,106.4,90.77,151.766l19.23,27.4L57.485,257.546Z" transform="translate(0 0)"/>
  </g>
  <path id="Subtraction_4" data-name="Subtraction 4" class="cls-5" d="M-1495.468-3271.262h0l-9.9,0-5.971-9.383,11.982-18.693h-13.459l10.156.825-10.042,15.724-.019-.031-.121.167-11.291-16.685,11.356-11.357,8.466,8.053h3.3l-11.77-11.357-13.009,14.661,11.553,18.6-6.894,9.479h-9.215l7.083-10.572-6.028-8.589-9.05-14.223,11.982-18.693h-13.459l10.156.827-10.042,15.722-.019-.031-.121.167-11.291-16.685,11.356-11.357,8.466,8.053h3.3l-11.77-11.357-13.009,14.661,11.553,18.6-16.509,22.7,18.021.207-13.516-2.459,13.516-18.021,11.506,20.48-6.829,10.572h-11.107l-6.636-7.474h-4.955l6.272,7.475h-5.988l-7.88-12.382,11.982-18.694h-13.459l10.156.826-10.042,15.723-.02-.03-.121.166-11.291-16.685,11.356-11.357,8.466,8.053h3.3L-1566.778-3317l-13.01,14.66,11.554,18.6-9.075,12.479h-9.583l4.536-7.076h-13.46l10.156.826-3.992,6.25h-12.694l-4.789-7.075,11.356-11.356,8.467,8.052h3.3L-1595.778-3293l-13.007,14.661,4.4,7.076h-9.068l-7.88-12.382,11.982-18.694h-13.46l10.156.826-10.042,15.723-.019-.031-.122.167-11.292-16.685,11.356-11.357,8.467,8.053h3.3L-1622.778-3317l-13.007,14.66,11.553,18.6-9.076,12.479h-9.033l7.083-10.572-6.029-8.589-9.051-14.223,11.982-18.693h-13.458l10.155.827-10.042,15.722-.019-.031-.121.167-11.292-16.685,11.356-11.357,8.466,8.053h3.3l-11.77-11.357-13.009,14.661,11.554,18.6-16.51,22.7,18.021.207-13.515-2.459,13.515-18.021,11.506,20.48-6.828,10.572h-11.107l-6.636-7.474h-4.955l6.272,7.475h-9.9l-5.971-9.383,11.982-18.693h-13.46l10.156.825-10.042,15.724-.019-.031-.122.167-11.292-16.685,11.356-11.357,8.466,8.053h3.3l-11.77-11.357-13.009,14.661,11.553,18.6-6.894,9.479h-9.215l7.083-10.572-6.028-8.589-9.05-14.223,11.982-18.693h-13.46l10.156.827-10.042,15.722-.019-.031-.122.167-11.292-16.685,11.356-11.357,8.466,8.053h3.3l-11.77-11.357-13.008,14.661,11.552,18.6-16.509,22.7,18.021.207-13.516-2.459,13.516-18.021,11.507,20.48-6.829,10.572h-11.107l-6.635-7.474h-4.956l6.272,7.475H-1731l-5.335-8.384,11.982-18.693h-13.458l10.155.827-10.042,15.722-.02-.029-.121.167-11.292-16.686,11.356-11.357,8.466,8.054h3.3l-11.77-11.358-13.009,14.661,11.554,18.6-6.167,8.479h-9.927l1.971-3.075h-13.46l10.156.824-1.437,2.251h-17.955l-2.081-3.075,11.356-11.358,8.466,8.053h3.3L-1766.778-3289l-13.008,14.662,1.911,3.075H-1787l-5.335-8.384,11.982-18.693h-13.46l10.156.827-10.042,15.722-.019-.029-.122.167-11.291-16.686,11.356-11.357,8.466,8.054h3.3L-1793.778-3313l-13.008,14.661,11.552,18.6-6.167,8.479h-11.943l7.083-10.572-6.028-8.589-9.051-14.223,11.982-18.693h-13.458l10.155.827-10.041,15.722-.02-.03-.121.166-11.292-16.685,11.356-11.357,8.466,8.053h3.3l-11.77-11.357-13.009,14.661,11.554,18.6-16.51,22.7,18.021.207-13.515-2.459,13.515-18.021,11.506,20.48-6.828,10.572h-11.107l-6.636-7.474h-4.955l6.272,7.475h-9.9l-5.971-9.383,11.982-18.693h-13.46l10.156.825-10.042,15.724-.019-.031-.122.167-11.291-16.685,11.356-11.357,8.466,8.053h3.3l-11.77-11.357-13.008,14.661,11.552,18.6-6.894,9.479h-9.215l7.083-10.572-6.028-8.589-9.05-14.223,11.982-18.693h-13.46l10.156.827-10.042,15.722-.019-.031-.122.167-11.291-16.685,11.356-11.357,8.466,8.053h3.3l-11.77-11.357-13.008,14.661,11.552,18.6-16.509,22.7,18.021.207-13.515-2.459,13.515-18.021,11.507,20.48-6.829,10.572h-11.107l-6.635-7.474h-4.956l6.272,7.475H-2311v-124h30.418l-16.159,22.221,18.02.207-13.516-2.459,13.516-18.021,11.507,20.48-11.507,17.814-13.065-14.717h-4.955l18.021,21.475,16.462-24.572-6.028-8.588-8.807-13.84h16.677l-4.369,4.924,11.553,18.6-16.508,22.7,18.02.206-13.516-2.459,13.516-18.021,11.507,20.48-11.507,17.814-13.065-14.717h-4.955l18.021,21.475,16.462-24.573-6.028-8.588-9.051-14.222,11.982-18.693h-13.459l10.156.826-10.042,15.722-.019-.03-.121.167-11.292-16.685,4.924-4.924h13.2l1.7,1.62h3.3l-1.679-1.62h17.105l-16.16,22.221,18.021.207-13.515-2.459,13.515-18.021,11.506,20.48-11.506,17.814-13.065-14.717h-4.955l18.021,21.475,16.463-24.572-6.029-8.588-8.807-13.84h19.565l-5.256,5.924,11.553,18.6-16.51,22.7,18.021.207-13.516-2.46,13.516-18.021,11.507,20.48-11.507,17.814-13.065-14.717h-4.956l18.021,21.475,16.462-24.571-6.028-8.589-9.05-14.223,11.981-18.693h-13.459l10.156.826-10.042,15.723-.019-.031-.121.167-11.291-16.685,5.923-5.924h11.145l2.754,2.62h3.3l-2.715-2.62h12.127l5.874,7,4.689-7h16.5l-5.257,5.924,11.554,18.6-16.509,22.7,18.021.207-13.515-2.46,13.515-18.021,11.506,20.48-11.506,17.814-13.066-14.717h-4.954l18.021,21.475,16.463-24.571-6.029-8.589-9.05-14.223,11.981-18.693h-13.459l10.155.826-10.042,15.723-.019-.031-.122.167-11.292-16.685,5.923-5.924h11.145l2.754,2.62h3.3l-2.715-2.62h19.14l-16.159,22.221,18.02.207-13.516-2.459,13.516-18.021,11.507,20.48-11.507,17.814-13.065-14.717h-4.955l18.021,21.475,16.462-24.572-6.028-8.588-8.807-13.84h16.677l-4.369,4.924,11.553,18.6-16.508,22.7,18.02.206-13.516-2.459,13.516-18.021,11.507,20.48-11.507,17.814-13.065-14.717h-4.955l18.021,21.475,16.462-24.573-6.028-8.588-9.051-14.222,11.982-18.693h-13.459l10.156.826-10.042,15.722-.019-.03-.121.167-11.292-16.685,4.924-4.924h13.2l1.7,1.62h3.3l-1.679-1.62h17.105l-16.16,22.221,18.021.207-13.515-2.459,13.515-18.021,11.506,20.48-11.506,17.814-13.065-14.717h-4.955l18.021,21.475,16.463-24.572-6.029-8.588-8.807-13.84h16.016l-1.707,1.924,11.554,18.6-16.51,22.7,18.022.206-13.516-2.46,13.516-18.021,11.507,20.48-11.507,17.814-13.065-14.717h-4.956l18.022,21.476,16.462-24.573-6.028-8.588-9.05-14.223,11.982-18.693h-13.459l10.156.827-10.042,15.722-.019-.029-.121.166-11.292-16.686,1.924-1.924h33.972l2.518,3,2.01-3h15.631l-1.707,1.924,11.554,18.6-16.509,22.7,18.02.206-13.514-2.46,13.514-18.021,11.506,20.48-11.506,17.814-13.066-14.717h-4.954l18.02,21.476,16.463-24.573-6.028-8.588-9.051-14.223,11.983-18.693h-13.459l10.156.827-10.042,15.722-.02-.029-.121.166-11.291-16.686,1.924-1.924h34.628l-16.16,22.221,18.021.207-13.516-2.459,13.516-18.021,11.506,20.48-11.506,17.814-13.066-14.717h-4.955l18.021,21.475,16.462-24.572-6.028-8.588-8.807-13.84h16.677l-4.369,4.924,11.553,18.6-16.509,22.7,18.021.206-13.516-2.459,13.516-18.021,11.506,20.48-11.506,17.814-13.066-14.717h-4.955l18.021,21.475,16.462-24.573-6.028-8.588-9.051-14.222,11.982-18.693h-13.459l10.156.826-10.042,15.722-.019-.03-.122.167-11.291-16.685,4.924-4.924h13.2l1.7,1.62h3.3l-1.679-1.62h17.105l-16.161,22.221,18.021.207-13.515-2.459,13.515-18.021,11.506,20.48-11.506,17.814-13.065-14.717h-4.955l18.021,21.475,16.463-24.572-6.029-8.588-8.807-13.84h23.451l-6.143,6.924,11.552,18.6-16.509,22.7,18.021.205-13.515-2.459,13.515-18.02,11.507,20.479-11.507,17.815-13.064-14.717h-4.956l18.021,21.474,16.462-24.572-6.028-8.588-9.05-14.223,11.982-18.693h-13.46l10.156.825-10.042,15.723-.019-.029-.122.167-11.291-16.686,6.923-6.924h9.094l3.805,3.62h3.3l-3.751-3.62h156.116l-6.143,6.924,11.553,18.6-16.509,22.7,18.021.205-13.516-2.459,13.516-18.02,11.507,20.479-11.507,17.815-13.065-14.717h-4.956l18.021,21.474,16.462-24.572-6.028-8.588-9.05-14.223,11.982-18.693h-13.46l10.156.825-10.042,15.723-.019-.029-.122.167-11.292-16.686,6.923-6.924h9.094l3.805,3.62h3.3l-3.751-3.62h153.116l-6.143,6.924,11.553,18.6-16.509,22.7,18.021.205-13.516-2.459,13.516-18.02,11.506,20.479-11.506,17.815-13.065-14.717h-4.955l18.021,21.474,16.462-24.572-6.028-8.588-9.05-14.223,11.982-18.693h-13.459l10.156.825-10.042,15.723-.019-.029-.121.167-11.291-16.686,6.923-6.924h9.094l3.806,3.62h3.3l-3.752-3.62h24.45l-15.433,21.222,18.021.206-13.516-2.46,13.516-18.02,11.507,20.479-11.507,17.814-13.065-14.717h-4.955l18.021,21.476,16.462-24.573-6.028-8.589-8.17-12.839h15.153l-3.482,3.924,11.553,18.6-16.509,22.7,18.021.206-13.516-2.459,13.516-18.021,11.507,20.48-11.507,17.816-13.065-14.717h-4.955l18.021,21.473,16.462-24.572-6.028-8.588-9.05-14.223,11.982-18.693h-13.459l10.156.825-10.042,15.723-.019-.03-.121.167-11.291-16.685,3.924-3.924h15.247l.652.62h3.3l-.643-.62h15.342l-15.434,21.222,18.021.206-13.515-2.46,13.515-18.02,11.506,20.479-11.506,17.814-13.065-14.717h-4.955l18.021,21.476,16.463-24.573-6.029-8.589-8.17-12.839h18.041l-4.369,4.924,11.554,18.6-16.51,22.7,18.021.207-13.516-2.46,13.516-18.021,11.507,20.481-11.507,17.813-13.065-14.717h-4.956l18.021,21.475,16.462-24.572-6.028-8.589-9.05-14.223,11.982-18.693h-13.459l10.156.826-10.042,15.723-.019-.031-.121.167-11.292-16.685,4.924-4.924h13.2l1.7,1.62h3.3l-1.679-1.62h11.93l5.035,6,4.019-6h16.284l-4.369,4.924,11.554,18.6-16.509,22.7,18.021.207-13.515-2.46,13.515-18.021,11.506,20.481-11.506,17.813-13.066-14.717h-4.954l18.021,21.475,16.463-24.572-6.029-8.589-9.051-14.223,11.982-18.693h-13.458l10.155.826-10.042,15.723-.019-.031-.122.167-11.291-16.685,4.924-4.924h13.2l1.7,1.62h3.3l-1.679-1.62h17.377l-15.433,21.222,18.021.206-13.516-2.46,13.516-18.02,11.507,20.479-11.507,17.814-13.065-14.717h-4.955l18.021,21.476,16.462-24.573-6.028-8.589-8.17-12.839h15.153l-3.482,3.924,11.553,18.6-16.509,22.7,18.021.206-13.516-2.459,13.516-18.021,11.507,20.48-11.507,17.816-13.065-14.717h-4.955l18.021,21.473,16.462-24.572-6.028-8.588-9.05-14.223,11.982-18.693h-13.459l10.156.825-10.042,15.723-.019-.03-.121.167-11.291-16.685,3.924-3.924h15.247l.652.62h3.3l-.643-.62h15.342l-15.434,21.222,18.021.206-13.515-2.46,13.515-18.02,11.506,20.479-11.506,17.814-13.065-14.717h-4.955l18.021,21.476,16.463-24.573-6.029-8.589-8.17-12.839h14.492l-.82.924,11.554,18.6-16.51,22.7,18.021.207-13.516-2.46,13.516-18.021,11.507,20.48-11.507,17.814-13.065-14.717h-4.956l18.021,21.475,16.462-24.572-6.028-8.588-9.05-14.222,11.982-18.693h-13.459l10.156.826-10.042,15.723-.019-.031-.121.167-11.292-16.685.924-.924H-1202v18.4l-5.785,6.52,5.785,9.312v17.216l-10.741,14.77,10.741.123v9.7l-5.785-6.517h-4.956l10.741,12.8v41.675h-272.341l7.083-10.572-6.029-8.589-9.05-14.223,11.982-18.693h-13.458l10.155.827-10.042,15.722-.019-.031-.12.167-11.292-16.685,11.356-11.357,8.466,8.053h3.3l-11.77-11.357-13.009,14.661,11.554,18.6-16.51,22.7,18.021.207-13.515-2.459,13.515-18.021,11.507,20.48-6.829,10.572h-11.107l-6.635-7.474h-4.956l6.272,7.475Zm-289.273-47.477,18.021,21.475,16.462-24.573-6.028-8.588-9.05-14.223,11.982-18.693h-13.46l10.156.826-10.042,15.722-.019-.03-.122.167-11.291-16.685,11.356-11.356,8.466,8.052h3.3L-1766.778-3378l-13.008,14.661,11.552,18.6-16.509,22.7,18.021.206-13.516-2.459,13.516-18.021,11.506,20.48-11.506,17.814-13.065-14.717h-4.956Zm-400-2,18.021,21.475,16.462-24.572-6.028-8.589-9.05-14.221,11.981-18.694h-13.459l10.156.825-10.042,15.723-.019-.029-.121.166-11.291-16.685,11.356-11.357,8.466,8.053h3.3l-11.77-11.356-13.009,14.66,11.553,18.6-16.51,22.7,18.021.206-13.516-2.459,13.516-18.021,11.507,20.479-11.507,17.814-13.065-14.717h-4.956Zm801-1,18.022,21.474,16.462-24.572-6.028-8.589-9.05-14.222,11.982-18.693h-13.459l10.156.825-10.042,15.723-.019-.029-.121.166-11.292-16.686,11.356-11.357,8.466,8.054h3.3l-11.77-11.358-13.009,14.661,11.554,18.6-16.51,22.7,18.021.205-13.516-2.459,13.516-18.021,11.507,20.479-11.507,17.815-13.065-14.717h-4.956Zm-230-1,18.022,21.474,16.462-24.572-6.028-8.588-9.05-14.222,11.982-18.693h-13.46l10.156.825-10.042,15.724-.019-.031-.122.167-11.292-16.685,11.356-11.357,8.467,8.053h3.3L-1595.778-3382l-13.007,14.661,11.553,18.6-16.51,22.7,18.022.206-13.516-2.459,13.516-18.021,11.506,20.479-11.506,17.815-13.065-14.717h-4.956Zm-400-2h0l18.022,21.473,16.462-24.572-6.028-8.588-9.05-14.222,11.982-18.692h-13.459l10.156.824-10.042,15.723-.019-.03-.121.166-11.292-16.684,11.356-11.358,8.466,8.053h3.3L-1995.778-3384l-13.008,14.662,11.554,18.6-16.51,22.7,18.022.206-13.516-2.459,13.516-18.021,11.507,20.479-11.507,17.816-13.065-14.717h-4.957Zm504.984,53.473h-9.252l5.289-7.052,3.962,7.051Zm-52.316,0h-13.186l7.538-10.052,5.647,10.05Zm-56,0h-13.187l7.539-10.052,5.647,10.05Zm-59.686,0h-9.252l5.29-7.052,3.962,7.051Zm-57.562,0h-7.939l4.539-6.052,3.4,6.05Zm-56,0h-7.939l4.539-6.052,3.4,6.05Zm-57.438,0h-9.252l5.289-7.052,3.962,7.051Zm645.758-58.9h0l-6.235-1.134,6.236-8.314v9.448Zm0-34.072,0,0-4.132-6.1,4.134-4.134v10.241Z" transform="translate(3122 3753.264)"/>
</svg>
