<svg xmlns="http://www.w3.org/2000/svg" xmlns:xlink="http://www.w3.org/1999/xlink" width="1730" height="699" viewBox="0 0 1730 699"><defs><clipPath id="a"><rect width="1666" height="628" fill="none"/></clipPath><filter id="b" x="0" y="0" width="541" height="635.53" filterUnits="userSpaceOnUse"><feOffset dy="3" input="SourceAlpha"/><feGaussianBlur stdDeviation="3" result="c"/><feFlood flood-opacity="0.161"/><feComposite operator="in" in2="c"/><feComposite in="SourceGraphic"/></filter><filter id="d" x="561" y="0" width="541" height="635.53" filterUnits="userSpaceOnUse"><feOffset dy="3" input="SourceAlpha"/><feGaussianBlur stdDeviation="3" result="e"/><feFlood flood-opacity="0.161"/><feComposite operator="in" in2="e"/><feComposite in="SourceGraphic"/></filter><filter id="f" x="1122" y="0" width="541" height="635.53" filterUnits="userSpaceOnUse"><feOffset dy="3" input="SourceAlpha"/><feGaussianBlur stdDeviation="3" result="g"/><feFlood flood-opacity="0.161"/><feComposite operator="in" in2="g"/><feComposite in="SourceGraphic"/></filter></defs><g transform="translate(-118 -2860)"><rect width="1687" height="655" rx="10" transform="translate(161 2904)" fill="rgba(46,46,46,0.3)"/><g transform="translate(118 2860)" clip-path="url(#a)"><g transform="translate(-186 -2720)"><g transform="matrix(1, 0, 0, 1, 186, 2720)" filter="url(#b)"><path d="M12,0H511c6.627,0,12,4.137,12,9.24V608.29c0,5.1-5.373,9.24-12,9.24H12c-6.627,0-12-4.137-12-9.24V9.24C0,4.137,5.373,0,12,0Z" transform="translate(9 6)"/></g><text transform="translate(457 2950)" fill="#fff" font-size="60" font-family="Courier"><tspan x="-108.018" y="0">Design</tspan></text><text transform="translate(253 2992)" fill="#db0101" font-size="20" font-family="Courier"><tspan x="17.97" y="15">From simple and clean to a more </tspan><tspan x="17.97" y="37">unique and distinguished design</tspan><tspan x="119.986" y="59">I provide both</tspan></text><text transform="translate(253 3089)" fill="#fff" font-size="20" font-family="Courier"><tspan x="41.974" y="15">Design solutions I provide:</tspan></text><text transform="translate(253 3186)" fill="#db0101" font-size="20" font-family="Courier"><tspan x="125.987" y="15">Design Tools:</tspan><tspan fill="#fff"><tspan x="155.992" y="37">Adobe XD</tspan></tspan></text><g transform="translate(28 -16)"><rect width="50" height="20" rx="10" transform="translate(294 3155)" fill="#db0101"/><text transform="translate(319 3170)" fill="#fff" font-size="18" font-family="Courier"><tspan x="-10.802" y="0">UI</tspan></text></g><g transform="translate(97 -16)"><rect width="55" height="20" rx="10" transform="translate(294 3155)" fill="#fff"/><text transform="translate(322 3170)" font-size="18" font-family="Courier"><tspan x="-10.802" y="0">UX</tspan></text></g><g transform="translate(-46 -16)"><rect width="50" height="20" rx="10" transform="translate(294 3155)" fill="#fff"/><text transform="translate(319 3170)" font-size="18" font-family="Courier"><tspan x="-21.604" y="0">HTML</tspan></text></g><g transform="translate(171 -16)"><rect width="126" height="20" rx="10" transform="translate(294 3155)" fill="#db0101"/><text transform="translate(357 3170)" fill="#fff" font-size="18" font-family="Courier"><tspan x="-16.203" y="0">Web</tspan></text></g><g transform="translate(316 -16)"><rect width="88" height="20" rx="10" transform="translate(294 3155)" fill="#fff"/><text transform="translate(338 3171)" font-size="18" font-family="Courier"><tspan x="-21.604" y="0">Apps</tspan></text></g></g><g transform="translate(375 -2720)"><g transform="matrix(1, 0, 0, 1, -375, 2720)" filter="url(#d)"><path d="M12,0H511c6.627,0,12,4.137,12,9.24V608.29c0,5.1-5.373,9.24-12,9.24H12c-6.627,0-12-4.137-12-9.24V9.24C0,4.137,5.373,0,12,0Z" transform="translate(570 6)"/></g><text transform="translate(457 2950)" fill="#fff" font-size="60" font-family="Courier"><tspan x="-162.026" y="0">Front-end</tspan></text><text transform="translate(253 2992)" fill="#db0101" font-size="20" font-family="Courier"><tspan x="35.973" y="15">Whether it be android or web </tspan><tspan x="11.969" y="37" xml:space="preserve">development I’ve got you covered  </tspan></text><text transform="translate(253 3089)" fill="#fff" font-size="20" font-family="Courier"><tspan x="95.982" y="15">Languages I speak:</tspan></text><text transform="translate(253 3186)" fill="#db0101" font-size="20" font-family="Courier"><tspan x="95.982" y="15">Development Tools:</tspan><tspan fill="#fff"><tspan x="95.982" y="37">Visual Studio Code</tspan><tspan x="119.986" y="59">Android Studio</tspan><tspan x="167.994" y="81">Github</tspan><tspan x="149.991" y="103">Bootstrap</tspan></tspan></text><g transform="translate(28 -16)"><rect width="50" height="20" rx="10" transform="translate(294 3155)" fill="#db0101"/><text transform="translate(319 3170)" fill="#fff" font-size="18" font-family="Courier"><tspan x="-16.203" y="0">XML</tspan></text></g><g transform="translate(97 -16)"><rect width="55" height="20" rx="10" transform="translate(294 3155)" fill="#fff"/><text transform="translate(322 3170)" font-size="18" font-family="Courier"><tspan x="-21.604" y="0">JAVA</tspan></text></g><g transform="translate(-46 -16)"><rect width="50" height="20" rx="10" transform="translate(294 3155)" fill="#fff"/><text transform="translate(319 3170)" font-size="18" font-family="Courier"><tspan x="-21.604" y="0">HTML</tspan></text></g><g transform="translate(171 -16)"><rect width="126" height="20" rx="10" transform="translate(294 3155)" fill="#db0101"/><text transform="translate(357 3170)" fill="#fff" font-size="18" font-family="Courier"><tspan x="-48.608" y="0">Angular 8</tspan></text></g><g transform="translate(316 -16)"><rect width="88" height="20" rx="10" transform="translate(294 3155)" fill="#fff"/><text transform="translate(338 3171)" font-size="18" font-family="Courier"><tspan x="-37.806" y="0">ReactJS</tspan></text></g></g><g transform="translate(936 -2720)"><g transform="matrix(1, 0, 0, 1, -936, 2720)" filter="url(#f)"><path d="M12,0H511c6.627,0,12,4.137,12,9.24V608.29c0,5.1-5.373,9.24-12,9.24H12c-6.627,0-12-4.137-12-9.24V9.24C0,4.137,5.373,0,12,0Z" transform="translate(1131 6)"/></g><text transform="translate(457 2950)" fill="#fff" font-size="60" font-family="Courier"><tspan x="-144.023" y="0">Back-end</tspan></text><text transform="translate(253 2992)" fill="#db0101" font-size="20" font-family="Courier"><tspan x="17.97" y="15">From database design to the API</tspan><tspan x="77.979" y="37">I’ve got you covered. </tspan></text><text transform="translate(253 3089)" fill="#fff" font-size="20" font-family="Courier"><tspan x="41.974" y="15">Design solutions I provide:</tspan></text><text transform="translate(253 3186)" fill="#db0101" font-size="20" font-family="Courier"><tspan x="95.982" y="15">Development Tools:</tspan><tspan fill="#fff"><tspan x="161.993" y="37">Postman</tspan><tspan x="95.982" y="59">Visual Studio Code</tspan><tspan x="113.985" y="81">MySQL Workbench</tspan><tspan x="161.993" y="103">Robo 3T</tspan></tspan></text><g transform="translate(28 -16)"><rect width="50" height="20" rx="10" transform="translate(294 3155)" fill="#db0101"/><text transform="translate(319 3170)" fill="#fff" font-size="18" font-family="Courier"><tspan x="-27.004" y="0">MySQL</tspan></text></g><g transform="translate(97 -16)"><rect width="55" height="20" rx="10" transform="translate(294 3155)" fill="#fff"/><text transform="translate(322 3170)" font-size="18" font-family="Courier"><tspan x="-37.806" y="0">MongoDB</tspan></text></g><g transform="translate(-46 -16)"><rect width="50" height="20" rx="10" transform="translate(294 3155)" fill="#fff"/><text transform="translate(319 3170)" font-size="18" font-family="Courier"><tspan x="-32.405" y="0">NodeJS</tspan></text></g><g transform="translate(171 -16)"><rect width="126" height="20" rx="10" transform="translate(294 3155)" fill="#db0101"/><text transform="translate(357 3170)" fill="#fff" font-size="18" font-family="Courier"><tspan x="-27.004" y="0">MySQL</tspan></text></g><g transform="translate(316 -16)"><rect width="88" height="20" rx="10" transform="translate(294 3155)" fill="#fff"/><text transform="translate(338 3171)" font-size="18" font-family="Courier"><tspan x="-37.806" y="0">MongoDB</tspan></text></g></g></g><g transform="translate(1 -11)"><g transform="translate(328 2911.774)"><path d="M31.117,72.025c-9.667,0-17.47,8.154-17.47,18.256A12.069,12.069,0,0,1,2,102.452a29.706,29.706,0,0,0,23.294,12.171c12.87,0,23.294-10.893,23.294-24.342C48.587,80.179,40.784,72.025,31.117,72.025Zm83.916-52.7L99.018,2.59,42.764,61.375,58.778,78.11Z" stroke="#fff" stroke-width="3"/></g><g transform="translate(354 2918.731)"><g transform="translate(-6.36 34.49)" fill="#fff"><path d="M 6.646426677703857 72.31325531005859 L 6.308836936950684 69.31545257568359 L 4.8694167137146 56.5334358215332 L 4.830066680908203 56.18394470214844 L 4.950146675109863 55.8533935546875 L 21.47464752197266 10.36781406402588 L 22.26094627380371 8.203423500061035 L 23.92283630371094 9.797473907470703 C 26.62752723693848 12.39176368713379 29.8293571472168 14.16479396820068 33.43937683105469 15.06729412078857 L 35.05525588989258 15.47125434875488 L 34.48488616943359 17.03616333007812 L 18.53614616394043 60.7944450378418 L 18.41555595397949 61.12531280517578 L 18.16031646728516 61.36794281005859 L 8.832897186279297 70.23475646972656 L 6.646426677703857 72.31325531005859 Z" stroke="none"/><path d="M 7.799417018890381 69.14759063720703 L 17.1268367767334 60.28078460693359 L 33.07557678222656 16.52250480651855 C 29.16035652160645 15.54370403289795 25.70575714111328 13.58609390258789 22.88449668884277 10.87999439239502 L 6.359996795654297 56.36557388305664 L 7.799417018890381 69.14759063720703 M 5.493436813354492 75.47890472412109 L 4.818256855010986 69.48331451416016 L 3.378836870193481 56.7012939453125 L 3.300126791000366 56.00232315063477 L 3.540306806564331 55.34120559692383 L 20.06480598449707 9.855624198913574 L 21.63740730285645 5.526854038238525 L 24.96116638183594 8.714943885803223 C 27.47493743896484 11.1261043548584 30.44982719421387 12.77374362945557 33.80317687988281 13.61207389831543 L 37.03492736816406 14.42001438140869 L 35.89419555664062 17.54981422424316 L 19.94545745849609 61.3080940246582 L 19.70426750183105 61.96984481811523 L 19.19378662109375 62.45511245727539 L 9.866366386413574 71.32192230224609 L 5.493436813354492 75.47890472412109 Z" stroke="none"/></g><g transform="translate(25.231 34.49)" fill="#fff"><path d="M 39.41699981689453 72.30169677734375 L 37.24266815185547 70.2347412109375 L 27.91526031494141 61.36795043945312 L 27.66002082824707 61.12532043457031 L 27.53943061828613 60.79444885253906 L 11.59068965911865 17.03618049621582 L 11.02233028411865 15.47679042816162 L 12.63109016418457 15.06859016418457 C 16.21244049072266 14.15989017486572 19.50497055053711 12.33716011047363 22.15272903442383 9.797480583190918 L 23.81258964538574 8.205380439758301 L 24.60033988952637 10.36624050140381 L 41.18241119384766 55.85181045532227 L 41.30437850952148 56.18637084960938 L 41.26295852661133 56.5400505065918 L 39.76596832275391 69.32205963134766 L 39.41699981689453 72.30169677734375 Z" stroke="none"/><path d="M 23.19106101989746 10.87999725341797 C 20.36981201171875 13.58609771728516 16.85763168334961 15.54370880126953 13 16.52251052856445 L 28.9487419128418 60.28078079223633 L 38.27614212036133 69.1475830078125 L 39.77313995361328 56.36557006835938 L 23.19106101989746 10.87999725341797 M 24.43409156799316 5.530746459960938 L 26.00961112976074 9.85247802734375 L 42.59169006347656 55.33805084228516 L 42.83562088012695 56.00717163085938 L 42.75277328491211 56.71453857421875 L 41.25577163696289 69.49655151367188 L 40.55784225463867 75.45581817626953 L 36.20918273925781 71.32190704345703 L 26.88178253173828 62.45510864257812 L 26.37131118774414 61.96984100341797 L 26.1301212310791 61.30809020996094 L 10.18138122558594 17.54981994628906 L 9.044662475585938 14.43103790283203 L 12.26219177246094 13.61464691162109 C 15.59250259399414 12.7696533203125 18.65354156494141 11.07536315917969 21.11438179016113 8.714958190917969 L 24.43409156799316 5.530746459960938 Z" stroke="none"/></g><g transform="translate(6.2 -3)" fill="#fff"><path d="M 26.27300071716309 50.56133651733398 C 23.73495101928711 50.56133651733398 21.27404022216797 50.06577682495117 18.9586009979248 49.08841705322266 C 16.72170066833496 48.14420700073242 14.71414089202881 46.79209899902344 12.99169063568115 45.06963729858398 C 11.2692403793335 43.34718704223633 9.917130470275879 41.33963012695312 8.972920417785645 39.10272979736328 C 7.995560646057129 36.78730010986328 7.500000953674316 34.32637786865234 7.500000953674316 31.78832817077637 C 7.500000953674316 27.8536491394043 8.723550796508789 24.08505821228027 11.03837108612061 20.88994789123535 C 13.08048915863037 18.07125473022461 15.82309913635254 15.88852405548096 19.01533126831055 14.53047752380371 L 19.01533126831055 2.999998331069946 L 19.01533126831055 1.499998211860657 L 20.51533126831055 1.499998211860657 L 32.03067016601562 1.499998211860657 L 33.53067016601562 1.499998211860657 L 33.53067016601562 2.999998331069946 L 33.53067016601562 14.53047752380371 C 36.72290420532227 15.88852405548096 39.46551132202148 18.07125473022461 41.50762939453125 20.88994789123535 C 43.82245254516602 24.08505821228027 45.04600143432617 27.8536491394043 45.04600143432617 31.78832817077637 C 45.04600143432617 34.32637786865234 44.55044174194336 36.78730010986328 43.57308197021484 39.10272979736328 C 42.62887191772461 41.33963012695312 41.27676010131836 43.34718704223633 39.5543098449707 45.06963729858398 C 37.83185958862305 46.79209899902344 35.82429885864258 48.14420700073242 33.58740234375 49.08841705322266 C 31.2719612121582 50.06577682495117 28.81105041503906 50.56133651733398 26.27300071716309 50.56133651733398 Z M 26.27300071716309 27.53066825866699 C 23.9253101348877 27.53066825866699 22.01533126831055 29.44064903259277 22.01533126831055 31.78832817077637 C 22.01533126831055 34.13601684570312 23.9253101348877 36.0460090637207 26.27300071716309 36.0460090637207 C 28.62069129943848 36.0460090637207 30.53067016601562 34.13601684570312 30.53067016601562 31.78832817077637 C 30.53067016601562 29.44064903259277 28.62069129943848 27.53066825866699 26.27300071716309 27.53066825866699 Z" stroke="none"/><path d="M 26.27300071716309 49.06133651733398 C 35.83073043823242 49.06133651733398 43.54600143432617 41.3460578918457 43.54600143432617 31.78832817077637 C 43.54600143432617 24.30336761474609 38.70956039428711 17.96992874145508 32.03067016601562 15.55171871185303 L 32.03067016601562 2.999998331069946 L 20.51533126831055 2.999998331069946 L 20.51533126831055 15.55171871185303 C 13.83644104003906 17.96992874145508 9.000000953674316 24.30336761474609 9.000000953674316 31.78832817077637 C 9.000000953674316 41.3460578918457 16.71527099609375 49.06133651733398 26.27300071716309 49.06133651733398 M 26.27300071716309 26.03066825866699 C 29.43972015380859 26.03066825866699 32.03067016601562 28.62161827087402 32.03067016601562 31.78832817077637 C 32.03067016601562 34.95504760742188 29.43972015380859 37.5460090637207 26.27300071716309 37.5460090637207 C 23.10628128051758 37.5460090637207 20.51533126831055 34.95504760742188 20.51533126831055 31.78832817077637 C 20.51533126831055 28.62161827087402 23.10628128051758 26.03066825866699 26.27300071716309 26.03066825866699 M 26.27300071716309 52.06133651733398 C 23.53349113464355 52.06133651733398 20.87631988525391 51.52604675292969 18.37528038024902 50.4703483581543 C 15.95918083190918 49.45049667358398 13.79102039337158 47.99029922485352 11.9310302734375 46.13029861450195 C 10.07104110717773 44.27030944824219 8.610840797424316 42.10214996337891 7.590990543365479 39.6860466003418 C 6.535290718078613 37.18500900268555 6.000000953674316 34.52783966064453 6.000000953674316 31.78832817077637 C 6.000000953674316 27.53553771972656 7.322200775146484 23.46261787414551 9.823660850524902 20.0098991394043 C 11.0200309753418 18.35856819152832 12.45593070983887 16.89555740356445 14.09148025512695 15.66150856018066 C 15.16522216796875 14.85134887695312 16.31117057800293 14.15041255950928 17.51533126831055 13.56629276275635 L 17.51533126831055 2.999998331069946 L 17.51533126831055 -1.741332994242839e-06 L 20.51533126831055 -1.741332994242839e-06 L 32.03067016601562 -1.741332994242839e-06 L 35.03067016601562 -1.741332994242839e-06 L 35.03067016601562 2.999998331069946 L 35.03067016601562 13.56629276275635 C 36.23483276367188 14.15041255950928 37.38077926635742 14.85134887695312 38.45452117919922 15.66150856018066 C 40.09006881713867 16.89555740356445 41.52597045898438 18.35856819152832 42.72233963012695 20.0098991394043 C 45.22380065917969 23.46261787414551 46.54600143432617 27.53553771972656 46.54600143432617 31.78832817077637 C 46.54600143432617 34.52783966064453 46.01071166992188 37.18500900268555 44.95500946044922 39.6860466003418 C 43.93516159057617 42.10214996337891 42.47496032714844 44.27030944824219 40.61497116088867 46.13029861450195 C 38.75498199462891 47.99029922485352 36.58682250976562 49.45049667358398 34.17071914672852 50.4703483581543 C 31.66968154907227 51.52604675292969 29.01251029968262 52.06133651733398 26.27300071716309 52.06133651733398 Z M 26.27300071716309 29.03066825866699 C 25.54276084899902 29.03066825866699 24.85200119018555 29.31926918029785 24.32796096801758 29.84330749511719 C 23.80393028259277 30.36733818054199 23.51533126831055 31.05809783935547 23.51533126831055 31.78832817077637 C 23.51533126831055 32.51856994628906 23.80393028259277 33.20932769775391 24.32797050476074 33.73336791992188 C 24.85200119018555 34.25740814208984 25.54276084899902 34.5460090637207 26.27300071716309 34.5460090637207 C 27.00324058532715 34.5460090637207 27.69400024414062 34.25740814208984 28.21803092956543 33.73336791992188 C 28.7420711517334 33.20932769775391 29.03067016601562 32.51856994628906 29.03067016601562 31.78832817077637 C 29.03067016601562 31.05809783935547 28.7420711517334 30.36733818054199 28.21804046630859 29.84330749511719 C 27.69400024414062 29.31926918029785 27.00324058532715 29.03066825866699 26.27300071716309 29.03066825866699 Z" stroke="none"/></g></g></g><g transform="translate(69 -18)"><path d="M124.489,2H1V69.961H54.9v11.2L40.292,86.952H85.2l-12.71-5.787v-11.2h52ZM113.262,63.076H12.226V10.5H113.262Z" transform="translate(856 2922.558)" fill="#fff"/><rect width="47" height="61" transform="translate(849 2954)"/><g transform="translate(801.596 2943.112)"><path d="M0,0H89.888V89.888H0Z" fill="none"/><path d="M14.981,11.491H82.4V4H7.491V52.689H0V63.925H52.435V52.689H14.981Zm74.907,7.491H59.925V63.925H89.888ZM82.4,52.689H67.416V26.472H82.4Z" transform="translate(0 10.981)" fill="#fff"/></g></g><g transform="translate(30 -21)"><g transform="translate(1418 2897.374)"><path d="M0,0H127.626V127.626H0Z" fill="none"/><path d="M102.9,36.119A39.843,39.843,0,0,0,28.45,25.484a31.893,31.893,0,0,0,3.457,63.6h69.131A26.513,26.513,0,0,0,102.9,36.119Zm-1.861,42.329H31.906a21.271,21.271,0,0,1,0-42.542h3.776a29.243,29.243,0,0,1,57.379,7.977v2.659h7.977a15.953,15.953,0,0,1,0,31.906Z" transform="translate(0 17.271)" fill="#fff"/><rect width="38" height="22" transform="translate(14 84.626)"/></g><g transform="translate(1404.757 2949.231)"><path d="M0,0H86.769V86.769H0ZM0,0H86.769V86.769H0Z" fill="none"/><path d="M53.615,50,39.154,35.538v-11.5a10.846,10.846,0,1,0-7.231,0v11.5L17.461,50H3V68.076H21.077V57.05L35.538,41.865,50,57.05V68.076H68.076V50Z" transform="translate(7.846 7.846)" fill="#fff"/></g></g><rect width="467" height="43" transform="translate(1295 3266)"/><g transform="translate(1304 123)"><path d="M10,0H116a10,10,0,0,1,0,20H10A10,10,0,0,1,10,0Z" transform="translate(294 3155)" fill="#fff"/><text transform="translate(357 3170)" font-size="18" font-family="Courier"><tspan x="-37.806" y="0">MongoDB</tspan></text></g><g transform="translate(1001 123)"><path d="M10,0H116a10,10,0,0,1,0,20H10A10,10,0,0,1,10,0Z" transform="translate(294 3155)" fill="#fff"/><text transform="translate(357 3170)" font-size="18" font-family="Courier"><tspan x="-32.405" y="0">NodeJS</tspan></text></g><g transform="translate(1148 123)"><rect width="126" height="20" rx="10" transform="translate(294 3155)" fill="#db0101"/><text transform="translate(357 3170)" fill="#fff" font-size="18" font-family="Courier"><tspan x="-27.004" y="0">MySQL</tspan></text></g></g></svg>