<svg xmlns="http://www.w3.org/2000/svg" width="1722.647" height="1576.752" viewBox="0 0 1722.647 1576.752">
<!-- Style and animate svg -->
  <style type="text/css" media="screen">  
    <![CDATA[  
    g {   
        stroke-width: 1;
        transition: fill 1s linear 0s;
    }
    g:hover {
        
    }
    ]]>  
</style> 
<!-- end style and animate svg -->
  <g id="background-stripes" transform="translate(-673.129 -113.248)">
    <path id="Subtraction_6" data-name="Subtraction 6" d="M-844.111-3293.264h0l-41.239,0,9.093-13.135-6.028-8.311-9.05-13.763,11.982-18.091h-13.459l10.156.8L-892.7-3330.55l-.019-.029-.121.161-11.292-16.147,11.357-10.99,8.465,7.793h3.3l-11.769-10.991-13.009,14.188,11.553,18-16.51,21.967,18.021.2-13.515-2.379,13.515-17.439,11.507,19.819-8.767,13.135h-6.506l-9.3-10.137h-4.956l8.79,10.137h-10.506l-7.88-11.984,11.982-18.09h-13.459l10.155.8-10.042,15.216-.019-.029-.121.161-11.292-16.147,11.357-10.99,8.465,7.793h3.3l-11.769-10.991-13.009,14.188,11.554,18-9.076,12.076h-9.043l9.093-13.135-6.029-8.311-9.05-13.763,11.982-18.091h-13.459l10.155.8L-948.7-3330.55l-.019-.029-.121.161-11.292-16.147,11.357-10.99,8.465,7.793h3.3l-11.769-10.991-13.009,14.188,11.554,18-16.51,21.967,18.021.2-13.515-2.379,13.515-17.439,11.507,19.819-8.767,13.135h-6.506l-9.3-10.137h-4.955l8.79,10.137h-42.07l9.763-14.1-6.029-8.311-9.051-13.764,11.982-18.09h-13.458l10.155.8-10.042,15.215-.019-.029-.121.161-11.292-16.147,11.357-10.99,8.465,7.793h3.3l-11.769-10.991-13.009,14.188,11.554,18-16.51,21.967,18.021.2-13.515-2.379,13.515-17.439,11.507,19.819-9.413,14.1h-4.973l-10.187-11.1h-4.955l9.629,11.1h-42.919l11.773-17.006-6.028-8.31-9.05-13.764,11.982-18.09h-13.46l10.156.8-10.043,15.215-.019-.029-.121.161-11.292-16.147,11.357-10.99,8.465,7.793h3.3l-11.769-10.991-13.009,14.188,11.553,18-16.509,21.967,18.021.2-13.515-2.38,13.515-17.439,11.507,19.819-11.351,17.006h-.371l-12.85-14.008h-4.956l12.147,14.007h-11.176l-1.517-2.091-9.05-13.764,11.982-18.09h-13.458l10.155.8L-1091.7-3311.2l-.019-.029-.121.161-11.292-16.147,11.357-10.99,8.465,7.793h3.3l-11.769-10.991-13.01,14.188,11.554,18-11.985,15.947h-8.814l11.773-17.006-6.029-8.31-9.05-13.764,11.982-18.09h-13.458l10.155.8-10.042,15.215-.019-.029-.121.161-11.292-16.147,11.357-10.99,8.465,7.793h3.3l-11.769-10.991-13.01,14.188,11.554,18-16.51,21.967,18.021.2-13.516-2.38,13.516-17.439,11.507,19.819-11.351,17.006h-.371l-12.851-14.008h-4.955l12.147,14.007h-7.07l-3.622-4.994-9.05-13.764,11.982-18.09h-13.459l10.156.8L-1145.7-3314.1l-.019-.029-.121.161-11.292-16.147,11.357-10.99,8.465,7.793h3.3l-11.769-10.991-13.009,14.188,11.553,18-14.167,18.851h-8.979l9.023-13.622h-13.458l10.155.8-8.463,12.823h-3.484l-9.527-13.623,11.357-10.99,8.465,7.793h3.3l-11.769-10.991-13.01,14.188,8.746,13.623h-8.623l-3.623-4.994-9.05-13.764,11.982-18.09h-13.458l10.155.8L-1201.7-3314.1l-.019-.029-.121.161-11.292-16.147,11.357-10.99,8.465,7.793h3.3l-11.769-10.991-13.01,14.188,11.554,18-14.167,18.851h-8.632l11.773-17.006-6.028-8.31-9.05-13.764,11.982-18.09h-13.459l10.156.8-10.043,15.215-.019-.029-.12.161-11.292-16.147,11.357-10.99,8.465,7.793h3.3l-11.769-10.991-13.009,14.188,11.553,18-16.51,21.967,18.021.2-13.515-2.38,13.515-17.439,11.507,19.819-11.351,17.006h-.371l-12.85-14.008h-4.956l12.147,14.007h-11.176l-1.517-2.091-9.05-13.764,11.982-18.09h-13.458l10.155.8L-1259.7-3311.2l-.019-.029-.121.161-11.292-16.147,11.357-10.99,8.465,7.793h3.3l-11.769-10.991-13.01,14.188,11.554,18-11.985,15.947h-8.814l11.773-17.006-6.029-8.31-9.05-13.764,11.982-18.09h-13.458l10.155.8-10.042,15.215-.019-.029-.121.161-11.292-16.147,11.357-10.99,8.465,7.793h3.3l-11.769-10.991-13.01,14.188,11.554,18-16.509,21.967,18.021.2-13.515-2.38,13.515-17.439,11.507,19.819-11.351,17.006h-.371l-12.851-14.008h-4.955l12.147,14.007h-12.878l-.815-1.123-9.05-13.764,11.982-18.09h-13.459l10.156.8-10.043,15.215-.019-.029-.121.161-11.292-16.147,11.357-10.99,8.465,7.793h3.3l-11.769-10.991-13.009,14.188,11.553,18-11.258,14.98h-9.324l6.459-9.751h-13.458l10.155.8-5.909,8.952h-8.746l-6.82-9.751,11.357-10.99,8.465,7.793h3.3l-11.769-10.991-13.01,14.188,6.26,9.752h-8.947l-.815-1.123-9.05-13.764,11.982-18.09h-13.458l10.155.8-10.042,15.215-.019-.029-.12.161-11.292-16.147,11.357-10.99,8.465,7.793h3.3l-11.769-10.991-13.01,14.188,11.554,18-11.258,14.98h-11.541l11.773-17.006-6.028-8.31-9.05-13.764,11.982-18.09h-13.459l10.156.8-10.043,15.215-.019-.029-.121.161-11.292-16.147,11.357-10.99,8.465,7.793h3.3l-11.769-10.991-13.009,14.188,11.553,18-16.51,21.967,18.021.2-13.515-2.38,13.515-17.439,11.507,19.819-11.351,17.006h-.371l-12.85-14.008h-4.956l12.147,14.007h-11.176l-1.517-2.091-9.05-13.764,11.982-18.09h-13.458l10.155.8L-1430.7-3311.2l-.019-.029-.12.161-11.292-16.147,11.357-10.99,8.465,7.793h3.3l-11.769-10.991-13.01,14.188,11.554,18-11.985,15.947h-8.814l11.773-17.006-6.029-8.31-9.05-13.764,11.982-18.09h-13.458l10.155.8-10.042,15.215-.019-.029-.12.161-11.292-16.147,11.357-10.99,8.465,7.793h3.3l-11.769-10.991-13.01,14.188,11.554,18-16.509,21.967,18.021.2-13.515-2.38,13.515-17.439,11.507,19.819-11.351,17.006h-.371l-12.851-14.008h-4.955l12.147,14.007h-16.878l-.814-1.122-9.05-13.764,11.982-18.09h-13.459l10.156.8-10.043,15.216-.019-.029-.121.161-11.292-16.147,11.357-10.99,8.465,7.793h3.3l-11.769-10.991-13.009,14.188,11.553,18-11.257,14.979h-9.324l6.458-9.75h-13.458l10.155.8-5.908,8.951h-8.747l-6.819-9.751,11.357-10.99,8.465,7.793h3.3l-11.769-10.991-13.01,14.188,6.26,9.751h-8.947l-.814-1.122-9.05-13.764,11.982-18.09h-13.458l10.155.8-10.042,15.216-.019-.029-.12.161-11.292-16.147,11.357-10.99,8.465,7.793h3.3l-11.769-10.991-13.01,14.188,11.554,18-11.257,14.979h-9.248l8.381-12.654h-13.459l10.156.8-7.825,11.855h-4.8l-8.85-12.654,11.357-10.99,8.465,7.793h3.3l-11.769-10.99-13.009,14.188,8.123,12.654h-20.242l-3.872-3.616-3.316,3.616h-18.644l8.381-12.654h-13.459l10.155.8-7.824,11.855h-4.8l-8.85-12.654,11.357-10.99,8.465,7.793h3.3l-11.769-10.99-13.01,14.188,8.124,12.654h-12.81l-.814-1.122-9.05-13.764,11.982-18.09h-13.46l10.156.8-10.043,15.216-.019-.029-.121.161-11.292-16.147,11.357-10.99,8.465,7.793h3.3l-11.769-10.991-13.009,14.188,11.553,18-11.257,14.979h-9.324l6.458-9.75h-13.459l10.155.8-5.908,8.951h-8.747l-6.819-9.751,11.357-10.99,8.465,7.793h3.3l-11.769-10.991-13.01,14.188,6.26,9.751h-8.947l-.814-1.122-9.051-13.764,11.982-18.09h-13.459l10.155.8-10.042,15.216-.019-.029-.121.161-11.292-16.147,11.357-10.99,8.465,7.793h3.3l-11.769-10.991-13.01,14.188,11.554,18-11.257,14.979h-9.684l5.817-8.783h-13.459l10.156.8-5.27,7.984h-10.062l-6.142-8.783,11.357-10.99,8.465,7.793h3.3l-11.769-10.991-13.009,14.188,5.638,8.783h-41.026l5.818-8.783h-13.459l10.155.8-5.269,7.984h-10.062l-6.142-8.783,11.357-10.99,8.465,7.793h3.3l-11.769-10.991-13.01,14.188,5.639,8.783h-10.325l-.814-1.122-9.05-13.764,11.982-18.09h-13.46l10.156.8-10.043,15.216-.019-.029-.12.161-11.292-16.147,11.357-10.99,8.465,7.793h3.3l-11.769-10.991-13.009,14.188,11.553,18-11.257,14.979h-9.324l6.458-9.75h-13.459l10.155.8-5.908,8.951h-8.747l-6.819-9.751,11.357-10.99,8.465,7.793h3.3l-11.769-10.991-13.01,14.188,6.26,9.751h-8.947l-.814-1.122-9.051-13.764,11.982-18.09h-13.459l10.155.8-10.042,15.216-.019-.029-.121.161-11.292-16.147,11.357-10.99,8.465,7.793h3.3l-11.769-10.991-13.01,14.188,11.554,18-11.257,14.979H-2311v-120h11.883l10.885,16.956-16.51,21.968,18.021.2-13.515-2.38,13.515-17.439,11.507,19.819-11.507,17.239-13.065-14.241h-4.955l18.021,20.781,16.463-23.779-6.03-8.311-9.05-13.764,11.292-17.049h30.928l10.885,16.956-16.51,21.968,18.021.2-13.515-2.38,13.515-17.439,11.507,19.819-11.507,17.239-13.064-14.241h-4.956l18.021,20.781,16.463-23.779-6.028-8.311-9.051-13.764,11.292-17.049h25.464l-.161.215,18.021.2-2.351-.414h13.618l.24.414-11.507,17.24-13.065-14.241h-4.955l18.021,20.781,16.463-23.779-.3-.414h30.441l10.885,16.956-16.51,21.968,18.021.2-13.515-2.38,13.515-17.439,11.507,19.819-11.507,17.239-13.065-14.241h-4.956l18.021,20.781,16.463-23.779-6.03-8.311-9.05-13.764,11.292-17.049h30.928l10.885,16.956-16.51,21.968,18.021.2-13.515-2.38,13.515-17.439,11.507,19.819-11.507,17.239-13.064-14.241h-4.956l18.021,20.781,16.463-23.779-6.028-8.311-9.051-13.764,11.292-17.049h25.7l17.623,20.322,14.069-20.322h29.535l10.886,16.956-16.51,21.968,18.021.2-13.515-2.38,13.515-17.439,11.507,19.819-11.507,17.239-13.065-14.241h-4.955l18.021,20.781,16.463-23.779-6.029-8.311-9.05-13.764,11.292-17.049h30.928l10.885,16.956-16.51,21.968,18.021.2-13.515-2.38,13.515-17.439,11.507,19.819-11.507,17.239-13.064-14.241h-4.956l18.021,20.781,16.463-23.779-6.028-8.311-9.05-13.764,11.292-17.049h435.306l11.507,17.924-16.509,21.967,18.021.2-13.515-2.379,13.515-17.439,11.507,19.819-11.507,17.239-13.065-14.242h-4.955l18.021,20.781,16.463-23.779-6.029-8.312-9.05-13.763,11.933-18.016h144.666l11.506,17.924-16.509,21.967,18.021.2-13.515-2.379,13.515-17.439,11.507,19.819-11.507,17.239-13.065-14.242h-4.955l18.021,20.781,16.463-23.779-6.029-8.312-9.05-13.763,11.933-18.016h141.666l11.507,17.924-16.51,21.967,18.021.2-13.516-2.379,13.516-17.439,11.507,19.819-11.507,17.239-13.065-14.242h-4.955l18.021,20.781,16.463-23.779-6.029-8.312-9.05-13.763,11.933-18.016h68.37l-14.707,19.569,18.021.2-13.515-2.379,13.476-17.389h.068l11.478,19.769-11.507,17.24-13.065-14.241h-4.955l18.021,20.781,16.463-23.779-6.029-8.312-7.534-11.457H-931.3l-3.482,3.8,11.554,18-16.51,21.968,18.021.2-13.515-2.38,13.515-17.439,11.507,19.819-11.507,17.239-13.065-14.241h-4.955l18.021,20.781,16.463-23.779-6.029-8.312-9.05-13.763,11.982-18.09h-13.459l10.155.8-10.042,15.215-.019-.029-.121.161-11.292-16.147,3.924-3.8h15.247l.651.6h3.3l-.642-.6h71.615l-14.707,19.569,18.021.2-13.515-2.379,13.476-17.389h.068l11.478,19.769-11.507,17.24-13.065-14.241h-4.955l18.021,20.781,16.463-23.779-6.029-8.312-7.534-11.457H-807v28.562l-12.785,13.944,11.553,18-16.51,21.968,17.742.2v16.938l-12.785-13.937h-4.956L-807-3307.136v13.869h-22.021l9.763-14.1-6.029-8.311-9.051-13.764,11.982-18.09h-13.458l10.155.8-10.042,15.215-.019-.029-.121.161-11.292-16.147,11.357-10.99,8.465,7.793h3.3l-11.769-10.991-13.009,14.188,11.554,18-16.51,21.967,18.021.2-13.515-2.379,13.515-17.439,11.507,19.819-9.413,14.1H-838.6l-10.187-11.1h-4.955l9.629,11.1Zm-948.632-28.525h0l18.021,20.781,16.463-23.779-6.029-8.312-9.05-13.762,11.982-18.091h-13.459l10.155.8-10.042,15.215-.019-.029-.12.161-11.292-16.147,11.357-10.99,8.465,7.792h3.3l-11.769-10.99-13.01,14.188,11.554,18-16.51,21.967,18.021.2-13.515-2.38,13.515-17.439,11.507,19.819-11.507,17.239-13.065-14.242h-4.956Zm-400-1.936h0l18.021,20.781,16.463-23.779-6.029-8.311-9.051-13.764,11.982-18.09h-13.458l10.155.8-10.042,15.215-.019-.029-.121.161-11.292-16.147,11.357-10.99,8.465,7.793h3.3l-11.769-10.991-13.01,14.188,11.554,18-16.51,21.967,18.021.2-13.515-2.379,13.515-17.439,11.508,19.819-11.507,17.239-13.065-14.242h-4.956Zm571-1.935h0l18.021,20.781,16.463-23.779-6.029-8.312-9.05-13.762,11.982-18.09h-13.459l10.155.8-10.042,15.216-.019-.029-.121.161-11.292-16.147,11.357-10.99,8.465,7.792h3.3l-11.769-10.99-13.01,14.188,11.554,18-16.51,21.967,18.021.2-13.515-2.38,13.515-17.439,11.507,19.819-11.507,17.24-13.065-14.242h-4.956Zm741-1.936,18.021,20.781,16.463-23.779-6.029-8.311-9.051-13.764,11.982-18.09h-13.458l10.155.8-10.042,15.215-.019-.029-.121.161-11.292-16.147,11.357-10.99,8.465,7.793h3.3l-11.769-10.991-13.009,14.188,11.554,18-16.51,21.968,18.021.2-13.515-2.379,13.515-17.439,11.507,19.819-11.507,17.239-13.065-14.241h-4.955Zm-115,0,18.021,20.781,16.463-23.779-6.028-8.311-9.05-13.764,11.982-18.09h-13.46l10.156.8-10.043,15.215-.019-.029-.121.161-11.292-16.147,11.357-10.99,8.465,7.793h3.3l-11.769-10.991-13.009,14.188,11.553,18-16.51,21.968,18.021.2-13.515-2.379,13.515-17.439,11.507,19.819-11.507,17.239-13.064-14.241h-4.956Zm-56,0,18.021,20.781,16.463-23.779-6.029-8.311-9.05-13.764,11.982-18.09h-13.458l10.155.8-10.042,15.215-.019-.029-.121.161-11.292-16.147,11.357-10.99,8.465,7.793h3.3l-11.769-10.991-13.009,14.188,11.554,18-16.51,21.968,18.021.2-13.516-2.379,13.516-17.439,11.507,19.819-11.507,17.239-13.065-14.241h-4.955Zm-970,0,18.021,20.781,16.463-23.779-6.029-8.311-9.051-13.764,11.982-18.09h-13.459l10.155.8-10.042,15.215-.019-.029-.121.161-11.292-16.147,11.357-10.99,8.465,7.793h3.3l-11.769-10.991-13.01,14.188,11.554,18-16.51,21.968,18.021.2-13.515-2.379,13.515-17.439,11.507,19.819-11.507,17.239-13.065-14.241h-4.955Zm483-18.386h0l18.021,20.781,16.463-23.779-6.029-8.311-9.05-13.763,11.982-18.09h-13.458l10.155.8-10.042,15.216-.019-.029-.12.161-11.292-16.147,11.357-10.99,8.465,7.792h3.3l-11.769-10.99-13.01,14.188,11.554,18-16.509,21.967,18.021.2-13.515-2.379,13.515-17.439,11.507,19.819-11.507,17.24-13.065-14.242h-4.956Zm-168,0h0l18.021,20.781,16.463-23.779-6.029-8.311-9.051-13.763,11.982-18.09h-13.459l10.155.8-10.042,15.216-.019-.029-.121.161-11.292-16.147,11.357-10.99,8.465,7.792h3.3l-11.769-10.99-13.01,14.188,11.554,18-16.51,21.967,18.021.2-13.515-2.379,13.515-17.439,11.507,19.819-11.507,17.24-13.065-14.242h-4.956Zm-171,0h0l18.021,20.781,16.463-23.779-6.029-8.311-9.051-13.763,11.982-18.09h-13.459l10.155.8-10.042,15.216-.019-.029-.121.161-11.292-16.147,11.357-10.99,8.465,7.792h3.3l-11.769-10.99-13.01,14.188,11.554,18-16.51,21.967,18.021.2-13.515-2.379,13.515-17.439,11.507,19.819-11.507,17.24-13.065-14.242h-4.956Zm514,0h0l18.021,20.781,16.463-23.779-6.029-8.312-9.05-13.763,11.982-18.09h-13.458l10.155.8-10.042,15.216-.019-.029-.121.161-11.292-16.147,11.357-10.99,8.465,7.792h3.3l-11.769-10.99-13.01,14.188,11.554,18-16.51,21.967,18.021.2-13.515-2.379,13.515-17.439,11.507,19.819-11.507,17.24-13.065-14.241h-4.956Zm-800-.968h0l18.021,20.781,16.463-23.779-6.028-8.311-9.051-13.764,11.982-18.09h-13.459l10.156.8L-2145.7-3374.1l-.019-.029-.121.161-11.292-16.147,11.357-10.99,8.465,7.793h3.3l-11.769-10.99-13.009,14.188,11.553,18-16.51,21.967,18.021.2-13.515-2.38,13.515-17.439,11.507,19.819-11.507,17.24-13.065-14.241h-4.957Zm-56,0h0l18.021,20.781,16.463-23.779-6.029-8.311-9.051-13.764,11.982-18.09h-13.458l10.155.8L-2201.7-3374.1l-.019-.029-.121.161-11.292-16.147,11.357-10.99,8.465,7.793h3.3l-11.769-10.99-13.01,14.188,11.554,18-16.51,21.967,18.021.2-13.515-2.38,13.515-17.439,11.508,19.819-11.507,17.24-13.065-14.241h-4.956Zm281-.967h0l18.021,20.781,16.463-23.779-6.029-8.311-9.05-13.763,11.982-18.09h-13.459l10.155.8-10.042,15.215-.019-.029-.121.161-11.292-16.147,11.357-10.99,8.465,7.793h3.3l-11.769-10.991-13.01,14.188,11.554,18-16.51,21.967,18.021.2-13.515-2.38,13.515-17.439,11.507,19.819-11.507,17.239-13.065-14.241h-4.956Zm-168,0h0l18.021,20.781,16.463-23.779-6.03-8.311-9.05-13.763,11.981-18.09h-13.458l10.155.8-10.042,15.215-.019-.029-.121.161-11.292-16.147,11.357-10.99,8.466,7.793h3.3l-11.769-10.991-13.009,14.188,11.554,18-16.51,21.967,18.021.2-13.515-2.38,13.515-17.439,11.507,19.819-11.507,17.239-13.065-14.241h-4.956Zm-171,0h0l18.021,20.781,16.463-23.779-6.03-8.311-9.05-13.763,11.981-18.09h-13.458l10.155.8-10.042,15.215-.019-.029-.121.161-11.292-16.147,11.357-10.99,8.466,7.793h3.3l-11.769-10.991-13.01,14.188,11.554,18-16.51,21.967,18.021.2-13.515-2.38,13.515-17.439,11.507,19.819-11.507,17.239-13.065-14.241h-4.956Zm1085-1.936h0l18.021,20.781,16.463-23.779-6.029-8.311-9.05-13.763,11.982-18.09h-13.458l10.155.8L-1174.7-3377l-.019-.029-.121.161-11.292-16.147,11.357-10.99,8.465,7.792h3.3l-11.769-10.99-13.01,14.188,11.554,18-16.51,21.968,18.021.2-13.515-2.379,13.515-17.439,11.507,19.819-11.507,17.24-13.065-14.242h-4.956Zm-800-.968h0l18.021,20.781,16.463-23.779-6.028-8.31-9.05-13.764,11.982-18.09h-13.46l10.156.8-10.043,15.215-.019-.029-.12.161-11.292-16.147,11.357-10.99,8.465,7.793h3.3l-11.769-10.991-13.009,14.188,11.553,18-16.51,21.968,18.021.2-13.515-2.38,13.515-17.439,11.507,19.819-11.507,17.24-13.064-14.242h-4.957Zm-56,0h0l18.021,20.781,16.463-23.779-6.029-8.31-9.051-13.764,11.982-18.09h-13.459l10.155.8-10.042,15.215-.019-.029-.121.161-11.292-16.147,11.357-10.99,8.465,7.793h3.3l-11.769-10.991-13.01,14.188,11.554,18-16.51,21.968,18.021.2-13.515-2.38,13.515-17.439,11.507,19.819-11.507,17.24-13.065-14.242h-4.956Zm1132.669,57.556h-13.188l7.539-9.728,5.647,9.727Zm-167.752,0h-18.435l10.539-13.6,7.895,13.6Zm-52.315,0h-22.371l12.789-16.5,9.581,16.5Zm-56,0h-22.371l12.789-16.5,9.581,16.5Zm-59.685,0h-18.435l10.539-13.6,7.9,13.6Zm-57.563,0h-17.123l9.789-12.632,7.333,12.63Zm-56,0h-17.124l9.789-12.632,7.333,12.63Zm-57.438,0h-18.435l10.539-13.6,7.9,13.6Zm-61.562,0h-17.122l9.789-12.631,7.333,12.629Zm-56,0h-17.122l9.788-12.631,7.333,12.629Zm-62.936,0h-.887l.433-.418.453.417Zm-49.065,0h-17.122l9.788-12.631,7.333,12.629Zm-56,0h-17.122l9.789-12.631,7.333,12.629Zm-115,0h-17.122l9.788-12.631,7.333,12.629Zm-56,0h-17.122l9.789-12.631,7.333,12.629ZM-807-3330.642h0l-13.235-2.33L-807-3350.052v19.408Zm0-24.2,0,0-11.132-15.917L-807-3381.531v26.694Zm-284.841-42.353h0l-11.24-16.072h12.205l9.217.726-10.042,15.215-.019-.029-.12.16Zm-168,0h0l-11.24-16.072h12.205l9.217.726-10.042,15.215-.019-.029-.12.16Zm-171,0h0l-11.24-16.072h12.205l9.217.726-10.042,15.215-.019-.029-.12.16Zm-461-.968h0l-10.563-15.1h20.587l-9.883,14.973-.019-.029-.12.16Zm-56,0h0l-10.563-15.1h20.586l-9.882,14.973-.019-.029-.12.16Zm-112,0h0l-10.563-15.1h20.587l-9.883,14.973-.019-.029-.12.16Zm-56,0h0l-10.563-15.1h20.586l-9.882,14.973-.019-.029-.12.16Zm-115,0h0l-10.563-15.1h20.587l-9.883,14.973-.019-.029-.12.16Zm-56,0h0l-10.563-15.1h20.586l-9.882,14.973-.019-.029-.12.16Zm283.12-1.323h0l-12.643-13.782h21.844l-9.2,13.781Z" transform="translate(552.869 4293.39) rotate(45)" fill="rgba(46,46,46,0.3)"/>
    <g id="Group_44" data-name="Group 44" transform="translate(372.344 403.655)">
      <rect id="Rectangle_36" data-name="Rectangle 36" width="1109" height="120" transform="translate(958.25 64.069) rotate(45)" fill="rgba(46,46,46,0.3)"/>
      <path id="Subtraction_7" data-name="Subtraction 7" d="M-1495.468-3275.264h0l-9.9,0-5.971-9.08,11.982-18.089h-13.458l10.155.8-10.042,15.215-.019-.029-.121.161-11.292-16.146,11.357-10.991,8.466,7.793h3.3l-11.77-10.991-13.009,14.188,11.554,18-6.893,9.172h-9.216l7.083-10.231-6.029-8.31-9.05-13.764,11.982-18.09h-13.458l10.155.8-10.042,15.216-.019-.029-.121.161-11.292-16.147,11.357-10.99,8.466,7.793h3.3l-11.77-10.991-13.009,14.188,11.554,18-16.509,21.967,18.021.2-13.515-2.379,13.515-17.44,11.508,19.819-6.829,10.231h-11.108l-6.636-7.233h-4.955l6.272,7.233h-5.988l-7.88-11.984,11.982-18.09h-13.459l10.156.8-10.043,15.215-.019-.029-.121.161-11.292-16.147,11.357-10.989,8.465,7.792h3.3l-11.769-10.991-13.009,14.188,11.553,18-9.076,12.076h-9.583l4.535-6.847h-13.458l10.155.8-3.992,6.049h-12.693l-4.789-6.847,11.357-10.991,8.466,7.793h3.3l-11.769-10.991-13.009,14.188,4.4,6.847h-9.068l-7.88-11.984,11.982-18.09h-13.458l10.155.8-10.042,15.215-.019-.029-.121.161-11.292-16.147,11.357-10.989,8.466,7.792h3.3l-11.769-10.991-13.009,14.188,11.554,18-9.076,12.076h-9.033l7.083-10.231-6.028-8.31-9.051-13.764,11.982-18.09h-13.459l10.156.8-10.043,15.216-.019-.029-.121.161-11.292-16.147,11.357-10.99,8.465,7.793h3.3l-11.769-10.991-13.009,14.188,11.553,18-16.51,21.967,18.021.2-13.515-2.379,13.515-17.44,11.507,19.819-6.829,10.231h-11.107l-6.636-7.233h-4.956l6.272,7.233h-9.9l-5.971-9.08,11.982-18.089h-13.459l10.155.8-10.042,15.215-.019-.029-.121.161-11.292-16.146,11.357-10.991,8.465,7.793h3.3l-11.769-10.991-13.01,14.188,11.554,18-6.893,9.172h-9.216l7.083-10.231-6.029-8.31-9.05-13.764,11.982-18.09h-13.459l10.155.8-10.042,15.216-.019-.029-.121.161-11.292-16.147,11.357-10.99,8.465,7.793h3.3l-11.769-10.991-13.01,14.188,11.554,18-16.51,21.967,18.021.2-13.515-2.379,13.515-17.44,11.507,19.819-6.829,10.231h-11.107l-6.636-7.233h-4.956l6.272,7.233H-1731l-5.335-8.113,11.982-18.089h-13.459l10.156.8-10.043,15.216-.019-.029-.121.161-11.292-16.146,11.357-10.991,8.465,7.793h3.3l-11.769-10.991-13.009,14.188,11.553,18-6.167,8.206h-9.929l1.972-2.977h-13.458l10.155.8-1.437,2.178h-17.954l-2.082-2.977,11.357-10.99,8.466,7.794h3.3l-11.769-10.992-13.009,14.188,1.911,2.977H-1787l-5.334-8.113,11.982-18.089h-13.458l10.155.8-10.042,15.216-.019-.029-.121.161-11.292-16.146,11.357-10.991,8.466,7.793h3.3l-11.769-10.991-13.009,14.188,11.554,18-6.167,8.206h-11.942l7.083-10.231-6.028-8.31-9.051-13.764,11.982-18.09h-13.459l10.156.8-10.043,15.216-.019-.029-.121.161-11.292-16.147,11.357-10.99,8.465,7.793h3.3l-11.769-10.991-13.009,14.188,11.553,18-16.51,21.967,18.021.2-13.515-2.379,13.515-17.44,11.507,19.819-6.829,10.231h-11.107l-6.636-7.233h-4.956l6.272,7.233h-9.9l-5.971-9.08,11.982-18.089h-13.459l10.155.8-10.042,15.215-.019-.029-.121.161-11.292-16.146,11.357-10.991,8.465,7.793h3.3l-11.769-10.991-13.01,14.188,11.554,18-6.893,9.172h-9.216l7.083-10.231-6.029-8.31-9.05-13.764,11.982-18.09h-13.459l10.155.8-10.042,15.216-.019-.029-.121.161-11.292-16.147,11.357-10.99,8.465,7.793h3.3l-11.769-10.991-13.01,14.188,11.554,18-16.51,21.967,18.021.2-13.515-2.379,13.515-17.44,11.507,19.819-6.829,10.231h-11.107l-6.636-7.233h-4.956l6.272,7.233H-2311v-120h30.42l-16.161,21.5,18.02.2-13.515-2.379,13.515-17.44,11.508,19.819-11.508,17.24-13.065-14.242h-4.955l18.021,20.781,16.463-23.779-6.029-8.311-8.807-13.393h16.677l-4.369,4.765,11.554,18-16.509,21.966,18.02.2-13.515-2.381,13.515-17.439,11.508,19.82-11.508,17.24-13.065-14.242h-4.955l18.021,20.781,16.463-23.778-6.029-8.312-9.051-13.763,11.982-18.09h-13.458l10.155.8-10.042,15.216-.019-.029-.12.16-11.292-16.147,4.924-4.764h13.195l1.7,1.569h3.3l-1.68-1.569h17.106l-16.161,21.5,18.021.2-13.515-2.379,13.515-17.44,11.507,19.819-11.507,17.24-13.064-14.242h-4.956l18.021,20.781,16.463-23.779-6.028-8.311-8.806-13.393h19.563l-5.257,5.733,11.554,18-16.51,21.966,18.021.2-13.515-2.381,13.515-17.439,11.508,19.82-11.508,17.24-13.065-14.243h-4.955l18.021,20.781,16.463-23.778-6.029-8.312-9.051-13.763,11.982-18.089h-13.459l10.155.8-10.042,15.215-.019-.029-.121.161-11.292-16.146,5.924-5.733h11.145l2.754,2.535h3.3l-2.715-2.535h12.128l5.874,6.773,4.69-6.773h16.5l-5.256,5.733,11.553,18-16.51,21.966,18.021.2-13.515-2.381,13.516-17.439,11.507,19.82-11.507,17.24-13.065-14.243h-4.956l18.021,20.781,16.463-23.778-6.028-8.312-9.05-13.763,11.981-18.089h-13.459l10.156.8-10.043,15.215-.019-.029-.121.161-11.292-16.146,5.924-5.733h11.144l2.754,2.535h3.3l-2.715-2.535h19.143l-16.161,21.5,18.02.2-13.515-2.379,13.515-17.44,11.508,19.819-11.508,17.24-13.065-14.242h-4.955l18.021,20.781,16.463-23.779-6.029-8.311-8.807-13.393h16.677l-4.369,4.765,11.554,18-16.509,21.966,18.02.2-13.515-2.381,13.515-17.439,11.508,19.82-11.508,17.24-13.065-14.242h-4.955l18.021,20.781,16.463-23.778-6.029-8.312-9.051-13.763,11.982-18.09h-13.458l10.155.8-10.042,15.216-.019-.029-.12.16-11.292-16.147,4.924-4.764h13.195l1.7,1.569h3.3l-1.68-1.569h17.106l-16.161,21.5,18.021.2-13.515-2.379,13.515-17.44,11.507,19.819-11.507,17.24-13.064-14.242h-4.956l18.021,20.781,16.463-23.779-6.028-8.311-8.806-13.393h16.013l-1.707,1.861,11.554,18-16.51,21.967,18.021.2-13.515-2.379,13.515-17.44,11.507,19.819-11.507,17.24-13.065-14.242h-4.956l18.021,20.781,16.463-23.779-6.029-8.311-9.05-13.763,11.982-18.09h-13.459l10.155.8-10.042,15.216-.019-.029-.12.161-11.292-16.147,1.923-1.862h33.972l2.518,2.9,2.01-2.9h15.632l-1.707,1.861,11.553,18-16.51,21.967,18.021.2-13.515-2.379,13.515-17.44,11.507,19.819-11.507,17.24-13.065-14.242h-4.956l18.021,20.781,16.463-23.779-6.028-8.311-9.051-13.763,11.982-18.09h-13.459l10.156.8-10.043,15.216-.019-.029-.121.161-11.292-16.147,1.924-1.862h34.631l-16.161,21.5,18.021.2-13.515-2.379,13.515-17.44,11.507,19.819-11.507,17.24-13.066-14.242h-4.955l18.021,20.781,16.463-23.779-6.029-8.311-8.807-13.393h16.677l-4.369,4.765,11.554,18-16.509,21.966,18.021.2-13.515-2.381,13.515-17.439,11.507,19.82-11.507,17.24-13.066-14.242h-4.955l18.021,20.781,16.463-23.778-6.029-8.312-9.051-13.763,11.982-18.09h-13.458l10.155.8-10.042,15.216-.019-.029-.121.16-11.292-16.147,4.924-4.764h13.195l1.7,1.569h3.3l-1.68-1.569h17.107l-16.161,21.5,18.021.2-13.515-2.379,13.515-17.44,11.507,19.819-11.507,17.24-13.064-14.242h-4.956l18.021,20.781,16.463-23.779-6.028-8.311-8.807-13.393h23.45l-6.144,6.7,11.554,18-16.51,21.967,18.021.2-13.515-2.38,13.515-17.439,11.507,19.819-11.507,17.239-13.065-14.24h-4.956l18.021,20.78,16.463-23.779-6.029-8.311-9.05-13.763,11.982-18.09h-13.459l10.155.8-10.042,15.214-.019-.029-.121.161-11.292-16.147,6.925-6.7h9.092l3.806,3.5h3.3l-3.751-3.5h156.116l-6.144,6.7,11.554,18-16.51,21.967,18.021.2-13.515-2.38,13.515-17.439,11.507,19.819-11.507,17.239-13.065-14.24h-4.956l18.021,20.78,16.463-23.779-6.029-8.311-9.05-13.763,11.982-18.09h-13.459l10.155.8-10.042,15.214-.019-.029-.121.161-11.292-16.147,6.925-6.7h9.092l3.806,3.5h3.3l-3.751-3.5h153.117l-6.144,6.7,11.554,18-16.509,21.967,18.021.2-13.515-2.38,13.515-17.439,11.508,19.819-11.508,17.239-13.065-14.24h-4.955l18.021,20.78,16.463-23.779-6.029-8.311-9.05-13.763,11.982-18.09h-13.458l10.155.8-10.042,15.214-.019-.029-.121.161-11.292-16.147,6.925-6.7h9.092l3.806,3.5h3.3l-3.751-3.5h24.452l-15.435,20.536,18.021.2-13.515-2.381,13.515-17.439,11.507,19.82-11.507,17.24-13.065-14.243h-4.955l18.021,20.781,16.463-23.778-6.029-8.312-8.17-12.426h15.153l-3.482,3.8,11.554,18-16.51,21.968,18.021.2-13.515-2.38,13.515-17.438,11.507,19.818-11.507,17.239-13.065-14.241h-4.955l18.021,20.781,16.463-23.779-6.029-8.31-9.05-13.765,11.982-18.09h-13.458l10.155.8-10.042,15.217-.019-.029-.12.161-11.292-16.148,3.924-3.8h15.246l.652.6h3.3l-.643-.6h15.343l-15.435,20.536,18.021.2-13.515-2.381,13.515-17.439,11.507,19.82-11.507,17.24-13.064-14.243h-4.956l18.021,20.781,16.463-23.778-6.028-8.312-8.17-12.426h18.039l-4.369,4.765,11.554,18-16.51,21.966,18.021.2-13.515-2.381,13.515-17.439,11.507,19.82-11.507,17.24-13.065-14.242h-4.955l18.021,20.781,16.463-23.778-6.029-8.312-9.05-13.763,11.982-18.09h-13.459l10.155.8-10.042,15.216-.019-.029-.12.16-11.292-16.147,4.924-4.764h13.195l1.7,1.569h3.3l-1.68-1.569h11.931l5.035,5.806,4.02-5.806h16.285l-4.369,4.765,11.553,18-16.51,21.966,18.021.2-13.515-2.381,13.515-17.439,11.507,19.82-11.507,17.24-13.065-14.242h-4.956l18.021,20.781,16.463-23.778-6.028-8.312-9.051-13.763,11.982-18.09h-13.459l10.156.8-10.043,15.216-.019-.029-.121.16-11.292-16.147,4.924-4.764h13.195l1.7,1.569h3.3l-1.68-1.569h17.381l-15.435,20.536,18.021.2-13.515-2.381,13.515-17.439,11.507,19.82-11.507,17.24-13.065-14.243h-4.955l18.021,20.781,16.463-23.778-6.029-8.312-8.17-12.426h15.153l-3.482,3.8,11.554,18-16.51,21.968,18.021.2-13.515-2.38,13.515-17.438,11.507,19.818-11.507,17.239-13.065-14.241h-4.955l18.021,20.781,16.463-23.779-6.029-8.31-9.05-13.765,11.982-18.09h-13.458l10.155.8-10.042,15.217-.019-.029-.12.161-11.292-16.148,3.924-3.8h15.246l.652.6h3.3l-.643-.6h15.343l-15.435,20.536,18.021.2-13.515-2.381,13.515-17.439,11.507,19.82-11.507,17.24-13.064-14.243h-4.956l18.021,20.781,16.463-23.778-6.028-8.312-8.17-12.426h14.49l-.819.894,11.554,18-16.51,21.967,18.021.2-13.515-2.38,13.515-17.44,11.507,19.82-11.507,17.239-13.065-14.242h-4.955l18.021,20.781,16.463-23.778-6.029-8.312-9.05-13.763,11.982-18.09h-13.459l10.155.8-10.042,15.216-.019-.029-.12.161-11.292-16.147.923-.894H-1202v17.809l-5.786,6.31,5.786,9.013v16.66l-10.741,14.292,10.741.119v9.385l-5.786-6.307h-4.955L-1202-3315.6v40.33h-272.341l7.083-10.231-6.028-8.31-9.051-13.764,11.982-18.09h-13.459l10.155.8-10.043,15.216-.019-.029-.12.161-11.292-16.147,11.357-10.99,8.465,7.793h3.3l-11.769-10.991-13.009,14.188,11.553,18-16.51,21.967,18.021.2-13.515-2.379,13.515-17.44,11.507,19.819-6.829,10.231h-11.107l-6.635-7.233h-4.956l6.272,7.233Zm-289.274-45.943,18.021,20.781,16.463-23.78-6.029-8.311-9.05-13.763,11.982-18.09h-13.458l10.155.8-10.042,15.216-.019-.029-.121.161-11.292-16.147,11.357-10.989,8.466,7.792h3.3l-11.769-10.991-13.009,14.188,11.554,18-16.51,21.967,18.021.2-13.515-2.38,13.515-17.439,11.507,19.819-11.507,17.24-13.065-14.24Zm-400-1.937h0l18.021,20.781,16.463-23.779-6.029-8.31-9.051-13.764,11.982-18.09h-13.459l10.155.8-10.042,15.216-.019-.029-.121.161-11.292-16.148,11.357-10.99,8.465,7.793h3.3l-11.769-10.991-13.01,14.188,11.554,18-16.51,21.967,18.021.2-13.515-2.38,13.515-17.438,11.508,19.818-11.508,17.24-13.065-14.242h-4.956Zm801-.968h0l18.021,20.781,16.463-23.779-6.029-8.31-9.05-13.763,11.982-18.091h-13.459l10.155.8-10.042,15.215-.019-.029-.12.162-11.292-16.148,11.357-10.99,8.465,7.793h3.3l-11.769-10.99-13.009,14.187,11.554,18-16.51,21.969,18.021.2-13.515-2.379,13.515-17.44,11.507,19.819-11.507,17.24-13.065-14.241h-4.956Zm-230-.967,18.021,20.781,16.463-23.779-6.029-8.311-9.05-13.763,11.982-18.09h-13.458l10.155.8-10.042,15.214-.019-.029-.121.161-11.292-16.147,11.357-10.99,8.466,7.792h3.3l-11.769-10.989-13.009,14.187,11.554,18-16.51,21.969,18.021.2-13.515-2.38,13.515-17.439,11.507,19.819-11.507,17.24-13.065-14.241Zm-400-1.936h0l18.021,20.781,16.463-23.778-6.029-8.312-9.05-13.763,11.982-18.089h-13.459l10.155.8-10.042,15.216-.019-.029-.12.161-11.292-16.146,11.357-10.991,8.465,7.794h3.3l-11.769-10.992-13.01,14.188,11.554,18-16.51,21.966,18.021.2-13.515-2.381,13.515-17.439,11.507,19.82-11.507,17.24-13.065-14.243h-4.956Zm504.984,51.75h-9.251l5.289-6.825,3.962,6.823Zm-52.315,0h-13.187l7.539-9.728,5.647,9.727Zm-56,0h-13.187l7.539-9.728,5.648,9.727Zm-59.686,0h-9.251l5.289-6.825,3.961,6.823Zm-57.562,0h-7.94l4.539-5.857,3.4,5.856Zm-56,0h-7.94l4.539-5.857,3.4,5.856Zm-57.438,0h-9.251l5.289-6.825,3.961,6.823Zm645.758-57h0l-6.235-1.1,6.236-8.047v9.144Zm0-32.972,0,0-4.132-5.908,4.134-4v9.911Z" transform="translate(191.56 4099.007) rotate(45)" fill="rgba(255,255,255,0.2)"/>
    </g>
    <path id="Subtraction_8" data-name="Subtraction 8" d="M-977.884-3276.264l-12.2,0-.051-.073,11.356-10.99,8.466,7.793h3.3l-11.77-10.99-13.009,14.188.047.073h-9.173l-3.425-5.209,11.982-18.09h-13.459l10.156.8-10.042,15.215-.019-.03-.121.162-11.291-16.146,11.356-10.99,8.466,7.793h3.3l-11.77-10.99-13.009,14.188,11.553,18-3.985,5.3h-12.114l5.073-7.327-6.029-8.311-9.05-13.764,11.982-18.09h-13.459l10.155.8-10.042,15.216-.019-.03-.121.161-11.292-16.147,11.356-10.99,8.466,7.793h3.3l-11.77-10.99-13.009,14.188,11.554,18-16.509,21.968,18.021.2-13.515-2.38,13.515-17.439,11.506,19.82-4.891,7.327h-15.708l-3.973-4.33h-4.955l3.755,4.33h-9.289l-4.062-6.177,11.982-18.09h-13.459l10.156.8-10.042,15.215-.019-.029-.121.161-11.291-16.147,11.356-10.99,8.466,7.793h3.3l-11.77-10.99-13.009,14.188,11.553,18-4.712,6.27h-9.387l5.073-7.327-6.028-8.311-9.05-13.764,11.982-18.09h-13.459l10.156.8-10.042,15.216-.019-.03-.121.161-11.291-16.147,11.356-10.99,8.466,7.793h3.3l-11.77-10.99-13.009,14.188,11.553,18-16.509,21.968,18.021.2-13.516-2.38,13.516-17.439,11.506,19.82-4.891,7.327h-15.708l-3.973-4.33h-4.955l3.755,4.33h-374.684l6.413-9.262-6.029-8.312-9.051-13.764,11.982-18.089h-13.458l10.154.8-10.042,15.214-.019-.03-.121.161-11.292-16.146,11.356-10.992,8.466,7.794h3.3l-11.77-10.99-13.009,14.188,11.554,18-16.509,21.967,18.021.2-13.515-2.38,13.515-17.44,11.507,19.821-6.183,9.263h-12.641l-5.748-6.265h-4.955l5.433,6.265H-1512l-5.335-8.112,11.981-18.091h-13.459l10.156.8-10.042,15.216-.019-.03-.122.162-11.291-16.147,11.356-10.99,8.466,7.792h3.3l-11.77-10.99-13.009,14.187,11.553,18-6.167,8.207h-9.271l6.412-9.262-6.028-8.312-9.05-13.764,11.981-18.089h-13.459l10.156.8-10.042,15.214-.019-.03-.122.161-11.291-16.146,11.356-10.992,8.466,7.794h3.3l-11.77-10.99-13.009,14.188,11.553,18-16.509,21.967,18.021.2-13.516-2.38,13.516-17.44,11.507,19.821-6.183,9.263h-12.641l-5.748-6.265h-4.955l5.433,6.265h-5.786l-7.244-11.015,11.983-18.091h-13.46l10.156.8-10.042,15.216-.02-.03-.121.161-11.291-16.147,11.356-10.99,8.466,7.793h3.3l-11.769-10.99-13.01,14.187,11.554,18-8.348,11.108h-9.669l3.894-5.879h-13.459l10.155.8-3.353,5.081h-14.01l-4.111-5.879,11.356-10.99,8.466,7.793h3.3l-11.771-10.991-13.008,14.189,3.774,5.879h-9.082l-7.244-11.015,11.982-18.091h-13.459l10.155.8-10.042,15.216-.019-.03-.121.161-11.292-16.147,11.356-10.99,8.466,7.793h3.3l-11.771-10.99-13.008,14.187,11.553,18-8.348,11.108h-9.09l6.413-9.262-6.029-8.312-9.05-13.764,11.982-18.089h-13.459l10.155.8-10.042,15.214-.019-.03-.121.161-11.293-16.146,11.356-10.992,8.467,7.794h3.3l-11.77-10.99-13.009,14.188,11.554,18-16.51,21.967,18.021.2-13.515-2.38,13.515-17.44,11.506,19.821-6.182,9.263h-12.641l-5.748-6.265h-4.955l5.433,6.265H-1680l-5.335-8.112,11.982-18.091h-13.459l10.156.8-10.042,15.216-.019-.03-.121.162-11.291-16.147,11.356-10.99,8.466,7.792h3.3l-11.771-10.99-13.008,14.187,11.553,18-6.167,8.207h-9.272l6.412-9.262-6.028-8.312-9.05-13.764,11.982-18.089h-13.459l10.156.8-10.042,15.214-.019-.03-.121.161-11.291-16.146,11.356-10.992,8.466,7.794h3.3l-11.77-10.99-13.008,14.188,11.553,18-16.509,21.967,18.021.2-13.516-2.38,13.516-17.44,11.507,19.821-6.183,9.263h-12.641l-5.748-6.265h-4.956l5.433,6.265h-11.33l-4.7-7.146,11.982-18.088h-13.459l10.155.8-10.042,15.214-.019-.028-.122.161-11.291-16.146,11.356-10.992,8.466,7.794h3.3l-11.77-10.991-13.01,14.189,11.554,18-5.439,7.238h-10.014l1.33-2.008h-13.459l10.155.8-.8,1.211h-19.271l-1.4-2.008,11.356-10.992,8.466,7.793h3.3l-11.77-10.99-13.009,14.188,1.289,2.008h-9.142l-4.7-7.146,11.982-18.088h-13.459l10.155.8-10.042,15.214-.019-.028-.121.161-11.291-16.146,11.356-10.992,8.466,7.794h3.3l-11.77-10.991-13.009,14.189,11.553,18-5.439,7.238h-12l6.413-9.262-6.029-8.312-9.05-13.764,11.982-18.089h-13.459l10.155.8-10.042,15.214-.019-.03-.121.161-11.293-16.146,11.356-10.992,8.467,7.794h3.3l-11.77-10.99-13.009,14.188,11.554,18-16.51,21.967,18.021.2-13.515-2.38,13.515-17.44,11.506,19.821-6.183,9.263h-12.641l-5.748-6.265h-4.955l5.433,6.265H-1851l-5.335-8.112,11.982-18.091h-13.459l10.156.8-10.042,15.216-.019-.03-.121.162-11.291-16.147,11.356-10.99,8.466,7.792h3.3l-11.77-10.99-13.008,14.187,11.553,18-6.167,8.207h-9.272l6.412-9.262-6.028-8.312-9.05-13.764,11.982-18.089h-13.459l10.156.8-10.042,15.214-.019-.03-.121.161-11.291-16.146,11.356-10.992,8.466,7.794h3.3l-11.77-10.99-13.008,14.188,11.553,18-16.509,21.967,18.021.2-13.516-2.38,13.516-17.44,11.507,19.821-6.183,9.263h-12.641l-5.748-6.265h-4.956l5.433,6.265H-2311v-120h24.445l.323.5-16.51,21.968,18.022.2-13.516-2.38,13.516-17.439,11.507,19.819-11.507,17.239-13.065-14.242h-4.956l18.022,20.782,16.462-23.779-6.029-8.311-9.049-13.763.4-.6h17.412l-5.256,5.733,11.553,18-16.51,21.968,18.022.2-13.516-2.379,13.516-17.439,11.507,19.819-11.507,17.24-13.065-14.242h-4.956l18.022,20.782,16.462-23.78-6.029-8.311-9.049-13.763,11.98-18.089h-13.458l10.155.8-10.041,15.214-.019-.029-.123.161-11.29-16.146,5.924-5.733h11.144l2.754,2.535h3.3l-2.715-2.535h18.168l.323.5-16.511,21.968,18.021.2-13.515-2.38,13.515-17.439,11.508,19.819-11.508,17.239-13.064-14.242h-4.956l18.021,20.782,16.464-23.779-6.029-8.311-9.052-13.763.4-.6h20.3l-6.144,6.7,11.554,18-16.51,21.968,18.021.2-13.515-2.38,13.515-17.439,11.507,19.819-11.507,17.239-13.065-14.242h-4.956l18.021,20.782,16.463-23.779-6.029-8.311-9.051-13.764,11.982-18.09h-13.459l10.155.8-10.042,15.216-.019-.03-.121.161-11.291-16.147,6.923-6.7h9.094l3.806,3.5h3.3l-3.751-3.5h12.324l6.713,7.741,5.359-7.741h16.719l-6.144,6.7,11.554,18-16.508,21.968,18.02.2-13.514-2.38,13.514-17.439,11.508,19.819-11.508,17.239-13.066-14.242h-4.955l18.021,20.782,16.464-23.779-6.029-8.311-9.052-13.764,11.982-18.09h-13.458l10.155.8-10.042,15.216-.02-.03-.121.161-11.291-16.147,6.923-6.7h9.094l3.805,3.5h3.3l-3.751-3.5h20.2l.323.5-16.51,21.968,18.021.2-13.515-2.38,13.515-17.439,11.507,19.819-11.507,17.239-13.064-14.242h-4.956l18.021,20.782,16.463-23.779-6.029-8.311-9.05-13.763.4-.6h17.412l-5.256,5.733,11.554,18-16.51,21.968,18.021.2-13.515-2.379,13.515-17.439,11.507,19.819-11.507,17.24-13.065-14.242h-4.955l18.021,20.782,16.463-23.78-6.029-8.311-9.05-13.763,11.981-18.089h-13.458l10.155.8-10.041,15.214-.02-.029-.122.161-11.29-16.146,5.924-5.733h11.144l2.754,2.535h3.3l-2.715-2.535h18.168l.323.5-16.511,21.968,18.022.2-13.516-2.38,13.516-17.439,11.506,19.819-11.506,17.239-13.065-14.242h-4.956l18.022,20.782,16.463-23.779-6.03-8.311-9.05-13.763.4-.6h16.75l-2.594,2.829,11.554,18-16.511,21.968,18.022.2-13.516-2.38,13.515-17.439,11.508,19.82-11.507,17.239-13.065-14.242h-4.956l18.022,20.783,16.462-23.78-6.027-8.311-9.051-13.764,11.982-18.09h-13.458l10.156.8-10.042,15.214-.02-.029-.121.161-11.293-16.148,2.924-2.83h32.133l3.357,3.871,2.68-3.871h15.848l-2.595,2.829,11.554,18-16.508,21.968,18.019.2-13.514-2.38,13.514-17.439,11.507,19.82-11.508,17.239-13.065-14.242h-4.953l18.019,20.783,16.464-23.78-6.028-8.311-9.052-13.764,11.983-18.09h-13.459l10.155.8-10.041,15.214-.021-.029-.121.161-11.292-16.148,2.924-2.83h33.654l.323.5-16.508,21.968,18.021.2-13.516-2.38,13.516-17.439,11.507,19.819-11.507,17.239-13.065-14.242h-4.955l18.021,20.782,16.462-23.779-6.028-8.311-9.05-13.763.4-.6h17.411l-5.256,5.733,11.552,18-16.508,21.968,18.021.2-13.516-2.379,13.516-17.439,11.507,19.819-11.507,17.24-13.065-14.242h-4.955l18.02,20.782,16.462-23.78-6.028-8.311-9.05-13.763,11.981-18.089h-13.459l10.155.8-10.041,15.214-.019-.029-.122.161-11.292-16.146,5.924-5.733h11.145l2.755,2.535h3.3l-2.715-2.535h18.167l.323.5-16.509,21.968,18.021.2-13.516-2.38,13.515-17.439,11.505,19.819-11.505,17.239-13.065-14.242h-4.956l18.021,20.782,16.462-23.779-6.028-8.311-9.05-13.763.4-.6h24.186l-7.031,7.669,11.553,18-16.509,21.968,18.021.2-13.516-2.378,13.516-17.439,11.507,19.817-11.507,17.24-13.065-14.241h-4.956l18.021,20.78,16.462-23.779-6.028-8.31-9.05-13.764,11.982-18.088h-13.459l10.156.8-10.042,15.216-.019-.028-.121.161-11.291-16.146,7.923-7.669h7.042l4.857,4.471h3.3l-4.788-4.471h158.04l-7.031,7.669,11.553,18-16.509,21.968,18.021.2-13.516-2.378,13.516-17.439,11.507,19.817-11.507,17.24-13.065-14.241h-4.956l18.021,20.78,16.462-23.779-6.028-8.31-9.05-13.764,11.982-18.088h-13.459l10.156.8-10.042,15.216-.019-.028-.121.161-11.291-16.146,7.923-7.669h7.042l4.857,4.471h3.3l-4.788-4.471h155.041l-7.031,7.669,11.553,18-16.509,21.968,18.021.2-13.516-2.378,13.516-17.439,11.507,19.817-11.507,17.24-13.065-14.241h-4.955l18.021,20.78,16.462-23.779-6.028-8.31-9.05-13.764,11.981-18.088h-13.459l10.156.8-10.042,15.216-.019-.028-.122.161-11.291-16.146,7.923-7.669h7.042l4.857,4.471h3.3l-4.788-4.471h21.753l2.809,4.375-16.509,21.968,18.021.2-13.516-2.38,13.516-17.439,11.507,19.82-11.507,17.238-13.065-14.242h-4.955l18.021,20.782,16.462-23.778-6.028-8.312-9.05-13.763,2.959-4.468h18.4l-8.806,9.6,11.553,18-16.509,21.968,18.021.2-13.516-2.379,13.516-17.439,11.507,19.819-11.507,17.24-13.065-14.242h-4.955l18.021,20.781,16.462-23.779-6.028-8.312-9.05-13.763,11.981-18.09h-13.459l10.156.8-10.042,15.215-.019-.029-.121.161-11.292-16.146,9.924-9.6h2.939l6.96,6.407h3.3l-6.861-6.407h19.828l2.809,4.375-16.509,21.968,18.021.2-13.515-2.38,13.515-17.439,11.507,19.82-11.507,17.238-13.065-14.242h-4.955l18.021,20.782,16.463-23.778-6.029-8.312-9.05-13.763,2.96-4.468h21.286l-9.693,10.571,11.554,18-16.51,21.968,18.021.2-13.516-2.38,13.516-17.439,11.506,19.82-11.506,17.239-13.066-14.242h-4.956l18.022,20.781,16.462-23.779-6.028-8.311-9.051-13.764,11.982-18.09h-13.46l10.156.8-10.042,15.216-.019-.03-.122.161-11.291-16.147,10.923-10.572h.888l8.011,7.374h3.3l-7.9-7.374h13.114l10.07,11.612,8.039-11.612h17.588l-9.694,10.571,11.554,18-16.509,21.968,18.021.2-13.516-2.38,13.515-17.439,11.507,19.82-11.507,17.239-13.066-14.242h-4.955l18.021,20.781,16.463-23.779-6.029-8.311-9.05-13.764,11.982-18.09h-13.458l10.155.8-10.042,15.216-.019-.03-.121.161-11.291-16.147,10.923-10.572h.888l8.011,7.374h3.3l-7.9-7.374h21.863l2.808,4.375-16.509,21.968,18.021.2-13.516-2.38,13.516-17.439,11.507,19.82-11.507,17.238-13.065-14.242h-4.955l18.021,20.782,16.462-23.778-6.028-8.312-9.05-13.763,2.959-4.468h18.4l-8.806,9.6,11.553,18-16.509,21.968,18.021.2-13.516-2.379,13.516-17.439,11.507,19.819-11.507,17.24-13.065-14.242h-4.955l18.021,20.781,16.462-23.779-6.028-8.312-9.05-13.763,11.981-18.09h-13.459l10.156.8-10.042,15.215-.019-.029-.121.161-11.292-16.146,9.924-9.6h2.939l6.96,6.407h3.3l-6.861-6.407h19.828l2.809,4.375-16.509,21.968,18.021.2-13.515-2.38,13.515-17.439,11.507,19.82-11.507,17.238-13.065-14.242h-4.955l18.02,20.782,16.463-23.778-6.029-8.312-9.051-13.763,2.96-4.468h17.736l-6.144,6.7,11.553,18-16.51,21.968,18.021.2-13.516-2.38,13.516-17.439,11.506,19.819-11.506,17.239-13.066-14.241h-4.956l18.022,20.782,16.462-23.779-6.028-8.311-9.051-13.764,11.982-18.09h-13.46l10.156.8-10.042,15.216-.019-.03-.122.161-11.292-16.147,6.924-6.7h9.092l3.806,3.5h3.3l-3.753-3.5h12.325l6.714,7.742,5.36-7.742h16.719l-6.145,6.7,11.554,18-16.509,21.968,18.02.2-13.515-2.38,13.514-17.439,11.507,19.819-11.507,17.239-13.065-14.241h-4.955l18.02,20.782,16.463-23.779-6.028-8.311-9.051-13.764,11.982-18.09h-13.459l10.156.8-10.042,15.216-.02-.03-.12.161-11.291-16.147,6.924-6.7h9.092l3.806,3.5h3.3l-3.752-3.5h14.719l2.809,4.375-16.509,21.968,18.021.2-13.516-2.38,13.516-17.439,11.507,19.82-11.507,17.238-13.065-14.242h-4.956l18.021,20.782,16.462-23.778-6.029-8.312-9.05-13.763,2.959-4.468h18.4l-8.805,9.6,11.553,18-16.509,21.968,18.021.2-13.516-2.379,13.516-17.439,11.507,19.819-11.507,17.24-13.065-14.242h-4.956l18.021,20.781,16.462-23.779-6.029-8.312-9.05-13.763,11.982-18.09h-13.459l10.156.8-10.042,15.215-.019-.029-.121.162-11.291-16.146,9.923-9.6h2.939l6.96,6.407h3.3l-6.861-6.407h19.827l2.809,4.375-16.51,21.968,18.021.2-13.515-2.38,13.515-17.439,11.506,19.82-11.506,17.238-13.065-14.242h-4.955l18.021,20.782,16.463-23.778-6.029-8.312-9.05-13.763,2.959-4.468h18.4l-8.806,9.6,11.553,18-16.509,21.968,18.021.2-13.516-2.379,13.516-17.439,11.506,19.819-11.506,17.24-13.065-14.242h-4.955l18.021,20.781,16.462-23.779-6.028-8.311-9.05-13.764,11.982-18.09h-13.459l10.156.8-10.042,15.215-.019-.029-.121.161-11.291-16.146,9.923-9.6h2.939l6.96,6.407h3.3l-6.862-6.407H-896.98l-8.806,9.6,11.553,18-16.509,21.968,18.021.2-13.516-2.379,13.516-17.439,11.507,19.819-11.507,17.24-13.065-14.242h-4.955l18.021,20.781,16.462-23.779-6.028-8.311-9.05-13.764,11.982-18.09h-13.459l10.155.8-10.042,15.215-.019-.029-.122.161-11.291-16.146,9.924-9.6h2.939l6.96,6.407h3.3l-6.861-6.407H-728.98l-8.806,9.6,11.553,18-16.509,21.968,18.021.2-13.516-2.379,13.516-17.439,11.506,19.819-11.506,17.24-13.065-14.242h-4.955l18.021,20.781,16.462-23.779-6.028-8.311-9.05-13.764,11.982-18.09h-13.459l10.156.8-10.042,15.215-.019-.029-.122.162-11.291-16.146,9.924-9.6h2.939l6.96,6.407h3.3l-6.861-6.407H-697v59.651l-11.786,12.854,11.554,18-16.51,21.968,16.742.186v7.341h-7.814l-3.973-4.33h-4.955l3.755,4.33h-9.289l-4.062-6.177,11.982-18.09h-13.459l10.156.8-10.042,15.215-.019-.029-.122.162-11.291-16.147,11.356-10.99,8.466,7.793h3.3l-11.77-10.99-13.009,14.188,11.553,18-4.712,6.27h-9.387l5.073-7.327-6.028-8.311-9.05-13.764,11.982-18.09h-13.459l10.156.8-10.042,15.216-.019-.03-.122.161-11.291-16.147,11.356-10.99,8.466,7.793h3.3l-11.77-10.99-13.009,14.188,11.553,18-16.509,21.968,18.021.2-13.516-2.38,13.516-17.439,11.506,19.82-4.891,7.327h-15.708l-3.973-4.33h-4.955l3.755,4.33h-5.381l-5.971-9.08,11.983-18.09h-13.459l10.156.8L-778.7-3287.42l-.02-.03-.121.161-11.291-16.146,11.356-10.99,8.466,7.793h3.3l-11.769-10.991-13.01,14.188,11.554,18-6.893,9.174h-9.842l2.612-3.944h-13.459l10.156.8-2.076,3.145h-16.641l-2.758-3.943,11.356-10.991,8.466,7.793h3.3l-11.771-10.991-13.008,14.188,2.532,3.943h-9.113l-5.97-9.08,11.982-18.09h-13.459l10.156.8L-834.7-3287.42l-.019-.03-.121.161-11.292-16.146,11.356-10.99,8.466,7.793h3.3l-11.771-10.991-13.008,14.188,11.553,18-6.894,9.174h-9.205l5.073-7.327-6.029-8.311-9.05-13.764,11.982-18.09h-13.459l10.155.8-10.042,15.216-.019-.03-.121.161-11.292-16.147,11.356-10.99,8.466,7.793h3.3l-11.77-10.99-13.009,14.188,11.554,18-16.51,21.968,18.021.2-13.515-2.38,13.515-17.439,11.506,19.82-4.891,7.327h-15.708l-3.973-4.33h-4.955l3.755,4.33h-9.289l-4.062-6.177,11.982-18.09h-13.459l10.155.8-10.042,15.215-.019-.029-.122.161-11.291-16.147,11.356-10.99,8.466,7.793h3.3l-11.77-10.99-13.009,14.188,11.553,18-4.712,6.27h-9.387l5.073-7.327-6.028-8.311-9.05-13.764,11.982-18.09h-13.459l10.155.8-10.042,15.216-.019-.03-.122.161-11.291-16.147,11.356-10.99,8.466,7.793h3.3l-11.77-10.99-13.009,14.188,11.553,18-16.509,21.968,18.021.2-13.516-2.38,13.516-17.439,11.507,19.82-4.891,7.327h-15.708l-3.973-4.33h-4.955l3.755,4.33h-10.926l-3.425-5.209,11.982-18.09h-13.459l10.155.8L-949.7-3283.55l-.019-.03-.122.162-11.291-16.146,11.356-10.99,8.466,7.793h3.3l-11.77-10.99-13.01,14.188,11.554,18-3.985,5.3H-965.4l.048-.073h-13.459l.93.073Zm-18.858-43.042,18.022,20.781,16.462-23.779-6.028-8.311-9.05-13.764,11.982-18.089h-13.459l10.156.8-10.042,15.215-.019-.028-.121.161-11.291-16.146,11.356-10.99,8.466,7.793h3.3l-11.77-10.99-13.009,14.188,11.553,18-16.51,21.968,18.022.2-13.516-2.379,13.516-17.439,11.507,19.819-11.507,17.24-13.065-14.242h-4.956Zm-395,0,18.022,20.781,16.462-23.779-6.028-8.312-9.051-13.763,11.982-18.089h-13.46l10.156.8-10.042,15.215-.019-.028-.122.161-11.291-16.146,11.356-10.99,8.466,7.793h3.3l-11.77-10.99-13.009,14.188,11.554,18-16.51,21.968,18.021.2-13.516-2.379,13.516-17.439,11.506,19.819-11.506,17.24-13.066-14.242h-4.956Zm-399-1.935h0l18.022,20.781,16.462-23.778-6.028-8.312-9.05-13.763,11.982-18.089h-13.459l10.155.8-10.042,15.215-.019-.028-.121.161-11.291-16.147,11.356-10.99,8.466,7.793h3.3l-11.77-10.991-13.009,14.188,11.553,18-16.509,21.969,18.022.2-13.516-2.38,13.516-17.439,11.507,19.818L-1772.72-3307l-13.065-14.242h-4.957Zm965-1.935,18.022,20.781,16.462-23.779-6.028-8.311-9.05-13.764,11.982-18.09h-13.459l10.156.8-10.042,15.216-.019-.029-.121.161-11.292-16.146,11.356-10.99,8.466,7.793h3.3l-11.771-10.99-13.008,14.188,11.553,18-16.51,21.968,18.022.2-13.516-2.38,13.516-17.439,11.507,19.819-11.507,17.239-13.065-14.242h-4.956Zm-395,0,18.022,20.781,16.462-23.779-6.028-8.312-9.051-13.763,11.982-18.09h-13.46l10.156.8-10.042,15.216-.019-.029-.122.161-11.292-16.146,11.356-10.99,8.466,7.793h3.3l-11.771-10.99-13.008,14.188,11.553,18-16.51,21.968,18.021.2-13.516-2.38,13.516-17.439,11.506,19.819-11.506,17.239-13.066-14.242h-4.956Zm-970,0,18.021,20.781,16.463-23.779-6.029-8.312-9.051-13.762,11.982-18.09h-13.459l10.155.8-10.042,15.216-.019-.029-.121.161-11.291-16.147,11.356-10.99,8.467,7.793h3.3l-11.77-10.99-13.009,14.187,11.554,18-16.51,21.968,18.021.2-13.515-2.379,13.515-17.439,11.507,19.818-11.507,17.24-13.065-14.242Zm571-1.935h0l18.022,20.781,16.462-23.779-6.028-8.31-9.05-13.764,11.982-18.091h-13.459l10.155.8-10.042,15.216-.019-.03-.121.161-11.292-16.147,11.356-10.99,8.466,7.793h3.3l-11.771-10.99-13.008,14.187,11.553,18-16.509,21.968,18.022.2-13.516-2.38,13.516-17.439,11.507,19.819-11.507,17.24-13.065-14.242h-4.957Zm-400-1.934h0l18.022,20.78,16.462-23.779-6.028-8.31-9.05-13.763,11.982-18.089h-13.458l10.156.8-10.042,15.215-.02-.029-.121.161-11.293-16.146,11.356-10.991,8.466,7.793h3.3l-11.771-10.99-13.008,14.188,11.554,18-16.511,21.968,18.022.2-13.516-2.379,13.515-17.439,11.508,19.819-11.507,17.241-13.065-14.242h-4.957Zm1297.3,50.78h-5.316l3.039-3.921,2.276,3.92Zm-52.316,0h-9.25l5.288-6.824,3.961,6.823Zm-56,0h-9.251l5.289-6.824,3.961,6.823Zm-59.686,0h-5.316l3.039-3.921,2.276,3.92Zm-57.562,0h-4l2.289-2.954,1.714,2.952Zm-56,0h-4l2.289-2.954,1.714,2.952Zm-57.439,0h-5.315l3.039-3.921,2.275,3.92Zm-453.875,0h-7.94l4.539-5.857,3.4,5.856Zm-52.316,0h-11.874l6.788-8.759,5.085,8.758Zm-56,0h-11.875l6.789-8.759,5.085,8.758Zm-59.685,0h-7.941l4.54-5.857,3.4,5.856Zm-57.562,0h-6.627l3.789-4.889,2.837,4.887Zm-56,0h-6.627l3.789-4.889,2.837,4.887Zm-57.438,0h-7.941l4.54-5.857,3.4,5.856ZM-697-3283.818h0l-12.235-2.155L-697-3301.762v17.943Zm0-25.449,0,0-10.132-14.488,10.134-9.807v24.3Zm-676.721-81.923h0l-4.653-5.072h8.04l-3.385,5.072Zm282.879-2.548h0l-1.765-2.524h3.485l-1.579,2.393-.019-.03-.12.16Zm-56,0h0l-1.765-2.524h3.486l-1.58,2.393-.019-.03-.121.16Zm-112,0h0l-1.765-2.524h3.485l-1.58,2.393-.019-.03-.119.16Zm-56,0h0l-1.765-2.524h3.486l-1.579,2.393-.019-.03-.121.16Zm-115,0h0l-1.765-2.524h3.485l-1.58,2.393-.019-.03-.119.16Zm-56,0h0l-1.765-2.524h3.486l-1.579,2.393-.019-.03-.12.16Zm283.122-1.322h0l-1.1-1.2h1.906l-.8,1.2Zm-970,0h0l-1.1-1.2h1.907l-.8,1.2Z" transform="translate(-9.415 4148.893) rotate(45)" fill="rgba(46,46,46,0.3)"/>
    <path id="Subtraction_9" data-name="Subtraction 9" d="M-574.767-3296.263h-10.407l-.113-.155-9.05-13.764,11.982-18.09h-13.458l10.155.8-10.042,15.216-.019-.03-.12.161-11.292-16.147,11.356-10.99,8.466,7.793h3.3l-11.77-10.991-13.009,14.188,11.554,18-10.53,14.012h-9.411l5.817-8.783h-13.459l10.155.8-5.269,7.984h-10.063l-6.142-8.783,11.356-10.991,8.466,7.793h3.3l-11.77-10.99-13.008,14.188,5.638,8.782h-9.027l-.112-.155-9.05-13.764,11.982-18.09h-13.459l10.155.8-10.042,15.216-.019-.03-.122.161-11.291-16.147,11.356-10.99,8.466,7.793h3.3l-11.77-10.991-13.008,14.188,11.553,18-10.53,14.012H-1045.95l-9.076-12.077,11.554-18-13.009-14.188-11.769,10.991h3.3l8.466-7.793,11.357,10.991-11.292,16.147-.121-.161-.019.029-10.043-15.216,10.155-.8H-1069.9l11.982,18.09-7.881,11.983h-9.067l4.4-6.849-13.009-14.187-11.769,10.99h3.3l8.466-7.792,11.357,10.99-4.789,6.848h-12.693l-3.992-6.049,10.155-.8H-1096.9l4.536,6.848h-9.584l-9.076-12.077,11.553-18-13.009-14.188-11.769,10.991h3.3l8.465-7.793,11.357,10.991-11.292,16.147-.121-.161-.019.029-10.043-15.216,10.156-.8H-1125.9l11.982,18.09-7.88,11.983h-10.446l3.775-5.88-13.01-14.188-11.769,10.991h3.3l8.465-7.793,11.357,10.991-4.112,5.879h-14.009l-3.354-5.081,10.156-.8H-1154.9l3.895,5.879h-37.24l3.775-5.88-13.009-14.188-11.769,10.991h3.3l8.465-7.793,11.357,10.991-4.112,5.879h-14.009l-3.354-5.081,10.156-.8h-13.46l3.895,5.879h-9.941l-9.076-12.077,11.554-18-13.009-14.188-11.769,10.991h3.3l8.466-7.793,11.357,10.991-11.292,16.147-.121-.161-.019.029-10.043-15.216,10.155-.8H-1240.9l11.982,18.09-7.881,11.983h-9.067l4.4-6.849-13.009-14.187-11.769,10.99h3.3l8.466-7.792,11.357,10.99-4.789,6.848h-12.693l-3.992-6.049,10.155-.8H-1267.9l4.536,6.848h-9.584l-9.076-12.077,11.553-18-13.009-14.188-11.769,10.991h3.3l8.465-7.793,11.357,10.991-11.292,16.147-.121-.161-.019.029-10.043-15.216,10.156-.8H-1296.9l11.982,18.09-7.88,11.983h-12.932l6.26-9.751-13.009-14.188-11.769,10.991h3.3l8.465-7.793,11.357,10.99-6.82,9.751h-8.746l-5.909-8.953,10.156-.8H-1325.9l6.459,9.751h-19.384l-.654-.713-.764.713h-21.487l6.26-9.751-13.009-14.188-11.769,10.991h3.3l8.465-7.793,11.357,10.99-6.82,9.751h-8.746l-5.909-8.953,10.156-.8h-13.46l6.459,9.751h-9.506l-9.076-12.077,11.554-18-13.01-14.188-11.769,10.991h3.3l8.465-7.793,11.357,10.991-11.292,16.147-.121-.161-.019.029-10.043-15.216,10.156-.8H-1408.9l11.982,18.09-7.881,11.983h-9.067l4.4-6.849-13.01-14.187-11.769,10.99h3.3l8.465-7.792,11.357,10.99-4.789,6.848h-12.693l-3.993-6.049,10.156-.8H-1435.9l4.536,6.848h-9.584l-9.076-12.077,11.553-18-13.009-14.188-11.769,10.991h3.3l8.465-7.793,11.357,10.991-11.292,16.147-.121-.161-.019.029-10.043-15.216,10.156-.8H-1464.9l11.982,18.09-7.88,11.983h-14.656l-7.88-11.984,11.982-18.09h-13.459l10.155.8-10.042,15.216-.019-.03-.121.161-11.292-16.147,11.356-10.991,8.466,7.793h3.3l-11.77-10.991-13.009,14.188,11.554,18-9.076,12.076h-9.583l4.535-6.847h-13.459l10.155.8-3.992,6.049h-12.693l-4.788-6.848,11.356-10.99,8.466,7.793h3.3l-11.77-10.99-13.008,14.188,4.4,6.847h-9.068l-7.88-11.984,11.982-18.09h-13.459l10.155.8-10.042,15.216-.019-.03-.121.161-11.292-16.147,11.356-10.991,8.466,7.793h3.3l-11.77-10.991-13.008,14.188,11.553,18-9.075,12.076h-9.506l6.458-9.75h-13.459l10.155.8-5.907,8.951h-8.748l-6.818-9.75,11.356-10.991,8.466,7.793h3.3l-11.769-10.99-13.009,14.188,6.26,9.75h-21.488l-.763-.712-.653.712h-19.382l6.458-9.75h-13.46l10.156.8-5.907,8.951h-8.749l-6.819-9.75,11.356-10.991,8.466,7.793h3.3l-11.771-10.99-13.008,14.188,6.259,9.75h-12.932l-7.88-11.984,11.982-18.09h-13.459l10.155.8-10.042,15.216-.019-.03-.121.161-11.292-16.147,11.356-10.991,8.466,7.793h3.3l-11.77-10.991-13.009,14.188,11.554,18-9.076,12.076h-9.583l4.535-6.847h-13.459l10.156.8-3.992,6.049h-12.693l-4.788-6.848,11.356-10.99,8.466,7.793h3.3l-11.77-10.99-13.009,14.188,4.4,6.847h-9.068l-7.88-11.984,11.982-18.09h-13.459l10.156.8-10.042,15.216-.019-.03-.121.161-11.291-16.147,11.356-10.991,8.466,7.793h3.3l-11.77-10.991-13.008,14.188,11.552,18-9.075,12.076h-9.942l3.895-5.88h-13.458l10.155.8-3.353,5.08h-14.009l-4.112-5.88,11.356-10.99,8.466,7.793h3.3l-11.77-10.991-13.009,14.188,3.775,5.88h-37.238l3.894-5.88h-13.46l10.156.8-3.353,5.08h-14.009l-4.112-5.88,11.356-10.99,8.466,7.793h3.3l-11.771-10.991-13.008,14.188,3.774,5.88h-10.447l-7.88-11.984,11.982-18.09h-13.459l10.155.8-10.041,15.216-.02-.03-.121.161-11.292-16.147,11.356-10.991,8.466,7.793h3.3l-11.77-10.991-13.009,14.188,11.554,18-9.076,12.076h-9.583l4.535-6.847h-13.459l10.156.8-3.992,6.049h-12.693l-4.788-6.848,11.356-10.99,8.466,7.793h3.3l-11.77-10.99-13.008,14.188,4.4,6.847h-9.068l-7.88-11.984,11.982-18.09h-13.459l10.156.8-10.042,15.216-.019-.03-.121.161-11.291-16.147,11.356-10.991,8.466,7.793h3.3l-11.77-10.991-13.008,14.188,11.552,18-9.075,12.076H-2311v-120h19.922l-1.708,1.862,11.553,18-16.509,21.968,18.021.2-13.516-2.38,13.516-17.439,11.506,19.82L-2279.721-3357l-13.065-14.242h-4.955l18.021,20.782,16.462-23.779-6.029-8.312-9.05-13.764,11.982-18.09h-13.459l10.156.8-10.042,15.216-.019-.03-.121.161-11.292-16.146,1.924-1.862h33.972l2.517,2.9,2.01-2.9h15.632l-1.707,1.862,11.554,18-16.51,21.968,18.021.2-13.516-2.38,13.516-17.439,11.506,19.82L-2223.721-3357l-13.065-14.242h-4.956l18.021,20.782,16.463-23.779-6.03-8.312-9.05-13.764,11.982-18.09h-13.459l10.155.8-10.042,15.216-.019-.03-.121.161-11.292-16.146,1.924-1.862h49.811l-2.344,3.118,18.022.2-13.516-2.379.727-.938h22.37l1.926,3.317-11.507,17.24-13.065-14.242h-4.956l18.021,20.781,16.462-23.779-2.406-3.317h33.586l-1.708,1.862,11.553,18-16.509,21.968,18.021.2-13.516-2.38,13.516-17.439,11.506,19.82L-2108.721-3357l-13.065-14.242h-4.955l18.021,20.782,16.462-23.779-6.029-8.312-9.05-13.764,11.982-18.09h-13.459l10.156.8-10.042,15.216-.019-.03-.121.161-11.292-16.146,1.924-1.862h33.972l2.517,2.9,2.01-2.9h15.632l-1.707,1.862,11.554,18-16.51,21.968,18.021.2-13.516-2.38,13.516-17.439,11.506,19.82L-2052.721-3357l-13.065-14.242h-4.956l18.021,20.782,16.463-23.779-6.029-8.312-9.051-13.764,11.982-18.09h-13.459l10.155.8-10.042,15.216-.019-.03-.121.161-11.292-16.146,1.924-1.862h76.627l-11.137,16.687-13.065-14.242h-4.956l18.021,20.781,16.079-23.226h28.563l-1.707,1.862,11.553,18-16.509,21.968,18.021.2-13.516-2.38,13.516-17.439,11.506,19.82L-1940.72-3357l-13.065-14.242h-4.955l18.021,20.782,16.462-23.779-6.028-8.312-9.05-13.764,11.982-18.09h-13.46l10.156.8-10.042,15.216-.019-.03-.122.161-11.291-16.146,1.924-1.862h33.972l2.517,2.9,2.01-2.9h15.632l-1.707,1.862,11.554,18-16.51,21.968,18.021.2-13.515-2.38,13.515-17.439,11.506,19.82L-1884.721-3357l-13.065-14.242h-4.955l18.021,20.782,16.463-23.779-6.029-8.312-9.05-13.764,11.982-18.09h-13.458l10.155.8-10.042,15.216-.019-.03-.12.161-11.292-16.146,1.924-1.862h852.161l1.924,1.862-11.292,16.147-.12-.161-.019.029L-1061.6-3413.6l10.156-.8h-13.46l11.982,18.09-9.051,13.763-6.028,8.312,16.463,23.779,18.021-20.781h-4.956L-1051.537-3357l-11.508-17.24,11.508-19.819,13.515,17.439-13.515,2.379,18.021-.2-16.51-21.968,11.553-18-1.707-1.862h15.633l2.01,2.9,2.517-2.9h33.971l1.924,1.862-11.292,16.147-.12-.161-.019.029L-1005.6-3413.6l10.156-.8H-1008.9l11.982,18.09-9.051,13.763-6.028,8.312,16.463,23.779,18.021-20.781h-4.955L-995.538-3357l-11.507-17.24,11.507-19.819,13.515,17.439-13.515,2.379,18.021-.2-16.51-21.968,11.554-18-1.707-1.862h28.563l16.079,23.225,18.021-20.781h-4.955l-13.065,14.242-11.138-16.686h76.627l1.924,1.862-11.292,16.147-.121-.161-.019.029L-893.6-3413.6l10.156-.8H-896.9l11.982,18.09-9.05,13.763-6.028,8.312,16.463,23.779,18.021-20.781h-4.956L-883.537-3357l-11.507-17.24,11.507-19.819,13.515,17.439-13.515,2.379,18.021-.2-16.51-21.968,11.553-18-1.707-1.862h15.633l2.01,2.9,2.517-2.9h33.971l1.924,1.862-11.292,16.147-.121-.161-.019.029L-837.6-3413.6l10.155-.8H-840.9l11.982,18.09-9.051,13.763-6.028,8.312,16.463,23.779,18.021-20.781h-4.955L-827.537-3357l-11.507-17.24,11.507-19.819,13.515,17.439-13.515,2.379,18.021-.2-16.51-21.968,11.554-18-1.707-1.862h33.585l-2.406,3.317,16.463,23.779,18.021-20.781h-4.955l-13.065,14.241-11.507-17.24,1.926-3.317h22.37l.727.938-13.515,2.379,18.021-.2-2.343-3.117h49.812l1.924,1.862-11.292,16.147-.121-.161-.019.029L-722.6-3413.6l10.156-.8H-725.9l11.982,18.09-9.05,13.763-6.028,8.312,16.463,23.779,18.021-20.781h-4.956L-712.537-3357l-11.507-17.24,11.507-19.819,13.515,17.439-13.515,2.379,18.021-.2-16.51-21.968,11.553-18-1.707-1.862h15.633l2.01,2.9,2.517-2.9h33.971l1.924,1.862-11.292,16.147-.121-.161-.019.029L-666.6-3413.6l10.156-.8H-669.9l11.982,18.09-9.051,13.763-6.028,8.312,16.463,23.779,18.021-20.781h-4.955L-656.537-3357l-11.507-17.24,11.507-19.819,13.515,17.439-13.515,2.379,18.021-.2-16.51-21.968,11.554-18-1.707-1.862H-534v40.488l-5.777-5.394-13.009,14.188,11.553,18-16.51,21.968,18.022.2-13.516-2.379,13.516-17.439,5.72,9.853v18.635l-5.72,8.571-13.065-14.242h-4.956l18.022,20.781,5.72-8.263v15.036h-24.532l5.176-7.815h-13.46l10.156.8-4.63,7.015h-11.379l-5.465-7.815,11.356-10.99,8.466,7.793h3.3l-11.77-10.99-13.009,14.187,5.017,7.815Zm-607.135-68.783,11.982,18.09-9.051,13.763-6.028,8.312,16.463,23.779,18.021-20.781h-4.955l-13.065,14.242-11.508-17.24,11.508-19.818,13.515,17.439-13.515,2.38,18.021-.2-16.51-21.968,11.554-18-13.01-14.187-11.769,10.99h3.3l8.465-7.792,11.357,10.99-11.292,16.147-.12-.161-.019.029-10.043-15.216,10.156-.8Zm-603.839,43.162,18.021,20.781,16.462-23.779-6.028-8.311-9.05-13.764,11.982-18.09h-13.46l10.156.8-10.042,15.216-.019-.029-.122.161-11.291-16.147,11.356-10.99,8.466,7.793h3.3l-11.771-10.99-13.008,14.187,11.552,18-16.509,21.968,18.021.2-13.516-2.38,13.516-17.439,11.506,19.819-11.506,17.24-13.064-14.242Zm1003.838-45.1,11.982,18.09-9.052,13.764-6.028,8.312,16.463,23.779,18.021-20.782h-4.955l-13.065,14.242-11.507-17.239,11.507-19.819,13.515,17.439-13.515,2.379,18.021-.2-16.51-21.968,11.554-18-13.01-14.187-11.769,10.99h3.3l8.465-7.793,11.357,10.99-11.292,16.148-.121-.161-.019.029-10.043-15.216,10.155-.8Zm-1403.839,43.163,18.022,20.781,16.462-23.779-6.028-8.312-9.051-13.763,11.982-18.09h-13.459l10.155.8-10.042,15.216-.019-.029-.122.161-11.291-16.147,11.356-10.991,8.466,7.793h3.3l-11.77-10.99-13.009,14.188,11.553,18-16.51,21.968,18.022.2-13.516-2.379,13.516-17.439,11.506,19.819-11.507,17.24-13.065-14.242h-4.957Zm571-1.936h0l18.021,20.781,16.462-23.779-6.028-8.311-9.05-13.764,11.982-18.09h-13.46l10.156.8L-1596.7-3352.9l-.019-.029-.122.161-11.292-16.146,11.356-10.991,8.466,7.793h3.3l-11.771-10.991-13.008,14.188,11.553,18-16.51,21.968,18.021.2-13.516-2.379,13.516-17.439,11.506,19.818-11.506,17.24-13.065-14.242h-4.957Zm261.84-43.163,11.982,18.09-9.051,13.763-6.028,8.312,16.463,23.779,18.021-20.781h-4.956l-13.065,14.242-11.508-17.24,11.508-19.819,13.515,17.439-13.515,2.379,18.021-.2-16.51-21.967,11.554-18-13.009-14.188-11.769,10.99h3.3l8.465-7.792,11.357,10.99-11.292,16.146-.12-.161-.019.029-10.043-15.215,10.156-.8Zm-661.839,41.228,18.021,20.781,16.462-23.779-6.028-8.312-9.05-13.763,11.982-18.09h-13.459l10.155.8-10.042,15.216-.019-.029-.121.161-11.292-16.147,11.356-10.991,8.466,7.794h3.3l-11.771-10.991-13.008,14.188,11.553,18-16.51,21.968,18.021.2-13.516-2.379,13.516-17.439,11.507,19.819-11.507,17.24-13.065-14.242ZM-952.9-3370.854l11.982,18.09L-949.973-3339l-6.028,8.312,16.463,23.779,18.021-20.782h-4.955l-13.065,14.242-11.507-17.239,11.507-19.819,13.515,17.439-13.515,2.379,18.021-.2-16.51-21.968,11.554-18-13.01-14.187-11.769,10.99h3.3l8.465-7.793,11.357,10.99-11.292,16.148-.121-.161-.019.029-10.043-15.216,10.155-.8Zm-144-18.386,11.982,18.09-9.052,13.763-6.028,8.312,16.463,23.779,18.021-20.781h-4.955l-13.065,14.242-11.507-17.24,11.507-19.819,13.515,17.439-13.515,2.379,18.021-.2-16.51-21.967,11.554-18-13.009-14.188-11.769,10.99h3.3l8.466-7.792,11.357,10.991-11.292,16.147-.121-.161-.019.029-10.043-15.216,10.155-.8Zm-171,0,11.982,18.09-9.052,13.763-6.028,8.312,16.463,23.779,18.021-20.781h-4.955l-13.065,14.242-11.507-17.24,11.507-19.819,13.515,17.439-13.515,2.379,18.021-.2-16.51-21.967,11.554-18-13.009-14.188-11.769,10.99h3.3l8.466-7.792,11.357,10.991-11.292,16.147-.121-.161-.019.029-10.043-15.216,10.155-.8Zm-168,0h0l11.982,18.09-9.051,13.763-6.028,8.312,16.463,23.779,18.021-20.781h-4.955l-13.065,14.242-11.507-17.24,11.507-19.819,13.515,17.439-13.515,2.379,18.021-.2-16.51-21.967,11.554-18-13.01-14.188-11.769,10.99h3.3l8.465-7.792,11.357,10.991-11.292,16.147-.121-.161-.019.029-10.043-15.216,10.156-.8H-1435.9Zm-95.839,43.162,18.021,20.781,16.462-23.779-6.028-8.311-9.05-13.764,11.982-18.09h-13.459l10.155.8-10.042,15.216-.019-.029-.121.161-11.292-16.147,11.356-10.99,8.466,7.793h3.3l-11.77-10.991-13.008,14.188,11.553,18-16.509,21.968,18.021.2-13.516-2.379,13.516-17.439,11.507,19.819-11.507,17.24-13.065-14.242Zm-168,0,18.021,20.781,16.462-23.779-6.028-8.311-9.05-13.764,11.982-18.09h-13.459l10.156.8-10.042,15.216-.019-.029-.121.161-11.291-16.147,11.356-10.99,8.466,7.793h3.3l-11.77-10.991-13.009,14.188,11.553,18-16.509,21.968,18.021.2-13.516-2.379,13.516-17.439,11.507,19.819-11.507,17.24-13.065-14.242Zm-171,0,18.021,20.781,16.462-23.779-6.028-8.311-9.05-13.764,11.982-18.09h-13.459l10.156.8-10.042,15.216-.019-.029-.121.161-11.291-16.147,11.356-10.99,8.466,7.793h3.3l-11.77-10.991-13.008,14.188,11.552,18-16.509,21.968,18.021.2-13.515-2.379,13.515-17.439,11.507,19.819-11.507,17.24-13.064-14.242Zm-286-.968,18.021,20.782,16.463-23.779-6.029-8.312-9.051-13.764,11.982-18.09h-13.458l10.155.8-10.042,15.216-.019-.03-.121.161-11.292-16.147,11.356-10.99,8.467,7.793h3.3l-11.771-10.991-13.009,14.188,11.554,18-16.509,21.968,18.021.2-13.515-2.38,13.515-17.439,11.507,19.82-11.507,17.239-13.066-14.242Zm-56,0h0l18.022,20.782,16.462-23.779-6.028-8.312-9.051-13.764,11.982-18.09h-13.459l10.155.8-10.042,15.216-.019-.03-.122.161-11.291-16.147,11.356-10.99,8.466,7.793h3.3l-11.77-10.991-13.009,14.188,11.553,18-16.51,21.968,18.022.2-13.516-2.38,13.516-17.439,11.506,19.82-11.507,17.239-13.065-14.242h-4.957Zm1457.84-43.162,11.982,18.09-9.052,13.763-6.028,8.312,16.463,23.779,18.021-20.781h-4.955l-13.065,14.242-11.507-17.24,11.507-19.819,13.515,17.439-13.515,2.379,18.021-.2-16.51-21.968,11.554-18-13.01-14.188-11.769,10.991h3.3l8.465-7.793,11.357,10.991-11.292,16.146-.121-.161-.019.029-10.043-15.216,10.155-.8Zm-56,0,11.982,18.09-9.05,13.763-6.028,8.312,16.463,23.779,18.021-20.781h-4.956l-13.064,14.242-11.507-17.24,11.507-19.819,13.515,17.439-13.515,2.379,18.021-.2-16.51-21.968,11.553-18-13.009-14.188-11.769,10.991h3.3l8.465-7.793,11.357,10.991-11.292,16.146-.12-.161-.019.029-10.043-15.216,10.156-.8Zm168.162,42.194,18.021,20.781,16.462-23.779-6.028-8.311-9.05-13.764,11.982-18.09h-13.459l10.155.8-10.042,15.215-.019-.029-.122.161-11.291-16.147,11.356-10.99,8.466,7.793h3.3l-11.77-10.99-13.008,14.188,11.553,18-16.509,21.968,18.021.2-13.516-2.38,13.516-17.439,11.507,19.819-11.507,17.24-13.065-14.242Zm-54.161-43.163,11.982,18.09-9.051,13.764-6.028,8.312,16.463,23.779,18.021-20.782h-4.955l-13.065,14.241-11.507-17.239,11.507-19.818,13.515,17.439-13.515,2.38,18.021-.2-16.51-21.967,11.554-18-13.009-14.187-11.769,10.99h3.3l8.465-7.792,11.357,10.99-11.292,16.147-.121-.161-.019.029-10.043-15.216,10.156-.8Zm-171,0,11.982,18.09-9.051,13.764-6.028,8.312,16.463,23.779,18.021-20.782h-4.955l-13.065,14.241-11.507-17.239,11.507-19.818,13.515,17.439-13.515,2.38,18.021-.2-16.51-21.967,11.554-18-13.009-14.187-11.769,10.99h3.3l8.465-7.792,11.357,10.99-11.292,16.147-.121-.161-.019.029-10.043-15.216,10.155-.8Zm-168,0,11.982,18.09-9.051,13.764-6.028,8.312,16.463,23.779,18.021-20.782h-4.955l-13.065,14.241-11.508-17.239,11.508-19.818,13.515,17.439-13.515,2.38,18.021-.2-16.51-21.967,11.554-18-13.01-14.187-11.769,10.99h3.3l8.465-7.792,11.357,10.99-11.292,16.147-.12-.161-.019.029-10.043-15.216,10.156-.8Zm-895.839,43.163,18.021,20.781,16.462-23.779-6.028-8.312-9.05-13.763,11.982-18.09h-13.46l10.156.8-10.042,15.215-.019-.029-.122.161-11.291-16.147,11.356-10.99,8.466,7.793h3.3l-11.77-10.99-13.009,14.188,11.553,18-16.509,21.968,18.021.2-13.516-2.38,13.516-17.439,11.506,19.819-11.506,17.24-13.065-14.242Zm-168,0,18.021,20.781,16.462-23.779-6.029-8.312-9.05-13.763,11.982-18.09h-13.459l10.156.8-10.042,15.215-.019-.029-.121.161-11.292-16.147,11.356-10.99,8.467,7.793h3.3l-11.77-10.99-13.009,14.188,11.553,18-16.509,21.968,18.021.2-13.516-2.38,13.516-17.439,11.506,19.819-11.506,17.24-13.065-14.242Zm-171,0,18.021,20.781,16.462-23.779-6.029-8.312-9.05-13.763,11.982-18.09h-13.459l10.156.8-10.042,15.215-.019-.029-.121.161-11.292-16.147,11.356-10.99,8.467,7.793h3.3l-11.77-10.99-13.009,14.188,11.553,18-16.509,21.968,18.021.2-13.516-2.38,13.516-17.439,11.506,19.819-11.506,17.24-13.065-14.242Zm285-2.9h0l18.02,20.781,16.463-23.779-6.028-8.312-9.051-13.764,11.983-18.09h-13.46l10.156.8-10.042,15.216-.02-.03-.121.161-11.291-16.147,11.356-10.991,8.466,7.793h3.3l-11.769-10.991-13.009,14.188,11.554,18-16.509,21.968,18.02.2-13.514-2.38,13.514-17.439,11.506,19.819-11.506,17.239-13.065-14.242h-4.955Zm-56,0h0l18.021,20.781,16.462-23.779-6.028-8.312-9.05-13.764,11.982-18.09h-13.459l10.155.8-10.042,15.216-.019-.03-.121.161-11.292-16.147,11.356-10.991,8.466,7.793h3.3l-11.771-10.991-13.008,14.188,11.553,18-16.51,21.968,18.021.2-13.516-2.38,13.516-17.439,11.507,19.819-11.507,17.239-13.065-14.242h-4.957ZM-925.9-3394.079l11.982,18.09-9.052,13.763-6.028,8.311,16.463,23.779,18.021-20.781h-4.955l-13.065,14.242-11.507-17.24,11.507-19.819,13.515,17.439-13.515,2.379,18.021-.2-16.51-21.968,11.554-18-13.01-14.188-11.769,10.991h3.3l8.465-7.793,11.357,10.991-11.292,16.147-.121-.161-.019.029-10.043-15.216,10.155-.8Zm-56,0,11.982,18.09-9.05,13.763-6.028,8.311,16.463,23.779,18.021-20.781h-4.956l-13.064,14.242-11.507-17.24,11.507-19.819,13.515,17.439-13.515,2.379,18.021-.2-16.51-21.968,11.553-18-13.009-14.188-11.769,10.991h3.3l8.465-7.793,11.357,10.991-11.292,16.147-.12-.161-.019.029-10.043-15.216,10.156-.8Zm392.954,97.815h-15.81l9.039-11.663,6.77,11.662Zm-56,0h-15.81l9.039-11.663,6.77,11.662Zm-404.049,0h-13.187l5.648-9.728,7.538,9.726Zm-56,0h-13.187l5.648-9.728,7.538,9.726Zm-115,0h-13.187l5.648-9.728,7.538,9.726Zm-56,0h-13.187l5.648-9.728,7.538,9.726Zm-112,0h-13.187l5.648-9.728,7.538,9.726Zm-56,0h-13.187l5.648-9.728,7.538,9.726Zm-35.075,0h-13.187l7.539-9.728,5.647,9.727Zm-56,0h-13.187l7.539-9.728,5.647,9.727Zm-112,0h-13.187l7.539-9.728,5.647,9.727Zm-56,0h-13.187l7.54-9.728,5.647,9.727Zm-115,0h-13.187l7.539-9.728,5.647,9.727Zm-56,0h-13.187l7.539-9.728,5.647,9.727ZM-534-3342.3l0,0-4.335-6.593,4.337-6.548v13.144Zm-5.842-8.539h0l-11.291-16.145,11.356-10.991,5.777,5.318v5.673h-5.815l5.815.458v6.918l-5.7,8.639-.019-.029-.121.16Z" transform="translate(-2.687 4398.405) rotate(45)" fill="rgba(46,46,46,0.55)"/>
  </g>
</svg>
